<?xml version="1.0" encoding="UTF-8" standalone="no"?>
<!DOCTYPE svg PUBLIC "-//W3C//DTD SVG 1.1//EN"
 "http://www.w3.org/Graphics/SVG/1.1/DTD/svg11.dtd">
<!-- Generated by graphviz version 2.43.0 (0)
 -->
<!-- Title: library.h Pages: 1 -->
<svg width="282pt" height="84pt"
 viewBox="0.00 0.00 282.00 84.00" xmlns="http://www.w3.org/2000/svg" xmlns:xlink="http://www.w3.org/1999/xlink">
<g id="graph0" class="graph" transform="scale(1 1) rotate(0) translate(4 80)">
<title>library.h</title>
<polygon fill="white" stroke="transparent" points="-4,4 -4,-80 278,-80 278,4 -4,4"/>
<!-- Node1 -->
<g id="node1" class="node">
<title>Node1</title>
<g id="a_node1"><a xlink:title=" ">
<polygon fill="#bfbfbf" stroke="black" points="115,-56.5 115,-75.5 171,-75.5 171,-56.5 115,-56.5"/>
<text text-anchor="middle" x="143" y="-63.5" font-family="Helvetica,sans-Serif" font-size="10.00">library.h</text>
</a>
</g>
</g>
<!-- Node2 -->
<g id="node2" class="node">
<title>Node2</title>
<g id="a_node2"><a xlink:title=" ">
<polygon fill="white" stroke="#bfbfbf" points="0,-0.5 0,-19.5 56,-19.5 56,-0.5 0,-0.5"/>
<text text-anchor="middle" x="28" y="-7.5" font-family="Helvetica,sans-Serif" font-size="10.00">stddef.h</text>
</a>
</g>
</g>
<!-- Node1&#45;&gt;Node2 -->
<g id="edge1" class="edge">
<title>Node1&#45;&gt;Node2</title>
<path fill="none" stroke="midnightblue" d="M124.78,-56.44C106.1,-47.68 76.84,-33.94 55.38,-23.86"/>
<polygon fill="midnightblue" stroke="midnightblue" points="56.68,-20.6 46.14,-19.52 53.7,-26.93 56.68,-20.6"/>
</g>
<!-- Node3 -->
<g id="node3" class="node">
<title>Node3</title>
<g id="a_node3"><a xlink:title=" ">
<polygon fill="white" stroke="#bfbfbf" points="74,-0.5 74,-19.5 136,-19.5 136,-0.5 74,-0.5"/>
<text text-anchor="middle" x="105" y="-7.5" font-family="Helvetica,sans-Serif" font-size="10.00">stdbool.h</text>
</a>
</g>
</g>
<!-- Node1&#45;&gt;Node3 -->
<g id="edge2" class="edge">
<title>Node1&#45;&gt;Node3</title>
<path fill="none" stroke="midnightblue" d="M136.73,-56.08C131.36,-48.46 123.48,-37.26 116.92,-27.94"/>
<polygon fill="midnightblue" stroke="midnightblue" points="119.78,-25.91 111.16,-19.75 114.05,-29.94 119.78,-25.91"/>
</g>
<!-- Node4 -->
<g id="node4" class="node">
<title>Node4</title>
<g id="a_node4"><a xlink:title=" ">
<polygon fill="white" stroke="#bfbfbf" points="154.5,-0.5 154.5,-19.5 207.5,-19.5 207.5,-0.5 154.5,-0.5"/>
<text text-anchor="middle" x="181" y="-7.5" font-family="Helvetica,sans-Serif" font-size="10.00">stdint.h</text>
</a>
</g>
</g>
<!-- Node1&#45;&gt;Node4 -->
<g id="edge3" class="edge">
<title>Node1&#45;&gt;Node4</title>
<path fill="none" stroke="midnightblue" d="M149.27,-56.08C154.64,-48.46 162.52,-37.26 169.08,-27.94"/>
<polygon fill="midnightblue" stroke="midnightblue" points="171.95,-29.94 174.84,-19.75 166.22,-25.91 171.95,-29.94"/>
</g>
<!-- Node5 -->
<g id="node5" class="node">
<title>Node5</title>
<g id="a_node5"><a xlink:title=" ">
<polygon fill="white" stroke="#bfbfbf" points="226,-0.5 226,-19.5 274,-19.5 274,-0.5 226,-0.5"/>
<text text-anchor="middle" x="250" y="-7.5" font-family="Helvetica,sans-Serif" font-size="10.00">time.h</text>
</a>
</g>
</g>
<!-- Node1&#45;&gt;Node5 -->
<g id="edge4" class="edge">
<title>Node1&#45;&gt;Node5</title>
<path fill="none" stroke="midnightblue" d="M160.19,-56.32C177.35,-47.66 203.95,-34.24 223.75,-24.25"/>
<polygon fill="midnightblue" stroke="midnightblue" points="225.5,-27.28 232.85,-19.65 222.35,-21.04 225.5,-27.28"/>
</g>
</g>
</svg>
