<?xml version="1.0" encoding="UTF-8" standalone="no"?>
<!DOCTYPE svg PUBLIC "-//W3C//DTD SVG 1.1//EN"
 "http://www.w3.org/Graphics/SVG/1.1/DTD/svg11.dtd">
<!-- Generated by graphviz version 2.43.0 (0)
 -->
<!-- Title: pending_request Pages: 1 -->
<svg width="153pt" height="95pt"
 viewBox="0.00 0.00 153.00 95.00" xmlns="http://www.w3.org/2000/svg" xmlns:xlink="http://www.w3.org/1999/xlink">
<g id="graph0" class="graph" transform="scale(1 1) rotate(0) translate(4 91)">
<title>pending_request</title>
<polygon fill="white" stroke="transparent" points="-4,4 -4,-91 149,-91 149,4 -4,4"/>
<!-- Node1 -->
<g id="node1" class="node">
<title>Node1</title>
<g id="a_node1"><a xlink:title=" ">
<polygon fill="#bfbfbf" stroke="black" points="4,-0.5 4,-19.5 102,-19.5 102,-0.5 4,-0.5"/>
<text text-anchor="middle" x="53" y="-7.5" font-family="Helvetica,sans-Serif" font-size="10.00">pending_request</text>
</a>
</g>
</g>
<!-- Node1&#45;&gt;Node1 -->
<g id="edge2" class="edge">
<title>Node1&#45;&gt;Node1</title>
<path fill="none" stroke="#9a32cd" stroke-dasharray="5,2" d="M112.32,-14.58C117.06,-13.58 120,-12.05 120,-10 120,-6.72 112.49,-4.78 102.08,-4.19"/>
<polygon fill="#9a32cd" stroke="#9a32cd" points="111.59,-11.14 102.08,-15.81 112.43,-18.09 111.59,-11.14"/>
<text text-anchor="middle" x="132.5" y="-7.5" font-family="Helvetica,sans-Serif" font-size="10.00"> next</text>
</g>
<!-- Node2 -->
<g id="node2" class="node">
<title>Node2</title>
<g id="a_node2"><a xlink:href="structobsws__response__t.html" target="_top" xlink:title="Response structure for requests to OBS.">
<polygon fill="white" stroke="black" points="0,-67.5 0,-86.5 106,-86.5 106,-67.5 0,-67.5"/>
<text text-anchor="middle" x="53" y="-74.5" font-family="Helvetica,sans-Serif" font-size="10.00">obsws_response_t</text>
</a>
</g>
</g>
<!-- Node2&#45;&gt;Node1 -->
<g id="edge1" class="edge">
<title>Node2&#45;&gt;Node1</title>
<path fill="none" stroke="#9a32cd" stroke-dasharray="5,2" d="M53,-57.04C53,-44.67 53,-29.12 53,-19.63"/>
<polygon fill="#9a32cd" stroke="#9a32cd" points="49.5,-57.23 53,-67.23 56.5,-57.23 49.5,-57.23"/>
<text text-anchor="middle" x="77" y="-41" font-family="Helvetica,sans-Serif" font-size="10.00"> response</text>
</g>
</g>
</svg>
