<?xml version="1.0" encoding="UTF-8" standalone="no"?>
<!DOCTYPE svg PUBLIC "-//W3C//DTD SVG 1.1//EN"
 "http://www.w3.org/Graphics/SVG/1.1/DTD/svg11.dtd">
<!-- Generated by graphviz version 2.43.0 (0)
 -->
<!-- Title: library.c Pages: 1 -->
<svg width="1900pt" height="140pt"
 viewBox="0.00 0.00 1899.50 140.00" xmlns="http://www.w3.org/2000/svg" xmlns:xlink="http://www.w3.org/1999/xlink">
<g id="graph0" class="graph" transform="scale(1 1) rotate(0) translate(4 136)">
<title>library.c</title>
<polygon fill="white" stroke="transparent" points="-4,4 -4,-136 1895.5,-136 1895.5,4 -4,4"/>
<!-- Node1 -->
<g id="node1" class="node">
<title>Node1</title>
<g id="a_node1"><a xlink:title=" ">
<polygon fill="#bfbfbf" stroke="black" points="907.5,-112.5 907.5,-131.5 962.5,-131.5 962.5,-112.5 907.5,-112.5"/>
<text text-anchor="middle" x="935" y="-119.5" font-family="Helvetica,sans-Serif" font-size="10.00">library.c</text>
</a>
</g>
</g>
<!-- Node2 -->
<g id="node2" class="node">
<title>Node2</title>
<g id="a_node2"><a xlink:href="../../dd/d08/library_8h.html" target="_top" xlink:title=" ">
<polygon fill="white" stroke="black" points="153,-56.5 153,-75.5 209,-75.5 209,-56.5 153,-56.5"/>
<text text-anchor="middle" x="181" y="-63.5" font-family="Helvetica,sans-Serif" font-size="10.00">library.h</text>
</a>
</g>
</g>
<!-- Node1&#45;&gt;Node2 -->
<g id="edge1" class="edge">
<title>Node1&#45;&gt;Node2</title>
<path fill="none" stroke="midnightblue" d="M907.3,-120.45C812.38,-118.29 491.62,-108.87 229,-76 225.76,-75.59 222.41,-75.11 219.06,-74.57"/>
<polygon fill="midnightblue" stroke="midnightblue" points="219.53,-71.1 209.08,-72.86 218.35,-78 219.53,-71.1"/>
</g>
<!-- Node6 -->
<g id="node6" class="node">
<title>Node6</title>
<g id="a_node6"><a xlink:title=" ">
<polygon fill="white" stroke="#bfbfbf" points="226,-0.5 226,-19.5 274,-19.5 274,-0.5 226,-0.5"/>
<text text-anchor="middle" x="250" y="-7.5" font-family="Helvetica,sans-Serif" font-size="10.00">time.h</text>
</a>
</g>
</g>
<!-- Node1&#45;&gt;Node6 -->
<g id="edge9" class="edge">
<title>Node1&#45;&gt;Node6</title>
<path fill="none" stroke="midnightblue" d="M907.17,-121.11C786.31,-121.34 310.81,-119.46 262,-76 249.3,-64.69 247.28,-44.69 247.84,-29.85"/>
<polygon fill="midnightblue" stroke="midnightblue" points="251.34,-29.98 248.63,-19.74 244.36,-29.44 251.34,-29.98"/>
</g>
<!-- Node7 -->
<g id="node7" class="node">
<title>Node7</title>
<g id="a_node7"><a xlink:title=" ">
<polygon fill="white" stroke="#bfbfbf" points="271,-56.5 271,-75.5 321,-75.5 321,-56.5 271,-56.5"/>
<text text-anchor="middle" x="296" y="-63.5" font-family="Helvetica,sans-Serif" font-size="10.00">stdio.h</text>
</a>
</g>
</g>
<!-- Node1&#45;&gt;Node7 -->
<g id="edge6" class="edge">
<title>Node1&#45;&gt;Node7</title>
<path fill="none" stroke="midnightblue" d="M907.4,-120.68C821.47,-119.31 551.23,-112.22 331,-76 330.9,-75.98 330.8,-75.97 330.7,-75.95"/>
<polygon fill="midnightblue" stroke="midnightblue" points="331.61,-72.56 321.12,-74.03 330.24,-79.43 331.61,-72.56"/>
</g>
<!-- Node8 -->
<g id="node8" class="node">
<title>Node8</title>
<g id="a_node8"><a xlink:title=" ">
<polygon fill="white" stroke="#bfbfbf" points="339.5,-56.5 339.5,-75.5 392.5,-75.5 392.5,-56.5 339.5,-56.5"/>
<text text-anchor="middle" x="366" y="-63.5" font-family="Helvetica,sans-Serif" font-size="10.00">stdlib.h</text>
</a>
</g>
</g>
<!-- Node1&#45;&gt;Node8 -->
<g id="edge7" class="edge">
<title>Node1&#45;&gt;Node8</title>
<path fill="none" stroke="midnightblue" d="M907.35,-120.23C829.43,-117.74 601.43,-108.17 402.68,-75.82"/>
<polygon fill="midnightblue" stroke="midnightblue" points="403.07,-72.34 392.64,-74.17 401.93,-79.25 403.07,-72.34"/>
</g>
<!-- Node9 -->
<g id="node9" class="node">
<title>Node9</title>
<g id="a_node9"><a xlink:title=" ">
<polygon fill="white" stroke="#bfbfbf" points="410.5,-56.5 410.5,-75.5 463.5,-75.5 463.5,-56.5 410.5,-56.5"/>
<text text-anchor="middle" x="437" y="-63.5" font-family="Helvetica,sans-Serif" font-size="10.00">string.h</text>
</a>
</g>
</g>
<!-- Node1&#45;&gt;Node9 -->
<g id="edge8" class="edge">
<title>Node1&#45;&gt;Node9</title>
<path fill="none" stroke="midnightblue" d="M907.47,-119.74C836.94,-116.22 643.93,-104.67 473.54,-75.83"/>
<polygon fill="midnightblue" stroke="midnightblue" points="474.09,-72.37 463.64,-74.13 472.91,-79.27 474.09,-72.37"/>
</g>
<!-- Node10 -->
<g id="node10" class="node">
<title>Node10</title>
<g id="a_node10"><a xlink:title=" ">
<polygon fill="white" stroke="#bfbfbf" points="481.5,-56.5 481.5,-75.5 544.5,-75.5 544.5,-56.5 481.5,-56.5"/>
<text text-anchor="middle" x="513" y="-63.5" font-family="Helvetica,sans-Serif" font-size="10.00">pthread.h</text>
</a>
</g>
</g>
<!-- Node1&#45;&gt;Node10 -->
<g id="edge10" class="edge">
<title>Node1&#45;&gt;Node10</title>
<path fill="none" stroke="midnightblue" d="M907.14,-118.66C845.49,-113.27 692.75,-98.82 554.64,-75.95"/>
<polygon fill="midnightblue" stroke="midnightblue" points="555.16,-72.49 544.72,-74.29 554.01,-79.39 555.16,-72.49"/>
</g>
<!-- Node11 -->
<g id="node11" class="node">
<title>Node11</title>
<g id="a_node11"><a xlink:title=" ">
<polygon fill="white" stroke="#bfbfbf" points="563,-56.5 563,-75.5 619,-75.5 619,-56.5 563,-56.5"/>
<text text-anchor="middle" x="591" y="-63.5" font-family="Helvetica,sans-Serif" font-size="10.00">unistd.h</text>
</a>
</g>
</g>
<!-- Node1&#45;&gt;Node11 -->
<g id="edge11" class="edge">
<title>Node1&#45;&gt;Node11</title>
<path fill="none" stroke="midnightblue" d="M907.33,-117.82C854.99,-111.62 737.7,-96.83 629.34,-76.11"/>
<polygon fill="midnightblue" stroke="midnightblue" points="629.71,-72.61 619.22,-74.15 628.38,-79.49 629.71,-72.61"/>
</g>
<!-- Node12 -->
<g id="node12" class="node">
<title>Node12</title>
<g id="a_node12"><a xlink:title=" ">
<polygon fill="white" stroke="#bfbfbf" points="637,-56.5 637,-75.5 693,-75.5 693,-56.5 637,-56.5"/>
<text text-anchor="middle" x="665" y="-63.5" font-family="Helvetica,sans-Serif" font-size="10.00">stdarg.h</text>
</a>
</g>
</g>
<!-- Node1&#45;&gt;Node12 -->
<g id="edge12" class="edge">
<title>Node1&#45;&gt;Node12</title>
<path fill="none" stroke="midnightblue" d="M907.43,-116.03C863.89,-108.1 776.6,-91.85 703,-76 702.9,-75.98 702.8,-75.96 702.7,-75.94"/>
<polygon fill="midnightblue" stroke="midnightblue" points="703.71,-72.58 693.19,-73.81 702.19,-79.41 703.71,-72.58"/>
</g>
<!-- Node13 -->
<g id="node13" class="node">
<title>Node13</title>
<g id="a_node13"><a xlink:title=" ">
<polygon fill="white" stroke="#bfbfbf" points="711.5,-56.5 711.5,-75.5 788.5,-75.5 788.5,-56.5 711.5,-56.5"/>
<text text-anchor="middle" x="750" y="-63.5" font-family="Helvetica,sans-Serif" font-size="10.00">sys/socket.h</text>
</a>
</g>
</g>
<!-- Node1&#45;&gt;Node13 -->
<g id="edge13" class="edge">
<title>Node1&#45;&gt;Node13</title>
<path fill="none" stroke="midnightblue" d="M907.3,-112.92C876.02,-103.78 824.86,-88.85 789.42,-78.51"/>
<polygon fill="midnightblue" stroke="midnightblue" points="790,-75.03 779.42,-75.59 788.04,-81.75 790,-75.03"/>
</g>
<!-- Node14 -->
<g id="node14" class="node">
<title>Node14</title>
<g id="a_node14"><a xlink:title=" ">
<polygon fill="white" stroke="#bfbfbf" points="807,-56.5 807,-75.5 881,-75.5 881,-56.5 807,-56.5"/>
<text text-anchor="middle" x="844" y="-63.5" font-family="Helvetica,sans-Serif" font-size="10.00">sys/select.h</text>
</a>
</g>
</g>
<!-- Node1&#45;&gt;Node14 -->
<g id="edge14" class="edge">
<title>Node1&#45;&gt;Node14</title>
<path fill="none" stroke="midnightblue" d="M920.38,-112.32C906.05,-103.82 883.99,-90.73 867.25,-80.8"/>
<polygon fill="midnightblue" stroke="midnightblue" points="868.97,-77.75 858.58,-75.65 865.4,-83.77 868.97,-77.75"/>
</g>
<!-- Node15 -->
<g id="node15" class="node">
<title>Node15</title>
<g id="a_node15"><a xlink:title=" ">
<polygon fill="white" stroke="#bfbfbf" points="899,-56.5 899,-75.5 971,-75.5 971,-56.5 899,-56.5"/>
<text text-anchor="middle" x="935" y="-63.5" font-family="Helvetica,sans-Serif" font-size="10.00">netinet/in.h</text>
</a>
</g>
</g>
<!-- Node1&#45;&gt;Node15 -->
<g id="edge15" class="edge">
<title>Node1&#45;&gt;Node15</title>
<path fill="none" stroke="midnightblue" d="M935,-112.08C935,-105.01 935,-94.86 935,-85.99"/>
<polygon fill="midnightblue" stroke="midnightblue" points="938.5,-85.75 935,-75.75 931.5,-85.75 938.5,-85.75"/>
</g>
<!-- Node16 -->
<g id="node16" class="node">
<title>Node16</title>
<g id="a_node16"><a xlink:title=" ">
<polygon fill="white" stroke="#bfbfbf" points="989.5,-56.5 989.5,-75.5 1058.5,-75.5 1058.5,-56.5 989.5,-56.5"/>
<text text-anchor="middle" x="1024" y="-63.5" font-family="Helvetica,sans-Serif" font-size="10.00">arpa/inet.h</text>
</a>
</g>
</g>
<!-- Node1&#45;&gt;Node16 -->
<g id="edge16" class="edge">
<title>Node1&#45;&gt;Node16</title>
<path fill="none" stroke="midnightblue" d="M949.3,-112.32C963.18,-103.9 984.49,-90.97 1000.8,-81.07"/>
<polygon fill="midnightblue" stroke="midnightblue" points="1003,-83.83 1009.74,-75.65 999.37,-77.85 1003,-83.83"/>
</g>
<!-- Node17 -->
<g id="node17" class="node">
<title>Node17</title>
<g id="a_node17"><a xlink:title=" ">
<polygon fill="white" stroke="#bfbfbf" points="1076.5,-56.5 1076.5,-75.5 1129.5,-75.5 1129.5,-56.5 1076.5,-56.5"/>
<text text-anchor="middle" x="1103" y="-63.5" font-family="Helvetica,sans-Serif" font-size="10.00">netdb.h</text>
</a>
</g>
</g>
<!-- Node1&#45;&gt;Node17 -->
<g id="edge17" class="edge">
<title>Node1&#45;&gt;Node17</title>
<path fill="none" stroke="midnightblue" d="M961.62,-112.44C990.01,-103.32 1035.14,-88.81 1066.75,-78.65"/>
<polygon fill="midnightblue" stroke="midnightblue" points="1068.06,-81.91 1076.5,-75.52 1065.91,-75.24 1068.06,-81.91"/>
</g>
<!-- Node18 -->
<g id="node18" class="node">
<title>Node18</title>
<g id="a_node18"><a xlink:title=" ">
<polygon fill="white" stroke="#bfbfbf" points="1147.5,-56.5 1147.5,-75.5 1198.5,-75.5 1198.5,-56.5 1147.5,-56.5"/>
<text text-anchor="middle" x="1173" y="-63.5" font-family="Helvetica,sans-Serif" font-size="10.00">errno.h</text>
</a>
</g>
</g>
<!-- Node1&#45;&gt;Node18 -->
<g id="edge18" class="edge">
<title>Node1&#45;&gt;Node18</title>
<path fill="none" stroke="midnightblue" d="M962.8,-115.25C1000.3,-107.41 1069.39,-92.68 1137.39,-76.32"/>
<polygon fill="midnightblue" stroke="midnightblue" points="1138.51,-79.65 1147.41,-73.9 1136.87,-72.85 1138.51,-79.65"/>
</g>
<!-- Node19 -->
<g id="node19" class="node">
<title>Node19</title>
<g id="a_node19"><a xlink:title=" ">
<polygon fill="white" stroke="#bfbfbf" points="1217,-56.5 1217,-75.5 1261,-75.5 1261,-56.5 1217,-56.5"/>
<text text-anchor="middle" x="1239" y="-63.5" font-family="Helvetica,sans-Serif" font-size="10.00">poll.h</text>
</a>
</g>
</g>
<!-- Node1&#45;&gt;Node19 -->
<g id="edge19" class="edge">
<title>Node1&#45;&gt;Node19</title>
<path fill="none" stroke="midnightblue" d="M962.72,-117.54C1010.6,-111.33 1111.98,-97.14 1206.7,-76.07"/>
<polygon fill="midnightblue" stroke="midnightblue" points="1207.75,-79.42 1216.73,-73.81 1206.21,-72.6 1207.75,-79.42"/>
</g>
<!-- Node20 -->
<g id="node20" class="node">
<title>Node20</title>
<g id="a_node20"><a xlink:title=" ">
<polygon fill="white" stroke="#bfbfbf" points="1279.5,-56.5 1279.5,-75.5 1374.5,-75.5 1374.5,-56.5 1279.5,-56.5"/>
<text text-anchor="middle" x="1327" y="-63.5" font-family="Helvetica,sans-Serif" font-size="10.00">libwebsockets.h</text>
</a>
</g>
</g>
<!-- Node1&#45;&gt;Node20 -->
<g id="edge20" class="edge">
<title>Node1&#45;&gt;Node20</title>
<path fill="none" stroke="midnightblue" d="M962.83,-117.48C1018.71,-110.37 1148.82,-93.58 1269.29,-76.07"/>
<polygon fill="midnightblue" stroke="midnightblue" points="1270.04,-79.5 1279.43,-74.6 1269.03,-72.58 1270.04,-79.5"/>
</g>
<!-- Node21 -->
<g id="node21" class="node">
<title>Node21</title>
<g id="a_node21"><a xlink:title=" ">
<polygon fill="white" stroke="#bfbfbf" points="1392.5,-56.5 1392.5,-75.5 1475.5,-75.5 1475.5,-56.5 1392.5,-56.5"/>
<text text-anchor="middle" x="1434" y="-63.5" font-family="Helvetica,sans-Serif" font-size="10.00">openssl/sha.h</text>
</a>
</g>
</g>
<!-- Node1&#45;&gt;Node21 -->
<g id="edge21" class="edge">
<title>Node1&#45;&gt;Node21</title>
<path fill="none" stroke="midnightblue" d="M962.68,-118.98C1031.73,-113.79 1217.32,-98.85 1381.98,-76.19"/>
<polygon fill="midnightblue" stroke="midnightblue" points="1382.87,-79.6 1392.3,-74.76 1381.91,-72.67 1382.87,-79.6"/>
</g>
<!-- Node22 -->
<g id="node22" class="node">
<title>Node22</title>
<g id="a_node22"><a xlink:title=" ">
<polygon fill="white" stroke="#bfbfbf" points="1494,-56.5 1494,-75.5 1578,-75.5 1578,-56.5 1494,-56.5"/>
<text text-anchor="middle" x="1536" y="-63.5" font-family="Helvetica,sans-Serif" font-size="10.00">openssl/evp.h</text>
</a>
</g>
</g>
<!-- Node1&#45;&gt;Node22 -->
<g id="edge22" class="edge">
<title>Node1&#45;&gt;Node22</title>
<path fill="none" stroke="midnightblue" d="M962.56,-119.65C1041.89,-115.59 1277.69,-102.16 1483.65,-76.06"/>
<polygon fill="midnightblue" stroke="midnightblue" points="1484.27,-79.51 1493.75,-74.77 1483.38,-72.57 1484.27,-79.51"/>
</g>
<!-- Node23 -->
<g id="node23" class="node">
<title>Node23</title>
<g id="a_node23"><a xlink:title=" ">
<polygon fill="white" stroke="#bfbfbf" points="1596.5,-56.5 1596.5,-75.5 1677.5,-75.5 1677.5,-56.5 1596.5,-56.5"/>
<text text-anchor="middle" x="1637" y="-63.5" font-family="Helvetica,sans-Serif" font-size="10.00">openssl/bio.h</text>
</a>
</g>
</g>
<!-- Node1&#45;&gt;Node23 -->
<g id="edge23" class="edge">
<title>Node1&#45;&gt;Node23</title>
<path fill="none" stroke="midnightblue" d="M962.75,-120.17C1051.77,-117.27 1338.34,-106.19 1586.12,-75.96"/>
<polygon fill="midnightblue" stroke="midnightblue" points="1586.9,-79.39 1596.4,-74.69 1586.04,-72.44 1586.9,-79.39"/>
</g>
<!-- Node24 -->
<g id="node24" class="node">
<title>Node24</title>
<g id="a_node24"><a xlink:title=" ">
<polygon fill="white" stroke="#bfbfbf" points="1696,-56.5 1696,-75.5 1790,-75.5 1790,-56.5 1696,-56.5"/>
<text text-anchor="middle" x="1743" y="-63.5" font-family="Helvetica,sans-Serif" font-size="10.00">openssl/buffer.h</text>
</a>
</g>
</g>
<!-- Node1&#45;&gt;Node24 -->
<g id="edge24" class="edge">
<title>Node1&#45;&gt;Node24</title>
<path fill="none" stroke="midnightblue" d="M962.74,-120.34C1060.35,-117.79 1397.19,-107.25 1685.75,-76.02"/>
<polygon fill="midnightblue" stroke="midnightblue" points="1686.43,-79.47 1695.99,-74.9 1685.67,-72.51 1686.43,-79.47"/>
</g>
<!-- Node25 -->
<g id="node25" class="node">
<title>Node25</title>
<g id="a_node25"><a xlink:title=" ">
<polygon fill="white" stroke="#bfbfbf" points="1808.5,-56.5 1808.5,-75.5 1891.5,-75.5 1891.5,-56.5 1808.5,-56.5"/>
<text text-anchor="middle" x="1850" y="-63.5" font-family="Helvetica,sans-Serif" font-size="10.00">cjson/cJSON.h</text>
</a>
</g>
</g>
<!-- Node1&#45;&gt;Node25 -->
<g id="edge25" class="edge">
<title>Node1&#45;&gt;Node25</title>
<path fill="none" stroke="midnightblue" d="M962.71,-120.79C1069.3,-119.73 1463.23,-113.42 1797.93,-75.96"/>
<polygon fill="midnightblue" stroke="midnightblue" points="1798.77,-79.39 1808.31,-74.79 1797.98,-72.43 1798.77,-79.39"/>
</g>
<!-- Node3 -->
<g id="node3" class="node">
<title>Node3</title>
<g id="a_node3"><a xlink:title=" ">
<polygon fill="white" stroke="#bfbfbf" points="0,-0.5 0,-19.5 56,-19.5 56,-0.5 0,-0.5"/>
<text text-anchor="middle" x="28" y="-7.5" font-family="Helvetica,sans-Serif" font-size="10.00">stddef.h</text>
</a>
</g>
</g>
<!-- Node2&#45;&gt;Node3 -->
<g id="edge2" class="edge">
<title>Node2&#45;&gt;Node3</title>
<path fill="none" stroke="midnightblue" d="M156.76,-56.44C131.13,-47.4 90.51,-33.06 61.76,-22.92"/>
<polygon fill="midnightblue" stroke="midnightblue" points="62.72,-19.54 52.13,-19.52 60.39,-26.15 62.72,-19.54"/>
</g>
<!-- Node4 -->
<g id="node4" class="node">
<title>Node4</title>
<g id="a_node4"><a xlink:title=" ">
<polygon fill="white" stroke="#bfbfbf" points="74,-0.5 74,-19.5 136,-19.5 136,-0.5 74,-0.5"/>
<text text-anchor="middle" x="105" y="-7.5" font-family="Helvetica,sans-Serif" font-size="10.00">stdbool.h</text>
</a>
</g>
</g>
<!-- Node2&#45;&gt;Node4 -->
<g id="edge3" class="edge">
<title>Node2&#45;&gt;Node4</title>
<path fill="none" stroke="midnightblue" d="M168.79,-56.32C157.22,-48.11 139.62,-35.6 125.84,-25.81"/>
<polygon fill="midnightblue" stroke="midnightblue" points="127.61,-22.77 117.43,-19.83 123.56,-28.48 127.61,-22.77"/>
</g>
<!-- Node5 -->
<g id="node5" class="node">
<title>Node5</title>
<g id="a_node5"><a xlink:title=" ">
<polygon fill="white" stroke="#bfbfbf" points="154.5,-0.5 154.5,-19.5 207.5,-19.5 207.5,-0.5 154.5,-0.5"/>
<text text-anchor="middle" x="181" y="-7.5" font-family="Helvetica,sans-Serif" font-size="10.00">stdint.h</text>
</a>
</g>
</g>
<!-- Node2&#45;&gt;Node5 -->
<g id="edge4" class="edge">
<title>Node2&#45;&gt;Node5</title>
<path fill="none" stroke="midnightblue" d="M181,-56.08C181,-49.01 181,-38.86 181,-29.99"/>
<polygon fill="midnightblue" stroke="midnightblue" points="184.5,-29.75 181,-19.75 177.5,-29.75 184.5,-29.75"/>
</g>
<!-- Node2&#45;&gt;Node6 -->
<g id="edge5" class="edge">
<title>Node2&#45;&gt;Node6</title>
<path fill="none" stroke="midnightblue" d="M192.09,-56.32C202.49,-48.18 218.26,-35.84 230.72,-26.09"/>
<polygon fill="midnightblue" stroke="midnightblue" points="232.99,-28.75 238.71,-19.83 228.68,-23.24 232.99,-28.75"/>
</g>
</g>
</svg>
