<?xml version="1.0" encoding="UTF-8" standalone="no"?>
<!DOCTYPE svg PUBLIC "-//W3C//DTD SVG 1.1//EN"
 "http://www.w3.org/Graphics/SVG/1.1/DTD/svg11.dtd">
<!-- Generated by graphviz version 2.43.0 (0)
 -->
<!-- Title: obsws_config_t Pages: 1 -->
<svg width="364pt" height="173pt"
 viewBox="0.00 0.00 363.50 173.00" xmlns="http://www.w3.org/2000/svg" xmlns:xlink="http://www.w3.org/1999/xlink">
<g id="graph0" class="graph" transform="scale(1 1) rotate(0) translate(4 169)">
<title>obsws_config_t</title>
<polygon fill="white" stroke="transparent" points="-4,4 -4,-169 359.5,-169 359.5,4 -4,4"/>
<!-- Node1 -->
<g id="node1" class="node">
<title>Node1</title>
<g id="a_node1"><a xlink:title="Connection configuration structure.">
<polygon fill="#bfbfbf" stroke="black" points="0,-78.5 0,-97.5 91,-97.5 91,-78.5 0,-78.5"/>
<text text-anchor="middle" x="45.5" y="-85.5" font-family="Helvetica,sans-Serif" font-size="10.00">obsws_config_t</text>
</a>
</g>
</g>
<!-- Node2 -->
<g id="node2" class="node">
<title>Node2</title>
<g id="a_node2"><a xlink:href="../../d5/d88/structobsws__connection.html" target="_top" xlink:title=" ">
<polygon fill="white" stroke="black" points="76.5,-0.5 76.5,-19.5 182.5,-19.5 182.5,-0.5 76.5,-0.5"/>
<text text-anchor="middle" x="129.5" y="-7.5" font-family="Helvetica,sans-Serif" font-size="10.00">obsws_connection</text>
</a>
</g>
</g>
<!-- Node1&#45;&gt;Node2 -->
<g id="edge2" class="edge">
<title>Node1&#45;&gt;Node2</title>
<path fill="none" stroke="#9a32cd" stroke-dasharray="5,2" d="M29.32,-70.72C21.31,-60.66 14.83,-47.85 22.5,-38 29.51,-29.01 53.12,-22.54 76.39,-18.2"/>
<polygon fill="#9a32cd" stroke="#9a32cd" points="26.88,-73.24 36.13,-78.39 32.11,-68.59 26.88,-73.24"/>
<text text-anchor="middle" x="39" y="-46.5" font-family="Helvetica,sans-Serif" font-size="10.00"> config</text>
</g>
<!-- Node2&#45;&gt;Node1 -->
<g id="edge1" class="edge">
<title>Node2&#45;&gt;Node1</title>
<path fill="none" stroke="#9a32cd" stroke-dasharray="5,2" d="M97.3,-23.93C89.97,-27.78 82.56,-32.47 76.5,-38 63.7,-49.66 54.11,-67.77 49.19,-78.4"/>
<polygon fill="#9a32cd" stroke="#9a32cd" points="98.96,-27.01 106.44,-19.51 95.91,-20.71 98.96,-27.01"/>
<text text-anchor="middle" x="115" y="-52" font-family="Helvetica,sans-Serif" font-size="10.00"> event_callback</text>
<text text-anchor="middle" x="115" y="-41" font-family="Helvetica,sans-Serif" font-size="10.00">state_callback</text>
</g>
<!-- Node3 -->
<g id="node3" class="node">
<title>Node3</title>
<g id="a_node3"><a xlink:href="../../da/d45/structpending__request.html" target="_top" xlink:title=" ">
<polygon fill="white" stroke="black" points="110.5,-78.5 110.5,-97.5 208.5,-97.5 208.5,-78.5 110.5,-78.5"/>
<text text-anchor="middle" x="159.5" y="-85.5" font-family="Helvetica,sans-Serif" font-size="10.00">pending_request</text>
</a>
</g>
</g>
<!-- Node3&#45;&gt;Node2 -->
<g id="edge3" class="edge">
<title>Node3&#45;&gt;Node2</title>
<path fill="none" stroke="#9a32cd" stroke-dasharray="5,2" d="M161.94,-68.27C162.4,-58.81 161.71,-47.38 157.5,-38 154.18,-30.61 147.82,-24.21 142,-19.51"/>
<polygon fill="#9a32cd" stroke="#9a32cd" points="158.46,-67.96 161.03,-78.24 165.43,-68.6 158.46,-67.96"/>
<text text-anchor="middle" x="206.5" y="-46.5" font-family="Helvetica,sans-Serif" font-size="10.00"> pending_requests</text>
</g>
<!-- Node3&#45;&gt;Node3 -->
<g id="edge5" class="edge">
<title>Node3&#45;&gt;Node3</title>
<path fill="none" stroke="#9a32cd" stroke-dasharray="5,2" d="M218.82,-92.58C223.56,-91.58 226.5,-90.05 226.5,-88 226.5,-84.72 218.99,-82.78 208.58,-82.19"/>
<polygon fill="#9a32cd" stroke="#9a32cd" points="218.09,-89.14 208.58,-93.81 218.93,-96.09 218.09,-89.14"/>
<text text-anchor="middle" x="239" y="-85.5" font-family="Helvetica,sans-Serif" font-size="10.00"> next</text>
</g>
<!-- Node4 -->
<g id="node4" class="node">
<title>Node4</title>
<g id="a_node4"><a xlink:href="../../d2/d1f/structobsws__response__t.html" target="_top" xlink:title="Response structure for requests to OBS.">
<polygon fill="white" stroke="black" points="106.5,-145.5 106.5,-164.5 212.5,-164.5 212.5,-145.5 106.5,-145.5"/>
<text text-anchor="middle" x="159.5" y="-152.5" font-family="Helvetica,sans-Serif" font-size="10.00">obsws_response_t</text>
</a>
</g>
</g>
<!-- Node4&#45;&gt;Node3 -->
<g id="edge4" class="edge">
<title>Node4&#45;&gt;Node3</title>
<path fill="none" stroke="#9a32cd" stroke-dasharray="5,2" d="M159.5,-135.04C159.5,-122.67 159.5,-107.12 159.5,-97.63"/>
<polygon fill="#9a32cd" stroke="#9a32cd" points="156,-135.23 159.5,-145.23 163,-135.23 156,-135.23"/>
<text text-anchor="middle" x="183.5" y="-119" font-family="Helvetica,sans-Serif" font-size="10.00"> response</text>
</g>
<!-- Node5 -->
<g id="node5" class="node">
<title>Node5</title>
<g id="a_node5"><a xlink:href="../../d6/d5c/structobsws__stats__t.html" target="_top" xlink:title="Connection statistics &#45; useful for monitoring and debugging connection health.">
<polygon fill="white" stroke="black" points="269.5,-78.5 269.5,-97.5 355.5,-97.5 355.5,-78.5 269.5,-78.5"/>
<text text-anchor="middle" x="312.5" y="-85.5" font-family="Helvetica,sans-Serif" font-size="10.00">obsws_stats_t</text>
</a>
</g>
</g>
<!-- Node5&#45;&gt;Node2 -->
<g id="edge6" class="edge">
<title>Node5&#45;&gt;Node2</title>
<path fill="none" stroke="#9a32cd" stroke-dasharray="5,2" d="M298.08,-70.94C287.38,-60.02 271.87,-46.12 255.5,-38 232.95,-26.81 205.89,-20.24 182.64,-16.4"/>
<polygon fill="#9a32cd" stroke="#9a32cd" points="295.56,-73.37 304.96,-78.24 300.65,-68.57 295.56,-73.37"/>
<text text-anchor="middle" x="299.5" y="-46.5" font-family="Helvetica,sans-Serif" font-size="10.00"> stats</text>
</g>
</g>
</svg>
