<?xml version="1.0" encoding="UTF-8" standalone="no"?>
<!DOCTYPE svg PUBLIC "-//W3C//DTD SVG 1.1//EN"
 "http://www.w3.org/Graphics/SVG/1.1/DTD/svg11.dtd">
<!-- Generated by graphviz version 2.43.0 (0)
 -->
<!-- Title: obsws_disconnect Pages: 1 -->
<svg width="271pt" height="66pt"
 viewBox="0.00 0.00 271.00 66.00" xmlns="http://www.w3.org/2000/svg" xmlns:xlink="http://www.w3.org/1999/xlink">
<g id="graph0" class="graph" transform="scale(1 1) rotate(0) translate(4 62)">
<title>obsws_disconnect</title>
<polygon fill="white" stroke="transparent" points="-4,4 -4,-62 267,-62 267,4 -4,4"/>
<!-- Node1 -->
<g id="node1" class="node">
<title>Node1</title>
<g id="a_node1"><a xlink:title="Disconnect and destroy a connection.">
<polygon fill="#bfbfbf" stroke="black" points="0,-19.5 0,-38.5 105,-38.5 105,-19.5 0,-19.5"/>
<text text-anchor="middle" x="52.5" y="-26.5" font-family="Helvetica,sans-Serif" font-size="10.00">obsws_disconnect</text>
</a>
</g>
</g>
<!-- Node2 -->
<g id="node2" class="node">
<title>Node2</title>
<g id="a_node2"><a xlink:href="../../d5/d27/library_8c.html#a1d8529feb33753ebb45d896c4c125642" target="_top" xlink:title=" ">
<polygon fill="white" stroke="black" points="168,-38.5 168,-57.5 236,-57.5 236,-38.5 168,-38.5"/>
<text text-anchor="middle" x="202" y="-45.5" font-family="Helvetica,sans-Serif" font-size="10.00">obsws_log</text>
</a>
</g>
</g>
<!-- Node1&#45;&gt;Node2 -->
<g id="edge1" class="edge">
<title>Node1&#45;&gt;Node2</title>
<path fill="none" stroke="midnightblue" d="M105.09,-35.65C122.13,-37.84 140.9,-40.26 157.29,-42.37"/>
<polygon fill="midnightblue" stroke="midnightblue" points="157.31,-45.9 167.67,-43.71 158.2,-38.96 157.31,-45.9"/>
</g>
<!-- Node3 -->
<g id="node3" class="node">
<title>Node3</title>
<g id="a_node3"><a xlink:href="../../d5/d27/library_8c.html#a53067e61dc0ddcf1134d46b275d7ce6b" target="_top" xlink:title="Free a response object previously allocated by obsws_send_request().">
<polygon fill="white" stroke="black" points="141,-0.5 141,-19.5 263,-19.5 263,-0.5 141,-0.5"/>
<text text-anchor="middle" x="202" y="-7.5" font-family="Helvetica,sans-Serif" font-size="10.00">obsws_response_free</text>
</a>
</g>
</g>
<!-- Node1&#45;&gt;Node3 -->
<g id="edge2" class="edge">
<title>Node1&#45;&gt;Node3</title>
<path fill="none" stroke="midnightblue" d="M105.09,-22.35C113.39,-21.29 122.1,-20.16 130.75,-19.05"/>
<polygon fill="midnightblue" stroke="midnightblue" points="131.37,-22.5 140.84,-17.75 130.48,-15.56 131.37,-22.5"/>
</g>
</g>
</svg>
