<?xml version="1.0" encoding="UTF-8" standalone="no"?>
<!DOCTYPE svg PUBLIC "-//W3C//DTD SVG 1.1//EN"
 "http://www.w3.org/Graphics/SVG/1.1/DTD/svg11.dtd">
<!-- Generated by graphviz version 2.43.0 (0)
 -->
<!-- Title: obsws_send_request Pages: 1 -->
<svg width="302pt" height="142pt"
 viewBox="0.00 0.00 302.00 142.00" xmlns="http://www.w3.org/2000/svg" xmlns:xlink="http://www.w3.org/1999/xlink">
<g id="graph0" class="graph" transform="scale(1 1) rotate(0) translate(4 138)">
<title>obsws_send_request</title>
<polygon fill="white" stroke="transparent" points="-4,4 -4,-138 298,-138 298,4 -4,4"/>
<!-- Node1 -->
<g id="node1" class="node">
<title>Node1</title>
<g id="a_node1"><a xlink:title="Send a synchronous request to OBS and wait for the response.">
<polygon fill="#bfbfbf" stroke="black" points="0,-57.5 0,-76.5 118,-76.5 118,-57.5 0,-57.5"/>
<text text-anchor="middle" x="59" y="-64.5" font-family="Helvetica,sans-Serif" font-size="10.00">obsws_send_request</text>
</a>
</g>
</g>
<!-- Node2 -->
<g id="node2" class="node">
<title>Node2</title>
<g id="a_node2"><a xlink:href="../../d5/d27/library_8c.html#aafc3d1ce3debddcb8e3888c9806e044a" target="_top" xlink:title=" ">
<polygon fill="white" stroke="black" points="157,-114.5 157,-133.5 291,-133.5 291,-114.5 157,-114.5"/>
<text text-anchor="middle" x="224" y="-121.5" font-family="Helvetica,sans-Serif" font-size="10.00">create_pending_request</text>
</a>
</g>
</g>
<!-- Node1&#45;&gt;Node2 -->
<g id="edge1" class="edge">
<title>Node1&#45;&gt;Node2</title>
<path fill="none" stroke="midnightblue" d="M81.76,-76.63C100.64,-84.79 128.82,-96.48 154,-105 160.88,-107.33 168.21,-109.58 175.43,-111.68"/>
<polygon fill="midnightblue" stroke="midnightblue" points="174.58,-115.08 185.16,-114.43 176.49,-108.34 174.58,-115.08"/>
</g>
<!-- Node3 -->
<g id="node3" class="node">
<title>Node3</title>
<g id="a_node3"><a xlink:href="../../d5/d27/library_8c.html#af79be0fed07182761c923170f4211089" target="_top" xlink:title=" ">
<polygon fill="white" stroke="black" points="181,-76.5 181,-95.5 267,-95.5 267,-76.5 181,-76.5"/>
<text text-anchor="middle" x="224" y="-83.5" font-family="Helvetica,sans-Serif" font-size="10.00">generate_uuid</text>
</a>
</g>
</g>
<!-- Node1&#45;&gt;Node3 -->
<g id="edge2" class="edge">
<title>Node1&#45;&gt;Node3</title>
<path fill="none" stroke="midnightblue" d="M118.39,-73.81C135.48,-75.8 154.06,-77.96 170.75,-79.91"/>
<polygon fill="midnightblue" stroke="midnightblue" points="170.53,-83.41 180.87,-81.09 171.34,-76.45 170.53,-83.41"/>
</g>
<!-- Node4 -->
<g id="node4" class="node">
<title>Node4</title>
<g id="a_node4"><a xlink:href="../../d5/d27/library_8c.html#a3682ffd7f6175dbc796f5750172c99bf" target="_top" xlink:title=" ">
<polygon fill="white" stroke="black" points="182.5,-38.5 182.5,-57.5 265.5,-57.5 265.5,-38.5 182.5,-38.5"/>
<text text-anchor="middle" x="224" y="-45.5" font-family="Helvetica,sans-Serif" font-size="10.00">obsws_debug</text>
</a>
</g>
</g>
<!-- Node1&#45;&gt;Node4 -->
<g id="edge3" class="edge">
<title>Node1&#45;&gt;Node4</title>
<path fill="none" stroke="midnightblue" d="M118.39,-60.19C135.94,-58.15 155.05,-55.92 172.07,-53.94"/>
<polygon fill="midnightblue" stroke="midnightblue" points="172.85,-57.37 182.37,-52.74 172.04,-50.42 172.85,-57.37"/>
</g>
<!-- Node5 -->
<g id="node5" class="node">
<title>Node5</title>
<g id="a_node5"><a xlink:href="../../d5/d27/library_8c.html#a700c8a9baa87a3827b399776e811f328" target="_top" xlink:title=" ">
<polygon fill="white" stroke="black" points="154,-0.5 154,-19.5 294,-19.5 294,-0.5 154,-0.5"/>
<text text-anchor="middle" x="224" y="-7.5" font-family="Helvetica,sans-Serif" font-size="10.00">remove_pending_request</text>
</a>
</g>
</g>
<!-- Node1&#45;&gt;Node5 -->
<g id="edge4" class="edge">
<title>Node1&#45;&gt;Node5</title>
<path fill="none" stroke="midnightblue" d="M81.76,-57.37C100.64,-49.21 128.82,-37.52 154,-29 160.88,-26.67 168.21,-24.42 175.43,-22.32"/>
<polygon fill="midnightblue" stroke="midnightblue" points="176.49,-25.66 185.16,-19.57 174.58,-18.92 176.49,-25.66"/>
</g>
</g>
</svg>
