<?xml version="1.0" encoding="UTF-8" standalone="no"?>
<!DOCTYPE svg PUBLIC "-//W3C//DTD SVG 1.1//EN"
 "http://www.w3.org/Graphics/SVG/1.1/DTD/svg11.dtd">
<!-- Generated by graphviz version 2.43.0 (0)
 -->
<!-- Title: obsws_response_free Pages: 1 -->
<svg width="308pt" height="104pt"
 viewBox="0.00 0.00 308.00 104.00" xmlns="http://www.w3.org/2000/svg" xmlns:xlink="http://www.w3.org/1999/xlink">
<g id="graph0" class="graph" transform="scale(1 1) rotate(0) translate(4 100)">
<title>obsws_response_free</title>
<polygon fill="white" stroke="transparent" points="-4,4 -4,-100 304,-100 304,4 -4,4"/>
<!-- Node1 -->
<g id="node1" class="node">
<title>Node1</title>
<g id="a_node1"><a xlink:title="Free a response structure and all its allocated memory.">
<polygon fill="#bfbfbf" stroke="black" points="178,-38.5 178,-57.5 300,-57.5 300,-38.5 178,-38.5"/>
<text text-anchor="middle" x="239" y="-45.5" font-family="Helvetica,sans-Serif" font-size="10.00">obsws_response_free</text>
</a>
</g>
</g>
<!-- Node2 -->
<g id="node2" class="node">
<title>Node2</title>
<g id="a_node2"><a xlink:href="../../d5/d27/library_8c.html#aa8389ba6731e01a9426bd921180b7195" target="_top" xlink:title="Disconnect and destroy a connection.">
<polygon fill="white" stroke="black" points="18.5,-76.5 18.5,-95.5 123.5,-95.5 123.5,-76.5 18.5,-76.5"/>
<text text-anchor="middle" x="71" y="-83.5" font-family="Helvetica,sans-Serif" font-size="10.00">obsws_disconnect</text>
</a>
</g>
</g>
<!-- Node1&#45;&gt;Node2 -->
<g id="edge1" class="edge">
<title>Node1&#45;&gt;Node2</title>
<path fill="none" stroke="midnightblue" d="M186.35,-59.82C162.94,-65.18 135.64,-71.43 113.59,-76.48"/>
<polygon fill="midnightblue" stroke="midnightblue" points="187.14,-63.23 196.11,-57.59 185.58,-56.41 187.14,-63.23"/>
</g>
<!-- Node3 -->
<g id="node3" class="node">
<title>Node3</title>
<g id="a_node3"><a xlink:href="../../d5/d27/library_8c.html#a91bd5ceb5878431131513cb4624e935a" target="_top" xlink:title="Query the currently active scene in OBS.">
<polygon fill="white" stroke="black" points="0,-38.5 0,-57.5 142,-57.5 142,-38.5 0,-38.5"/>
<text text-anchor="middle" x="71" y="-45.5" font-family="Helvetica,sans-Serif" font-size="10.00">obsws_get_current_scene</text>
</a>
</g>
</g>
<!-- Node1&#45;&gt;Node3 -->
<g id="edge2" class="edge">
<title>Node1&#45;&gt;Node3</title>
<path fill="none" stroke="midnightblue" d="M167.5,-48C159.13,-48 150.58,-48 142.21,-48"/>
<polygon fill="midnightblue" stroke="midnightblue" points="167.6,-51.5 177.6,-48 167.6,-44.5 167.6,-51.5"/>
</g>
<!-- Node4 -->
<g id="node4" class="node">
<title>Node4</title>
<g id="a_node4"><a xlink:href="../../d5/d27/library_8c.html#a7cb91bbce42b458f267f79b9a7b293bf" target="_top" xlink:title="Switch OBS to a specific scene.">
<polygon fill="white" stroke="black" points="0.5,-0.5 0.5,-19.5 141.5,-19.5 141.5,-0.5 0.5,-0.5"/>
<text text-anchor="middle" x="71" y="-7.5" font-family="Helvetica,sans-Serif" font-size="10.00">obsws_set_current_scene</text>
</a>
</g>
</g>
<!-- Node1&#45;&gt;Node4 -->
<g id="edge3" class="edge">
<title>Node1&#45;&gt;Node4</title>
<path fill="none" stroke="midnightblue" d="M186.35,-36.18C162.94,-30.82 135.64,-24.57 113.59,-19.52"/>
<polygon fill="midnightblue" stroke="midnightblue" points="185.58,-39.59 196.11,-38.41 187.14,-32.77 185.58,-39.59"/>
</g>
</g>
</svg>
