<?xml version="1.0" encoding="UTF-8" standalone="no"?>
<!DOCTYPE svg PUBLIC "-//W3C//DTD SVG 1.1//EN"
 "http://www.w3.org/Graphics/SVG/1.1/DTD/svg11.dtd">
<!-- Generated by graphviz version 2.43.0 (0)
 -->
<!-- Title: obsws_set_current_scene Pages: 1 -->
<svg width="483pt" height="161pt"
 viewBox="0.00 0.00 483.00 161.00" xmlns="http://www.w3.org/2000/svg" xmlns:xlink="http://www.w3.org/1999/xlink">
<g id="graph0" class="graph" transform="scale(1 1) rotate(0) translate(4 157)">
<title>obsws_set_current_scene</title>
<polygon fill="white" stroke="transparent" points="-4,4 -4,-157 479,-157 479,4 -4,4"/>
<!-- Node1 -->
<g id="node1" class="node">
<title>Node1</title>
<g id="a_node1"><a xlink:title="Switch OBS to a specific scene.">
<polygon fill="#bfbfbf" stroke="black" points="0,-95.5 0,-114.5 141,-114.5 141,-95.5 0,-95.5"/>
<text text-anchor="middle" x="70.5" y="-102.5" font-family="Helvetica,sans-Serif" font-size="10.00">obsws_set_current_scene</text>
</a>
</g>
</g>
<!-- Node2 -->
<g id="node2" class="node">
<title>Node2</title>
<g id="a_node2"><a xlink:href="../../d5/d27/library_8c.html#a1d8529feb33753ebb45d896c4c125642" target="_top" xlink:title=" ">
<polygon fill="white" stroke="black" points="204,-133.5 204,-152.5 272,-152.5 272,-133.5 204,-133.5"/>
<text text-anchor="middle" x="238" y="-140.5" font-family="Helvetica,sans-Serif" font-size="10.00">obsws_log</text>
</a>
</g>
</g>
<!-- Node1&#45;&gt;Node2 -->
<g id="edge1" class="edge">
<title>Node1&#45;&gt;Node2</title>
<path fill="none" stroke="midnightblue" d="M113.26,-114.59C137.92,-120.25 169.08,-127.4 193.96,-133.12"/>
<polygon fill="midnightblue" stroke="midnightblue" points="193.32,-136.56 203.85,-135.39 194.89,-129.74 193.32,-136.56"/>
</g>
<!-- Node3 -->
<g id="node3" class="node">
<title>Node3</title>
<g id="a_node3"><a xlink:href="../../d5/d27/library_8c.html#a53067e61dc0ddcf1134d46b275d7ce6b" target="_top" xlink:title="Free a response object previously allocated by obsws_send_request().">
<polygon fill="white" stroke="black" points="177,-95.5 177,-114.5 299,-114.5 299,-95.5 177,-95.5"/>
<text text-anchor="middle" x="238" y="-102.5" font-family="Helvetica,sans-Serif" font-size="10.00">obsws_response_free</text>
</a>
</g>
</g>
<!-- Node1&#45;&gt;Node3 -->
<g id="edge2" class="edge">
<title>Node1&#45;&gt;Node3</title>
<path fill="none" stroke="midnightblue" d="M141.21,-105C149.62,-105 158.22,-105 166.65,-105"/>
<polygon fill="midnightblue" stroke="midnightblue" points="166.81,-108.5 176.81,-105 166.81,-101.5 166.81,-108.5"/>
</g>
<!-- Node4 -->
<g id="node4" class="node">
<title>Node4</title>
<g id="a_node4"><a xlink:href="../../d5/d27/library_8c.html#af2fd7f8dd928e03b38a3e2c5b5745417" target="_top" xlink:title="Send a synchronous request to OBS and wait for the response.">
<polygon fill="white" stroke="black" points="179,-57.5 179,-76.5 297,-76.5 297,-57.5 179,-57.5"/>
<text text-anchor="middle" x="238" y="-64.5" font-family="Helvetica,sans-Serif" font-size="10.00">obsws_send_request</text>
</a>
</g>
</g>
<!-- Node1&#45;&gt;Node4 -->
<g id="edge3" class="edge">
<title>Node1&#45;&gt;Node4</title>
<path fill="none" stroke="midnightblue" d="M113.26,-95.41C135.2,-90.37 162.28,-84.16 185.51,-78.82"/>
<polygon fill="midnightblue" stroke="midnightblue" points="186.57,-82.17 195.54,-76.52 185.01,-75.35 186.57,-82.17"/>
</g>
<!-- Node5 -->
<g id="node5" class="node">
<title>Node5</title>
<g id="a_node5"><a xlink:href="../../d5/d27/library_8c.html#aafc3d1ce3debddcb8e3888c9806e044a" target="_top" xlink:title=" ">
<polygon fill="white" stroke="black" points="338,-114.5 338,-133.5 472,-133.5 472,-114.5 338,-114.5"/>
<text text-anchor="middle" x="405" y="-121.5" font-family="Helvetica,sans-Serif" font-size="10.00">create_pending_request</text>
</a>
</g>
</g>
<!-- Node4&#45;&gt;Node5 -->
<g id="edge4" class="edge">
<title>Node4&#45;&gt;Node5</title>
<path fill="none" stroke="midnightblue" d="M272.71,-76.51C281.38,-79.27 290.63,-82.5 299,-86 315.69,-92.98 318.18,-98.34 335,-105 340.99,-107.37 347.38,-109.56 353.77,-111.55"/>
<polygon fill="midnightblue" stroke="midnightblue" points="353.16,-115.02 363.74,-114.5 355.15,-108.31 353.16,-115.02"/>
</g>
<!-- Node6 -->
<g id="node6" class="node">
<title>Node6</title>
<g id="a_node6"><a xlink:href="../../d5/d27/library_8c.html#af79be0fed07182761c923170f4211089" target="_top" xlink:title=" ">
<polygon fill="white" stroke="black" points="362,-76.5 362,-95.5 448,-95.5 448,-76.5 362,-76.5"/>
<text text-anchor="middle" x="405" y="-83.5" font-family="Helvetica,sans-Serif" font-size="10.00">generate_uuid</text>
</a>
</g>
</g>
<!-- Node4&#45;&gt;Node6 -->
<g id="edge5" class="edge">
<title>Node4&#45;&gt;Node6</title>
<path fill="none" stroke="midnightblue" d="M297.17,-73.7C315.01,-75.75 334.52,-78 351.92,-80"/>
<polygon fill="midnightblue" stroke="midnightblue" points="351.56,-83.48 361.9,-81.15 352.36,-76.53 351.56,-83.48"/>
</g>
<!-- Node7 -->
<g id="node7" class="node">
<title>Node7</title>
<g id="a_node7"><a xlink:href="../../d5/d27/library_8c.html#a3682ffd7f6175dbc796f5750172c99bf" target="_top" xlink:title=" ">
<polygon fill="white" stroke="black" points="363.5,-38.5 363.5,-57.5 446.5,-57.5 446.5,-38.5 363.5,-38.5"/>
<text text-anchor="middle" x="405" y="-45.5" font-family="Helvetica,sans-Serif" font-size="10.00">obsws_debug</text>
</a>
</g>
</g>
<!-- Node4&#45;&gt;Node7 -->
<g id="edge6" class="edge">
<title>Node4&#45;&gt;Node7</title>
<path fill="none" stroke="midnightblue" d="M297.17,-60.3C315.48,-58.19 335.54,-55.88 353.28,-53.84"/>
<polygon fill="midnightblue" stroke="midnightblue" points="353.89,-57.29 363.43,-52.67 353.09,-50.34 353.89,-57.29"/>
</g>
<!-- Node8 -->
<g id="node8" class="node">
<title>Node8</title>
<g id="a_node8"><a xlink:href="../../d5/d27/library_8c.html#a700c8a9baa87a3827b399776e811f328" target="_top" xlink:title=" ">
<polygon fill="white" stroke="black" points="335,-0.5 335,-19.5 475,-19.5 475,-0.5 335,-0.5"/>
<text text-anchor="middle" x="405" y="-7.5" font-family="Helvetica,sans-Serif" font-size="10.00">remove_pending_request</text>
</a>
</g>
</g>
<!-- Node4&#45;&gt;Node8 -->
<g id="edge7" class="edge">
<title>Node4&#45;&gt;Node8</title>
<path fill="none" stroke="midnightblue" d="M261.25,-57.4C280.54,-49.26 309.33,-37.59 335,-29 341.97,-26.67 349.4,-24.4 356.7,-22.29"/>
<polygon fill="midnightblue" stroke="midnightblue" points="357.86,-25.6 366.54,-19.52 355.96,-18.87 357.86,-25.6"/>
</g>
</g>
</svg>
