<?xml version="1.0" encoding="UTF-8" standalone="no"?>
<!DOCTYPE svg PUBLIC "-//W3C//DTD SVG 1.1//EN"
 "http://www.w3.org/Graphics/SVG/1.1/DTD/svg11.dtd">
<!-- Generated by graphviz version 2.43.0 (0)
 -->
<!-- Title: obsws_start_streaming Pages: 1 -->
<svg width="468pt" height="142pt"
 viewBox="0.00 0.00 468.00 142.00" xmlns="http://www.w3.org/2000/svg" xmlns:xlink="http://www.w3.org/1999/xlink">
<g id="graph0" class="graph" transform="scale(1 1) rotate(0) translate(4 138)">
<title>obsws_start_streaming</title>
<polygon fill="white" stroke="transparent" points="-4,4 -4,-138 464,-138 464,4 -4,4"/>
<!-- Node1 -->
<g id="node1" class="node">
<title>Node1</title>
<g id="a_node1"><a xlink:title="Start streaming in OBS.">
<polygon fill="#bfbfbf" stroke="black" points="0,-57.5 0,-76.5 130,-76.5 130,-57.5 0,-57.5"/>
<text text-anchor="middle" x="65" y="-64.5" font-family="Helvetica,sans-Serif" font-size="10.00">obsws_start_streaming</text>
</a>
</g>
</g>
<!-- Node2 -->
<g id="node2" class="node">
<title>Node2</title>
<g id="a_node2"><a xlink:href="../../d5/d27/library_8c.html#af2fd7f8dd928e03b38a3e2c5b5745417" target="_top" xlink:title="Send a synchronous request to OBS and wait for the response.">
<polygon fill="white" stroke="black" points="166,-57.5 166,-76.5 284,-76.5 284,-57.5 166,-57.5"/>
<text text-anchor="middle" x="225" y="-64.5" font-family="Helvetica,sans-Serif" font-size="10.00">obsws_send_request</text>
</a>
</g>
</g>
<!-- Node1&#45;&gt;Node2 -->
<g id="edge1" class="edge">
<title>Node1&#45;&gt;Node2</title>
<path fill="none" stroke="midnightblue" d="M130.26,-67C138.65,-67 147.26,-67 155.7,-67"/>
<polygon fill="midnightblue" stroke="midnightblue" points="155.9,-70.5 165.9,-67 155.9,-63.5 155.9,-70.5"/>
</g>
<!-- Node3 -->
<g id="node3" class="node">
<title>Node3</title>
<g id="a_node3"><a xlink:href="../../d5/d27/library_8c.html#aafc3d1ce3debddcb8e3888c9806e044a" target="_top" xlink:title=" ">
<polygon fill="white" stroke="black" points="323,-114.5 323,-133.5 457,-133.5 457,-114.5 323,-114.5"/>
<text text-anchor="middle" x="390" y="-121.5" font-family="Helvetica,sans-Serif" font-size="10.00">create_pending_request</text>
</a>
</g>
</g>
<!-- Node2&#45;&gt;Node3 -->
<g id="edge2" class="edge">
<title>Node2&#45;&gt;Node3</title>
<path fill="none" stroke="midnightblue" d="M247.76,-76.63C266.64,-84.79 294.82,-96.48 320,-105 326.88,-107.33 334.21,-109.58 341.43,-111.68"/>
<polygon fill="midnightblue" stroke="midnightblue" points="340.58,-115.08 351.16,-114.43 342.49,-108.34 340.58,-115.08"/>
</g>
<!-- Node4 -->
<g id="node4" class="node">
<title>Node4</title>
<g id="a_node4"><a xlink:href="../../d5/d27/library_8c.html#af79be0fed07182761c923170f4211089" target="_top" xlink:title=" ">
<polygon fill="white" stroke="black" points="347,-76.5 347,-95.5 433,-95.5 433,-76.5 347,-76.5"/>
<text text-anchor="middle" x="390" y="-83.5" font-family="Helvetica,sans-Serif" font-size="10.00">generate_uuid</text>
</a>
</g>
</g>
<!-- Node2&#45;&gt;Node4 -->
<g id="edge3" class="edge">
<title>Node2&#45;&gt;Node4</title>
<path fill="none" stroke="midnightblue" d="M284.39,-73.81C301.48,-75.8 320.06,-77.96 336.75,-79.91"/>
<polygon fill="midnightblue" stroke="midnightblue" points="336.53,-83.41 346.87,-81.09 337.34,-76.45 336.53,-83.41"/>
</g>
<!-- Node5 -->
<g id="node5" class="node">
<title>Node5</title>
<g id="a_node5"><a xlink:href="../../d5/d27/library_8c.html#a3682ffd7f6175dbc796f5750172c99bf" target="_top" xlink:title=" ">
<polygon fill="white" stroke="black" points="348.5,-38.5 348.5,-57.5 431.5,-57.5 431.5,-38.5 348.5,-38.5"/>
<text text-anchor="middle" x="390" y="-45.5" font-family="Helvetica,sans-Serif" font-size="10.00">obsws_debug</text>
</a>
</g>
</g>
<!-- Node2&#45;&gt;Node5 -->
<g id="edge4" class="edge">
<title>Node2&#45;&gt;Node5</title>
<path fill="none" stroke="midnightblue" d="M284.39,-60.19C301.94,-58.15 321.05,-55.92 338.07,-53.94"/>
<polygon fill="midnightblue" stroke="midnightblue" points="338.85,-57.37 348.37,-52.74 338.04,-50.42 338.85,-57.37"/>
</g>
<!-- Node6 -->
<g id="node6" class="node">
<title>Node6</title>
<g id="a_node6"><a xlink:href="../../d5/d27/library_8c.html#a700c8a9baa87a3827b399776e811f328" target="_top" xlink:title=" ">
<polygon fill="white" stroke="black" points="320,-0.5 320,-19.5 460,-19.5 460,-0.5 320,-0.5"/>
<text text-anchor="middle" x="390" y="-7.5" font-family="Helvetica,sans-Serif" font-size="10.00">remove_pending_request</text>
</a>
</g>
</g>
<!-- Node2&#45;&gt;Node6 -->
<g id="edge5" class="edge">
<title>Node2&#45;&gt;Node6</title>
<path fill="none" stroke="midnightblue" d="M247.76,-57.37C266.64,-49.21 294.82,-37.52 320,-29 326.88,-26.67 334.21,-24.42 341.43,-22.32"/>
<polygon fill="midnightblue" stroke="midnightblue" points="342.49,-25.66 351.16,-19.57 340.58,-18.92 342.49,-25.66"/>
</g>
</g>
</svg>
