<?xml version="1.0" encoding="UTF-8" standalone="no"?>
<!DOCTYPE svg PUBLIC "-//W3C//DTD SVG 1.1//EN"
 "http://www.w3.org/Graphics/SVG/1.1/DTD/svg11.dtd">
<!-- Generated by graphviz version 2.43.0 (0)
 -->
<!-- Title: obsws_stop_recording Pages: 1 -->
<svg width="463pt" height="142pt"
 viewBox="0.00 0.00 463.00 142.00" xmlns="http://www.w3.org/2000/svg" xmlns:xlink="http://www.w3.org/1999/xlink">
<g id="graph0" class="graph" transform="scale(1 1) rotate(0) translate(4 138)">
<title>obsws_stop_recording</title>
<polygon fill="white" stroke="transparent" points="-4,4 -4,-138 459,-138 459,4 -4,4"/>
<!-- Node1 -->
<g id="node1" class="node">
<title>Node1</title>
<g id="a_node1"><a xlink:title="Stop recording.">
<polygon fill="#bfbfbf" stroke="black" points="0,-57.5 0,-76.5 125,-76.5 125,-57.5 0,-57.5"/>
<text text-anchor="middle" x="62.5" y="-64.5" font-family="Helvetica,sans-Serif" font-size="10.00">obsws_stop_recording</text>
</a>
</g>
</g>
<!-- Node2 -->
<g id="node2" class="node">
<title>Node2</title>
<g id="a_node2"><a xlink:href="../../d5/d27/library_8c.html#af2fd7f8dd928e03b38a3e2c5b5745417" target="_top" xlink:title="Send a synchronous request to OBS and wait for the response.">
<polygon fill="white" stroke="black" points="161,-57.5 161,-76.5 279,-76.5 279,-57.5 161,-57.5"/>
<text text-anchor="middle" x="220" y="-64.5" font-family="Helvetica,sans-Serif" font-size="10.00">obsws_send_request</text>
</a>
</g>
</g>
<!-- Node1&#45;&gt;Node2 -->
<g id="edge1" class="edge">
<title>Node1&#45;&gt;Node2</title>
<path fill="none" stroke="midnightblue" d="M125.4,-67C133.71,-67 142.28,-67 150.69,-67"/>
<polygon fill="midnightblue" stroke="midnightblue" points="150.85,-70.5 160.85,-67 150.85,-63.5 150.85,-70.5"/>
</g>
<!-- Node3 -->
<g id="node3" class="node">
<title>Node3</title>
<g id="a_node3"><a xlink:href="../../d5/d27/library_8c.html#aafc3d1ce3debddcb8e3888c9806e044a" target="_top" xlink:title=" ">
<polygon fill="white" stroke="black" points="318,-114.5 318,-133.5 452,-133.5 452,-114.5 318,-114.5"/>
<text text-anchor="middle" x="385" y="-121.5" font-family="Helvetica,sans-Serif" font-size="10.00">create_pending_request</text>
</a>
</g>
</g>
<!-- Node2&#45;&gt;Node3 -->
<g id="edge2" class="edge">
<title>Node2&#45;&gt;Node3</title>
<path fill="none" stroke="midnightblue" d="M242.76,-76.63C261.64,-84.79 289.82,-96.48 315,-105 321.88,-107.33 329.21,-109.58 336.43,-111.68"/>
<polygon fill="midnightblue" stroke="midnightblue" points="335.58,-115.08 346.16,-114.43 337.49,-108.34 335.58,-115.08"/>
</g>
<!-- Node4 -->
<g id="node4" class="node">
<title>Node4</title>
<g id="a_node4"><a xlink:href="../../d5/d27/library_8c.html#af79be0fed07182761c923170f4211089" target="_top" xlink:title=" ">
<polygon fill="white" stroke="black" points="342,-76.5 342,-95.5 428,-95.5 428,-76.5 342,-76.5"/>
<text text-anchor="middle" x="385" y="-83.5" font-family="Helvetica,sans-Serif" font-size="10.00">generate_uuid</text>
</a>
</g>
</g>
<!-- Node2&#45;&gt;Node4 -->
<g id="edge3" class="edge">
<title>Node2&#45;&gt;Node4</title>
<path fill="none" stroke="midnightblue" d="M279.39,-73.81C296.48,-75.8 315.06,-77.96 331.75,-79.91"/>
<polygon fill="midnightblue" stroke="midnightblue" points="331.53,-83.41 341.87,-81.09 332.34,-76.45 331.53,-83.41"/>
</g>
<!-- Node5 -->
<g id="node5" class="node">
<title>Node5</title>
<g id="a_node5"><a xlink:href="../../d5/d27/library_8c.html#a3682ffd7f6175dbc796f5750172c99bf" target="_top" xlink:title=" ">
<polygon fill="white" stroke="black" points="343.5,-38.5 343.5,-57.5 426.5,-57.5 426.5,-38.5 343.5,-38.5"/>
<text text-anchor="middle" x="385" y="-45.5" font-family="Helvetica,sans-Serif" font-size="10.00">obsws_debug</text>
</a>
</g>
</g>
<!-- Node2&#45;&gt;Node5 -->
<g id="edge4" class="edge">
<title>Node2&#45;&gt;Node5</title>
<path fill="none" stroke="midnightblue" d="M279.39,-60.19C296.94,-58.15 316.05,-55.92 333.07,-53.94"/>
<polygon fill="midnightblue" stroke="midnightblue" points="333.85,-57.37 343.37,-52.74 333.04,-50.42 333.85,-57.37"/>
</g>
<!-- Node6 -->
<g id="node6" class="node">
<title>Node6</title>
<g id="a_node6"><a xlink:href="../../d5/d27/library_8c.html#a700c8a9baa87a3827b399776e811f328" target="_top" xlink:title=" ">
<polygon fill="white" stroke="black" points="315,-0.5 315,-19.5 455,-19.5 455,-0.5 315,-0.5"/>
<text text-anchor="middle" x="385" y="-7.5" font-family="Helvetica,sans-Serif" font-size="10.00">remove_pending_request</text>
</a>
</g>
</g>
<!-- Node2&#45;&gt;Node6 -->
<g id="edge5" class="edge">
<title>Node2&#45;&gt;Node6</title>
<path fill="none" stroke="midnightblue" d="M242.76,-57.37C261.64,-49.21 289.82,-37.52 315,-29 321.88,-26.67 329.21,-24.42 336.43,-22.32"/>
<polygon fill="midnightblue" stroke="midnightblue" points="337.49,-25.66 346.16,-19.57 335.58,-18.92 337.49,-25.66"/>
</g>
</g>
</svg>
