<?xml version="1.0" encoding="UTF-8" standalone="no"?>
<!DOCTYPE svg PUBLIC "-//W3C//DTD SVG 1.1//EN"
 "http://www.w3.org/Graphics/SVG/1.1/DTD/svg11.dtd">
<!-- Generated by graphviz version 2.43.0 (0)
 -->
<!-- Title: obsws_connection Pages: 1 -->
<svg width="257pt" height="240pt"
 viewBox="0.00 0.00 257.00 240.00" xmlns="http://www.w3.org/2000/svg" xmlns:xlink="http://www.w3.org/1999/xlink">
<g id="graph0" class="graph" transform="scale(1 1) rotate(0) translate(4 236)">
<title>obsws_connection</title>
<polygon fill="white" stroke="transparent" points="-4,4 -4,-236 253,-236 253,4 -4,4"/>
<!-- Node1 -->
<g id="node1" class="node">
<title>Node1</title>
<g id="a_node1"><a xlink:title=" ">
<polygon fill="#bfbfbf" stroke="black" points="96,-78.5 96,-97.5 202,-97.5 202,-78.5 96,-78.5"/>
<text text-anchor="middle" x="149" y="-85.5" font-family="Helvetica,sans-Serif" font-size="10.00">obsws_connection</text>
</a>
</g>
</g>
<!-- Node2 -->
<g id="node2" class="node">
<title>Node2</title>
<g id="a_node2"><a xlink:href="../../dc/de7/structobsws__config__t.html" target="_top" xlink:title="Connection configuration structure.">
<polygon fill="white" stroke="black" points="103.5,-0.5 103.5,-19.5 194.5,-19.5 194.5,-0.5 103.5,-0.5"/>
<text text-anchor="middle" x="149" y="-7.5" font-family="Helvetica,sans-Serif" font-size="10.00">obsws_config_t</text>
</a>
</g>
</g>
<!-- Node1&#45;&gt;Node2 -->
<g id="edge2" class="edge">
<title>Node1&#45;&gt;Node2</title>
<path fill="none" stroke="#9a32cd" stroke-dasharray="5,2" d="M109.85,-73.56C104.34,-70 99.4,-65.55 96,-60 90.89,-51.66 90.89,-46.34 96,-38 101.18,-29.55 109.93,-23.64 118.84,-19.55"/>
<polygon fill="#9a32cd" stroke="#9a32cd" points="108.38,-76.75 118.84,-78.45 111.73,-70.6 108.38,-76.75"/>
<text text-anchor="middle" x="134.5" y="-52" font-family="Helvetica,sans-Serif" font-size="10.00"> event_callback</text>
<text text-anchor="middle" x="134.5" y="-41" font-family="Helvetica,sans-Serif" font-size="10.00">state_callback</text>
</g>
<!-- Node2&#45;&gt;Node1 -->
<g id="edge1" class="edge">
<title>Node2&#45;&gt;Node1</title>
<path fill="none" stroke="#9a32cd" stroke-dasharray="5,2" d="M169.44,-26.71C172.52,-30.07 175.25,-33.87 177,-38 180.82,-47 180.82,-51 177,-60 173.88,-67.33 167.69,-73.64 161.92,-78.31"/>
<polygon fill="#9a32cd" stroke="#9a32cd" points="171.62,-23.95 161.92,-19.69 166.84,-29.07 171.62,-23.95"/>
<text text-anchor="middle" x="195.5" y="-46.5" font-family="Helvetica,sans-Serif" font-size="10.00"> config</text>
</g>
<!-- Node3 -->
<g id="node3" class="node">
<title>Node3</title>
<g id="a_node3"><a xlink:href="../../da/d45/structpending__request.html" target="_top" xlink:title=" ">
<polygon fill="white" stroke="black" points="4,-145.5 4,-164.5 102,-164.5 102,-145.5 4,-145.5"/>
<text text-anchor="middle" x="53" y="-152.5" font-family="Helvetica,sans-Serif" font-size="10.00">pending_request</text>
</a>
</g>
</g>
<!-- Node3&#45;&gt;Node1 -->
<g id="edge3" class="edge">
<title>Node3&#45;&gt;Node1</title>
<path fill="none" stroke="#9a32cd" stroke-dasharray="5,2" d="M62.48,-136.37C67.01,-129.27 72.98,-121.48 80,-116 90.54,-107.77 103.91,-101.77 116.06,-97.54"/>
<polygon fill="#9a32cd" stroke="#9a32cd" points="59.26,-134.94 57.24,-145.34 65.31,-138.47 59.26,-134.94"/>
<text text-anchor="middle" x="125" y="-119" font-family="Helvetica,sans-Serif" font-size="10.00"> pending_requests</text>
</g>
<!-- Node3&#45;&gt;Node3 -->
<g id="edge5" class="edge">
<title>Node3&#45;&gt;Node3</title>
<path fill="none" stroke="#9a32cd" stroke-dasharray="5,2" d="M112.32,-159.58C117.06,-158.58 120,-157.05 120,-155 120,-151.72 112.49,-149.78 102.08,-149.19"/>
<polygon fill="#9a32cd" stroke="#9a32cd" points="111.59,-156.14 102.08,-160.81 112.43,-163.09 111.59,-156.14"/>
<text text-anchor="middle" x="132.5" y="-152.5" font-family="Helvetica,sans-Serif" font-size="10.00"> next</text>
</g>
<!-- Node4 -->
<g id="node4" class="node">
<title>Node4</title>
<g id="a_node4"><a xlink:href="../../d2/d1f/structobsws__response__t.html" target="_top" xlink:title="Response structure for requests to OBS.">
<polygon fill="white" stroke="black" points="0,-212.5 0,-231.5 106,-231.5 106,-212.5 0,-212.5"/>
<text text-anchor="middle" x="53" y="-219.5" font-family="Helvetica,sans-Serif" font-size="10.00">obsws_response_t</text>
</a>
</g>
</g>
<!-- Node4&#45;&gt;Node3 -->
<g id="edge4" class="edge">
<title>Node4&#45;&gt;Node3</title>
<path fill="none" stroke="#9a32cd" stroke-dasharray="5,2" d="M53,-202.04C53,-189.67 53,-174.12 53,-164.63"/>
<polygon fill="#9a32cd" stroke="#9a32cd" points="49.5,-202.23 53,-212.23 56.5,-202.23 49.5,-202.23"/>
<text text-anchor="middle" x="77" y="-186" font-family="Helvetica,sans-Serif" font-size="10.00"> response</text>
</g>
<!-- Node5 -->
<g id="node5" class="node">
<title>Node5</title>
<g id="a_node5"><a xlink:href="../../d6/d5c/structobsws__stats__t.html" target="_top" xlink:title="Connection statistics &#45; useful for monitoring and debugging connection health.">
<polygon fill="white" stroke="black" points="163,-145.5 163,-164.5 249,-164.5 249,-145.5 163,-145.5"/>
<text text-anchor="middle" x="206" y="-152.5" font-family="Helvetica,sans-Serif" font-size="10.00">obsws_stats_t</text>
</a>
</g>
</g>
<!-- Node5&#45;&gt;Node1 -->
<g id="edge6" class="edge">
<title>Node5&#45;&gt;Node1</title>
<path fill="none" stroke="#9a32cd" stroke-dasharray="5,2" d="M191.65,-137.63C180.5,-124.92 165.48,-107.8 156.57,-97.63"/>
<polygon fill="#9a32cd" stroke="#9a32cd" points="189.09,-140.02 198.31,-145.23 194.35,-135.41 189.09,-140.02"/>
<text text-anchor="middle" x="194" y="-119" font-family="Helvetica,sans-Serif" font-size="10.00"> stats</text>
</g>
</g>
</svg>
