<?xml version="1.0" encoding="UTF-8" standalone="no"?>
<!DOCTYPE svg PUBLIC "-//W3C//DTD SVG 1.1//EN"
 "http://www.w3.org/Graphics/SVG/1.1/DTD/svg11.dtd">
<!-- Generated by graphviz version 2.43.0 (0)
 -->
<!-- Title: obsws_log Pages: 1 -->
<svg width="746pt" height="359pt"
 viewBox="0.00 0.00 746.00 359.48" xmlns="http://www.w3.org/2000/svg" xmlns:xlink="http://www.w3.org/1999/xlink">
<g id="graph0" class="graph" transform="scale(1 1) rotate(0) translate(4 355.48)">
<title>obsws_log</title>
<polygon fill="white" stroke="transparent" points="-4,4 -4,-355.48 742,-355.48 742,4 -4,4"/>
<!-- Node1 -->
<g id="node1" class="node">
<title>Node1</title>
<g id="a_node1"><a xlink:title=" ">
<polygon fill="#bfbfbf" stroke="black" points="670,-152.5 670,-171.5 738,-171.5 738,-152.5 670,-152.5"/>
<text text-anchor="middle" x="704" y="-159.5" font-family="Helvetica,sans-Serif" font-size="10.00">obsws_log</text>
</a>
</g>
</g>
<!-- Node2 -->
<g id="node2" class="node">
<title>Node2</title>
<g id="a_node2"><a xlink:href="../../d5/d27/library_8c.html#af183411517ec69b1d59f875fbb0245bd" target="_top" xlink:title="Handle the initial HELLO handshake message from OBS.">
<polygon fill="white" stroke="black" points="318,-190.5 318,-209.5 446,-209.5 446,-190.5 318,-190.5"/>
<text text-anchor="middle" x="382" y="-197.5" font-family="Helvetica,sans-Serif" font-size="10.00">handle_hello_message</text>
</a>
</g>
</g>
<!-- Node1&#45;&gt;Node2 -->
<g id="edge1" class="edge">
<title>Node1&#45;&gt;Node2</title>
<path fill="none" stroke="midnightblue" d="M659.95,-171.46C651.38,-173.14 642.43,-174.75 634,-176 570.35,-185.47 497.04,-191.98 446.15,-195.8"/>
<polygon fill="midnightblue" stroke="midnightblue" points="660.67,-174.88 669.78,-169.47 659.29,-168.02 660.67,-174.88"/>
</g>
<!-- Node3 -->
<g id="node3" class="node">
<title>Node3</title>
<g id="a_node3"><a xlink:href="../../d5/d27/library_8c.html#a0672da971c7e38224df11c34ef612f02" target="_top" xlink:title="Route incoming WebSocket messages to appropriate handlers based on opcode.">
<polygon fill="white" stroke="black" points="115,-190.5 115,-209.5 271,-209.5 271,-190.5 115,-190.5"/>
<text text-anchor="middle" x="193" y="-197.5" font-family="Helvetica,sans-Serif" font-size="10.00">handle_websocket_message</text>
</a>
</g>
</g>
<!-- Node1&#45;&gt;Node3 -->
<g id="edge8" class="edge">
<title>Node1&#45;&gt;Node3</title>
<path fill="none" stroke="midnightblue" d="M659.59,-162.4C586.59,-163.45 434.68,-167.25 307,-181 285.84,-183.28 262.62,-186.97 242.77,-190.5"/>
<polygon fill="midnightblue" stroke="midnightblue" points="659.83,-165.9 669.78,-162.26 659.74,-158.9 659.83,-165.9"/>
</g>
<!-- Node4 -->
<g id="node4" class="node">
<title>Node4</title>
<g id="a_node4"><a xlink:href="../../d5/d27/library_8c.html#ac5c31c457dc3042f85a620d7998ebeee" target="_top" xlink:title="libwebsockets callback &#45; routes WebSocket events to our handlers.">
<polygon fill="white" stroke="black" points="0,-266.5 0,-285.5 79,-285.5 79,-266.5 0,-266.5"/>
<text text-anchor="middle" x="39.5" y="-273.5" font-family="Helvetica,sans-Serif" font-size="10.00">lws_callback</text>
</a>
</g>
</g>
<!-- Node1&#45;&gt;Node4 -->
<g id="edge9" class="edge">
<title>Node1&#45;&gt;Node4</title>
<path fill="none" stroke="midnightblue" d="M699.44,-181.57C692.72,-212.08 674.98,-270.09 634,-295 443.49,-410.79 151.34,-317.4 65.2,-285.61"/>
<polygon fill="midnightblue" stroke="midnightblue" points="702.89,-182.17 701.44,-171.68 696.03,-180.79 702.89,-182.17"/>
</g>
<!-- Node5 -->
<g id="node5" class="node">
<title>Node5</title>
<g id="a_node5"><a xlink:href="../../d5/d27/library_8c.html#aad4174fe2c4665d21ae49896fc25be9e" target="_top" xlink:title="Handle the IDENTIFIED confirmation message from OBS.">
<polygon fill="white" stroke="black" points="307,-228.5 307,-247.5 457,-247.5 457,-228.5 307,-228.5"/>
<text text-anchor="middle" x="382" y="-235.5" font-family="Helvetica,sans-Serif" font-size="10.00">handle_identified_message</text>
</a>
</g>
</g>
<!-- Node1&#45;&gt;Node5 -->
<g id="edge4" class="edge">
<title>Node1&#45;&gt;Node5</title>
<path fill="none" stroke="midnightblue" d="M678.72,-176.63C665.85,-183.79 649.51,-191.93 634,-197 576.18,-215.88 507.91,-226.32 457.18,-231.92"/>
<polygon fill="midnightblue" stroke="midnightblue" points="680.49,-179.66 687.43,-171.66 677.01,-173.58 680.49,-179.66"/>
</g>
<!-- Node6 -->
<g id="node6" class="node">
<title>Node6</title>
<g id="a_node6"><a xlink:href="../../d5/d27/library_8c.html#a046a86e7ba13a054663021594755d54b" target="_top" xlink:title="Handle REQUEST_RESPONSE messages from OBS (responses to our commands).">
<polygon fill="white" stroke="black" points="311.5,-103 311.5,-133 452.5,-133 452.5,-103 311.5,-103"/>
<text text-anchor="start" x="319.5" y="-121" font-family="Helvetica,sans-Serif" font-size="10.00">handle_request_response</text>
<text text-anchor="middle" x="382" y="-110" font-family="Helvetica,sans-Serif" font-size="10.00">_message</text>
</a>
</g>
</g>
<!-- Node1&#45;&gt;Node6 -->
<g id="edge6" class="edge">
<title>Node1&#45;&gt;Node6</title>
<path fill="none" stroke="midnightblue" d="M659.93,-152.7C651.36,-151.01 642.41,-149.35 634,-148 573.01,-138.19 503.22,-130.09 452.73,-124.8"/>
<polygon fill="midnightblue" stroke="midnightblue" points="659.26,-156.14 669.76,-154.69 660.65,-149.28 659.26,-156.14"/>
</g>
<!-- Node7 -->
<g id="node7" class="node">
<title>Node7</title>
<g id="a_node7"><a xlink:href="../../d5/d27/library_8c.html#a7ed7225961f0989acb31ebbd9c099626" target="_top" xlink:title="Establish a connection to OBS.">
<polygon fill="white" stroke="black" points="518,-76.5 518,-95.5 609,-95.5 609,-76.5 518,-76.5"/>
<text text-anchor="middle" x="563.5" y="-83.5" font-family="Helvetica,sans-Serif" font-size="10.00">obsws_connect</text>
</a>
</g>
</g>
<!-- Node1&#45;&gt;Node7 -->
<g id="edge10" class="edge">
<title>Node1&#45;&gt;Node7</title>
<path fill="none" stroke="midnightblue" d="M684.6,-145.59C671.29,-134.38 652.46,-119.83 634,-110 623.07,-104.18 610.44,-99.33 598.98,-95.54"/>
<polygon fill="midnightblue" stroke="midnightblue" points="682.63,-148.52 692.49,-152.39 687.2,-143.21 682.63,-148.52"/>
</g>
<!-- Node8 -->
<g id="node8" class="node">
<title>Node8</title>
<g id="a_node8"><a xlink:href="../../d5/d27/library_8c.html#aa8389ba6731e01a9426bd921180b7195" target="_top" xlink:title="Disconnect and destroy a connection.">
<polygon fill="white" stroke="black" points="511,-38.5 511,-57.5 616,-57.5 616,-38.5 511,-38.5"/>
<text text-anchor="middle" x="563.5" y="-45.5" font-family="Helvetica,sans-Serif" font-size="10.00">obsws_disconnect</text>
</a>
</g>
</g>
<!-- Node1&#45;&gt;Node8 -->
<g id="edge11" class="edge">
<title>Node1&#45;&gt;Node8</title>
<path fill="none" stroke="midnightblue" d="M694.2,-143.07C683.17,-121.44 662.23,-86.51 634,-67 628.34,-63.09 621.9,-59.98 615.29,-57.51"/>
<polygon fill="midnightblue" stroke="midnightblue" points="691.14,-144.79 698.68,-152.24 697.43,-141.72 691.14,-144.79"/>
</g>
<!-- Node9 -->
<g id="node9" class="node">
<title>Node9</title>
<g id="a_node9"><a xlink:href="../../d5/d27/library_8c.html#a7cb91bbce42b458f267f79b9a7b293bf" target="_top" xlink:title="Switch OBS to a specific scene.">
<polygon fill="white" stroke="black" points="493,-0.5 493,-19.5 634,-19.5 634,-0.5 493,-0.5"/>
<text text-anchor="middle" x="563.5" y="-7.5" font-family="Helvetica,sans-Serif" font-size="10.00">obsws_set_current_scene</text>
</a>
</g>
</g>
<!-- Node1&#45;&gt;Node9 -->
<g id="edge12" class="edge">
<title>Node1&#45;&gt;Node9</title>
<path fill="none" stroke="midnightblue" d="M698.24,-142.44C690.12,-113.29 670.78,-58.72 634,-29 629.23,-25.15 623.74,-22.07 617.98,-19.62"/>
<polygon fill="midnightblue" stroke="midnightblue" points="694.89,-143.47 700.81,-152.26 701.66,-141.7 694.89,-143.47"/>
</g>
<!-- Node10 -->
<g id="node10" class="node">
<title>Node10</title>
<g id="a_node10"><a xlink:href="../../d5/d27/library_8c.html#a2f13308e49322d01e479cbe14da7b575" target="_top" xlink:title=" ">
<polygon fill="white" stroke="black" points="503.5,-266.5 503.5,-285.5 623.5,-285.5 623.5,-266.5 503.5,-266.5"/>
<text text-anchor="middle" x="563.5" y="-273.5" font-family="Helvetica,sans-Serif" font-size="10.00">set_connection_state</text>
</a>
</g>
</g>
<!-- Node1&#45;&gt;Node10 -->
<g id="edge13" class="edge">
<title>Node1&#45;&gt;Node10</title>
<path fill="none" stroke="midnightblue" d="M693.21,-180.51C681.62,-200.77 660.49,-232.9 634,-252 625.41,-258.2 615.08,-262.9 605.05,-266.42"/>
<polygon fill="midnightblue" stroke="midnightblue" points="696.35,-182.08 698.12,-171.63 690.22,-178.69 696.35,-182.08"/>
</g>
<!-- Node2&#45;&gt;Node3 -->
<g id="edge2" class="edge">
<title>Node2&#45;&gt;Node3</title>
<path fill="none" stroke="midnightblue" d="M307.92,-200C295.82,-200 283.24,-200 271.05,-200"/>
<polygon fill="midnightblue" stroke="midnightblue" points="307.95,-203.5 317.95,-200 307.95,-196.5 307.95,-203.5"/>
</g>
<!-- Node3&#45;&gt;Node4 -->
<g id="edge3" class="edge">
<title>Node3&#45;&gt;Node4</title>
<path fill="none" stroke="midnightblue" d="M163.58,-214.26C133.16,-229.52 85.74,-253.3 59.53,-266.45"/>
<polygon fill="midnightblue" stroke="midnightblue" points="165.44,-217.24 172.81,-209.63 162.3,-210.98 165.44,-217.24"/>
</g>
<!-- Node5&#45;&gt;Node3 -->
<g id="edge5" class="edge">
<title>Node5&#45;&gt;Node3</title>
<path fill="none" stroke="midnightblue" d="M323.87,-226.39C297.27,-220.99 266.03,-214.64 240.85,-209.52"/>
<polygon fill="midnightblue" stroke="midnightblue" points="323.32,-229.85 333.81,-228.41 324.71,-222.99 323.32,-229.85"/>
</g>
<!-- Node6&#45;&gt;Node3 -->
<g id="edge7" class="edge">
<title>Node6&#45;&gt;Node3</title>
<path fill="none" stroke="midnightblue" d="M333.42,-136.91C324.61,-140.52 315.5,-144.32 307,-148 274.3,-162.15 236.81,-179.66 214.29,-190.32"/>
<polygon fill="midnightblue" stroke="midnightblue" points="334.89,-140.09 342.83,-133.08 332.25,-133.61 334.89,-140.09"/>
</g>
<!-- Node10&#45;&gt;Node2 -->
<g id="edge14" class="edge">
<title>Node10&#45;&gt;Node2</title>
<path fill="none" stroke="midnightblue" d="M538.9,-261.08C518.03,-248.41 486.42,-230.52 457,-219 447.61,-215.32 437.28,-212.16 427.39,-209.52"/>
<polygon fill="midnightblue" stroke="midnightblue" points="537.34,-264.22 547.69,-266.48 541,-258.26 537.34,-264.22"/>
</g>
<!-- Node10&#45;&gt;Node4 -->
<g id="edge16" class="edge">
<title>Node10&#45;&gt;Node4</title>
<path fill="none" stroke="midnightblue" d="M493.27,-276C381.99,-276 166.95,-276 79.2,-276"/>
<polygon fill="midnightblue" stroke="midnightblue" points="493.38,-279.5 503.38,-276 493.38,-272.5 493.38,-279.5"/>
</g>
<!-- Node10&#45;&gt;Node5 -->
<g id="edge15" class="edge">
<title>Node10&#45;&gt;Node5</title>
<path fill="none" stroke="midnightblue" d="M507.32,-264.32C481.87,-258.93 452.03,-252.61 427.97,-247.52"/>
<polygon fill="midnightblue" stroke="midnightblue" points="506.7,-267.76 517.2,-266.41 508.15,-260.92 506.7,-267.76"/>
</g>
</g>
</svg>
