<?xml version="1.0" encoding="UTF-8" standalone="no"?>
<!DOCTYPE svg PUBLIC "-//W3C//DTD SVG 1.1//EN"
 "http://www.w3.org/Graphics/SVG/1.1/DTD/svg11.dtd">
<!-- Generated by graphviz version 2.43.0 (0)
 -->
<!-- Title: handle_identified_message Pages: 1 -->
<svg width="460pt" height="104pt"
 viewBox="0.00 0.00 460.00 104.00" xmlns="http://www.w3.org/2000/svg" xmlns:xlink="http://www.w3.org/1999/xlink">
<g id="graph0" class="graph" transform="scale(1 1) rotate(0) translate(4 100)">
<title>handle_identified_message</title>
<polygon fill="white" stroke="transparent" points="-4,4 -4,-100 456,-100 456,4 -4,4"/>
<!-- Node1 -->
<g id="node1" class="node">
<title>Node1</title>
<g id="a_node1"><a xlink:title="Handle the IDENTIFIED confirmation message from OBS.">
<polygon fill="#bfbfbf" stroke="black" points="0,-38.5 0,-57.5 150,-57.5 150,-38.5 0,-38.5"/>
<text text-anchor="middle" x="75" y="-45.5" font-family="Helvetica,sans-Serif" font-size="10.00">handle_identified_message</text>
</a>
</g>
</g>
<!-- Node2 -->
<g id="node2" class="node">
<title>Node2</title>
<g id="a_node2"><a xlink:href="../../d5/d27/library_8c.html#a3682ffd7f6175dbc796f5750172c99bf" target="_top" xlink:title=" ">
<polygon fill="white" stroke="black" points="204.5,-76.5 204.5,-95.5 287.5,-95.5 287.5,-76.5 204.5,-76.5"/>
<text text-anchor="middle" x="246" y="-83.5" font-family="Helvetica,sans-Serif" font-size="10.00">obsws_debug</text>
</a>
</g>
</g>
<!-- Node1&#45;&gt;Node2 -->
<g id="edge1" class="edge">
<title>Node1&#45;&gt;Node2</title>
<path fill="none" stroke="midnightblue" d="M118.65,-57.59C141.66,-62.76 170.22,-69.19 194.36,-74.61"/>
<polygon fill="midnightblue" stroke="midnightblue" points="193.88,-78.09 204.41,-76.87 195.42,-71.26 193.88,-78.09"/>
</g>
<!-- Node3 -->
<g id="node3" class="node">
<title>Node3</title>
<g id="a_node3"><a xlink:href="../../d5/d27/library_8c.html#a1d8529feb33753ebb45d896c4c125642" target="_top" xlink:title=" ">
<polygon fill="white" stroke="black" points="363,-38.5 363,-57.5 431,-57.5 431,-38.5 363,-38.5"/>
<text text-anchor="middle" x="397" y="-45.5" font-family="Helvetica,sans-Serif" font-size="10.00">obsws_log</text>
</a>
</g>
</g>
<!-- Node1&#45;&gt;Node3 -->
<g id="edge2" class="edge">
<title>Node1&#45;&gt;Node3</title>
<path fill="none" stroke="midnightblue" d="M150.22,-48C212.92,-48 300.58,-48 352.5,-48"/>
<polygon fill="midnightblue" stroke="midnightblue" points="352.7,-51.5 362.7,-48 352.7,-44.5 352.7,-51.5"/>
</g>
<!-- Node4 -->
<g id="node4" class="node">
<title>Node4</title>
<g id="a_node4"><a xlink:href="../../d5/d27/library_8c.html#a2f13308e49322d01e479cbe14da7b575" target="_top" xlink:title=" ">
<polygon fill="white" stroke="black" points="186,-0.5 186,-19.5 306,-19.5 306,-0.5 186,-0.5"/>
<text text-anchor="middle" x="246" y="-7.5" font-family="Helvetica,sans-Serif" font-size="10.00">set_connection_state</text>
</a>
</g>
</g>
<!-- Node1&#45;&gt;Node4 -->
<g id="edge3" class="edge">
<title>Node1&#45;&gt;Node4</title>
<path fill="none" stroke="midnightblue" d="M118.65,-38.41C141.15,-33.35 168.95,-27.1 192.74,-21.75"/>
<polygon fill="midnightblue" stroke="midnightblue" points="193.67,-25.13 202.66,-19.52 192.14,-18.3 193.67,-25.13"/>
</g>
<!-- Node4&#45;&gt;Node3 -->
<g id="edge4" class="edge">
<title>Node4&#45;&gt;Node3</title>
<path fill="none" stroke="midnightblue" d="M284.6,-19.59C305.44,-24.9 331.43,-31.53 353.06,-37.05"/>
<polygon fill="midnightblue" stroke="midnightblue" points="352.42,-40.5 362.98,-39.58 354.15,-33.72 352.42,-40.5"/>
</g>
<!-- Node5 -->
<g id="node5" class="node">
<title>Node5</title>
<g id="a_node5"><a xlink:href="../../d5/d27/library_8c.html#a69f8fcc1732533a2ebe573ac65effa04" target="_top" xlink:title="Convert a connection state to a human&#45;readable string.">
<polygon fill="white" stroke="black" points="342,-0.5 342,-19.5 452,-19.5 452,-0.5 342,-0.5"/>
<text text-anchor="middle" x="397" y="-7.5" font-family="Helvetica,sans-Serif" font-size="10.00">obsws_state_string</text>
</a>
</g>
</g>
<!-- Node4&#45;&gt;Node5 -->
<g id="edge5" class="edge">
<title>Node4&#45;&gt;Node5</title>
<path fill="none" stroke="midnightblue" d="M306.32,-10C314.63,-10 323.2,-10 331.59,-10"/>
<polygon fill="midnightblue" stroke="midnightblue" points="331.72,-13.5 341.72,-10 331.72,-6.5 331.72,-13.5"/>
</g>
</g>
</svg>
