<?xml version="1.0" encoding="UTF-8" standalone="no"?>
<!DOCTYPE svg PUBLIC "-//W3C//DTD SVG 1.1//EN"
 "http://www.w3.org/Graphics/SVG/1.1/DTD/svg11.dtd">
<!-- Generated by graphviz version 2.43.0 (0)
 -->
<!-- Title: obsws_get_current_scene Pages: 1 -->
<svg width="484pt" height="142pt"
 viewBox="0.00 0.00 484.00 142.00" xmlns="http://www.w3.org/2000/svg" xmlns:xlink="http://www.w3.org/1999/xlink">
<g id="graph0" class="graph" transform="scale(1 1) rotate(0) translate(4 138)">
<title>obsws_get_current_scene</title>
<polygon fill="white" stroke="transparent" points="-4,4 -4,-138 480,-138 480,4 -4,4"/>
<!-- Node1 -->
<g id="node1" class="node">
<title>Node1</title>
<g id="a_node1"><a xlink:title="Query the currently active scene in OBS.">
<polygon fill="#bfbfbf" stroke="black" points="0,-76.5 0,-95.5 142,-95.5 142,-76.5 0,-76.5"/>
<text text-anchor="middle" x="71" y="-83.5" font-family="Helvetica,sans-Serif" font-size="10.00">obsws_get_current_scene</text>
</a>
</g>
</g>
<!-- Node2 -->
<g id="node2" class="node">
<title>Node2</title>
<g id="a_node2"><a xlink:href="../../d5/d27/library_8c.html#a53067e61dc0ddcf1134d46b275d7ce6b" target="_top" xlink:title="Free a response object previously allocated by obsws_send_request().">
<polygon fill="white" stroke="black" points="178,-95.5 178,-114.5 300,-114.5 300,-95.5 178,-95.5"/>
<text text-anchor="middle" x="239" y="-102.5" font-family="Helvetica,sans-Serif" font-size="10.00">obsws_response_free</text>
</a>
</g>
</g>
<!-- Node1&#45;&gt;Node2 -->
<g id="edge1" class="edge">
<title>Node1&#45;&gt;Node2</title>
<path fill="none" stroke="midnightblue" d="M142.4,-94.06C150.82,-95.02 159.41,-96.01 167.83,-96.97"/>
<polygon fill="midnightblue" stroke="midnightblue" points="167.65,-100.47 177.98,-98.13 168.44,-93.52 167.65,-100.47"/>
</g>
<!-- Node3 -->
<g id="node3" class="node">
<title>Node3</title>
<g id="a_node3"><a xlink:href="../../d5/d27/library_8c.html#af2fd7f8dd928e03b38a3e2c5b5745417" target="_top" xlink:title="Send a synchronous request to OBS and wait for the response.">
<polygon fill="white" stroke="black" points="180,-57.5 180,-76.5 298,-76.5 298,-57.5 180,-57.5"/>
<text text-anchor="middle" x="239" y="-64.5" font-family="Helvetica,sans-Serif" font-size="10.00">obsws_send_request</text>
</a>
</g>
</g>
<!-- Node1&#45;&gt;Node3 -->
<g id="edge2" class="edge">
<title>Node1&#45;&gt;Node3</title>
<path fill="none" stroke="midnightblue" d="M142.4,-77.94C151.45,-76.91 160.71,-75.85 169.73,-74.81"/>
<polygon fill="midnightblue" stroke="midnightblue" points="170.25,-78.28 179.78,-73.66 169.45,-71.32 170.25,-78.28"/>
</g>
<!-- Node4 -->
<g id="node4" class="node">
<title>Node4</title>
<g id="a_node4"><a xlink:href="../../d5/d27/library_8c.html#aafc3d1ce3debddcb8e3888c9806e044a" target="_top" xlink:title=" ">
<polygon fill="white" stroke="black" points="339,-114.5 339,-133.5 473,-133.5 473,-114.5 339,-114.5"/>
<text text-anchor="middle" x="406" y="-121.5" font-family="Helvetica,sans-Serif" font-size="10.00">create_pending_request</text>
</a>
</g>
</g>
<!-- Node3&#45;&gt;Node4 -->
<g id="edge3" class="edge">
<title>Node3&#45;&gt;Node4</title>
<path fill="none" stroke="midnightblue" d="M273.71,-76.51C282.38,-79.27 291.63,-82.5 300,-86 316.69,-92.98 319.18,-98.34 336,-105 341.99,-107.37 348.38,-109.56 354.77,-111.55"/>
<polygon fill="midnightblue" stroke="midnightblue" points="354.16,-115.02 364.74,-114.5 356.15,-108.31 354.16,-115.02"/>
</g>
<!-- Node5 -->
<g id="node5" class="node">
<title>Node5</title>
<g id="a_node5"><a xlink:href="../../d5/d27/library_8c.html#af79be0fed07182761c923170f4211089" target="_top" xlink:title=" ">
<polygon fill="white" stroke="black" points="363,-76.5 363,-95.5 449,-95.5 449,-76.5 363,-76.5"/>
<text text-anchor="middle" x="406" y="-83.5" font-family="Helvetica,sans-Serif" font-size="10.00">generate_uuid</text>
</a>
</g>
</g>
<!-- Node3&#45;&gt;Node5 -->
<g id="edge4" class="edge">
<title>Node3&#45;&gt;Node5</title>
<path fill="none" stroke="midnightblue" d="M298.17,-73.7C316.01,-75.75 335.52,-78 352.92,-80"/>
<polygon fill="midnightblue" stroke="midnightblue" points="352.56,-83.48 362.9,-81.15 353.36,-76.53 352.56,-83.48"/>
</g>
<!-- Node6 -->
<g id="node6" class="node">
<title>Node6</title>
<g id="a_node6"><a xlink:href="../../d5/d27/library_8c.html#a3682ffd7f6175dbc796f5750172c99bf" target="_top" xlink:title=" ">
<polygon fill="white" stroke="black" points="364.5,-38.5 364.5,-57.5 447.5,-57.5 447.5,-38.5 364.5,-38.5"/>
<text text-anchor="middle" x="406" y="-45.5" font-family="Helvetica,sans-Serif" font-size="10.00">obsws_debug</text>
</a>
</g>
</g>
<!-- Node3&#45;&gt;Node6 -->
<g id="edge5" class="edge">
<title>Node3&#45;&gt;Node6</title>
<path fill="none" stroke="midnightblue" d="M298.17,-60.3C316.48,-58.19 336.54,-55.88 354.28,-53.84"/>
<polygon fill="midnightblue" stroke="midnightblue" points="354.89,-57.29 364.43,-52.67 354.09,-50.34 354.89,-57.29"/>
</g>
<!-- Node7 -->
<g id="node7" class="node">
<title>Node7</title>
<g id="a_node7"><a xlink:href="../../d5/d27/library_8c.html#a700c8a9baa87a3827b399776e811f328" target="_top" xlink:title=" ">
<polygon fill="white" stroke="black" points="336,-0.5 336,-19.5 476,-19.5 476,-0.5 336,-0.5"/>
<text text-anchor="middle" x="406" y="-7.5" font-family="Helvetica,sans-Serif" font-size="10.00">remove_pending_request</text>
</a>
</g>
</g>
<!-- Node3&#45;&gt;Node7 -->
<g id="edge6" class="edge">
<title>Node3&#45;&gt;Node7</title>
<path fill="none" stroke="midnightblue" d="M262.25,-57.4C281.54,-49.26 310.33,-37.59 336,-29 342.97,-26.67 350.4,-24.4 357.7,-22.29"/>
<polygon fill="midnightblue" stroke="midnightblue" points="358.86,-25.6 367.54,-19.52 356.96,-18.87 358.86,-25.6"/>
</g>
</g>
</svg>
