<?xml version="1.0" encoding="UTF-8" standalone="no"?>
<!DOCTYPE svg PUBLIC "-//W3C//DTD SVG 1.1//EN"
 "http://www.w3.org/Graphics/SVG/1.1/DTD/svg11.dtd">
<!-- Generated by graphviz version 2.43.0 (0)
 -->
<!-- Title: handle_hello_message Pages: 1 -->
<svg width="455pt" height="161pt"
 viewBox="0.00 0.00 455.00 161.00" xmlns="http://www.w3.org/2000/svg" xmlns:xlink="http://www.w3.org/1999/xlink">
<g id="graph0" class="graph" transform="scale(1 1) rotate(0) translate(4 157)">
<title>handle_hello_message</title>
<polygon fill="white" stroke="transparent" points="-4,4 -4,-157 451,-157 451,4 -4,4"/>
<!-- Node1 -->
<g id="node1" class="node">
<title>Node1</title>
<g id="a_node1"><a xlink:title="Handle the initial HELLO handshake message from OBS.">
<polygon fill="#bfbfbf" stroke="black" points="0,-57.5 0,-76.5 128,-76.5 128,-57.5 0,-57.5"/>
<text text-anchor="middle" x="64" y="-64.5" font-family="Helvetica,sans-Serif" font-size="10.00">handle_hello_message</text>
</a>
</g>
</g>
<!-- Node2 -->
<g id="node2" class="node">
<title>Node2</title>
<g id="a_node2"><a xlink:href="../../d5/d27/library_8c.html#acab761db577bf6b074b4e9be8be845b5" target="_top" xlink:title=" ">
<polygon fill="white" stroke="black" points="164,-114.5 164,-133.5 301,-133.5 301,-114.5 164,-114.5"/>
<text text-anchor="middle" x="232.5" y="-121.5" font-family="Helvetica,sans-Serif" font-size="10.00">generate_auth_response</text>
</a>
</g>
</g>
<!-- Node1&#45;&gt;Node2 -->
<g id="edge1" class="edge">
<title>Node1&#45;&gt;Node2</title>
<path fill="none" stroke="midnightblue" d="M87.99,-76.51C107.91,-84.6 137.62,-96.24 164,-105 170.91,-107.29 178.28,-109.55 185.51,-111.67"/>
<polygon fill="midnightblue" stroke="midnightblue" points="184.65,-115.06 195.23,-114.45 186.58,-108.33 184.65,-115.06"/>
</g>
<!-- Node5 -->
<g id="node5" class="node">
<title>Node5</title>
<g id="a_node5"><a xlink:href="../../d5/d27/library_8c.html#a3682ffd7f6175dbc796f5750172c99bf" target="_top" xlink:title=" ">
<polygon fill="white" stroke="black" points="191,-76.5 191,-95.5 274,-95.5 274,-76.5 191,-76.5"/>
<text text-anchor="middle" x="232.5" y="-83.5" font-family="Helvetica,sans-Serif" font-size="10.00">obsws_debug</text>
</a>
</g>
</g>
<!-- Node1&#45;&gt;Node5 -->
<g id="edge4" class="edge">
<title>Node1&#45;&gt;Node5</title>
<path fill="none" stroke="midnightblue" d="M128.42,-74.24C145.77,-76.22 164.35,-78.34 180.88,-80.22"/>
<polygon fill="midnightblue" stroke="midnightblue" points="180.55,-83.71 190.88,-81.36 181.34,-76.75 180.55,-83.71"/>
</g>
<!-- Node6 -->
<g id="node6" class="node">
<title>Node6</title>
<g id="a_node6"><a xlink:href="../../d5/d27/library_8c.html#a1d8529feb33753ebb45d896c4c125642" target="_top" xlink:title=" ">
<polygon fill="white" stroke="black" points="358,-38.5 358,-57.5 426,-57.5 426,-38.5 358,-38.5"/>
<text text-anchor="middle" x="392" y="-45.5" font-family="Helvetica,sans-Serif" font-size="10.00">obsws_log</text>
</a>
</g>
</g>
<!-- Node1&#45;&gt;Node6 -->
<g id="edge5" class="edge">
<title>Node1&#45;&gt;Node6</title>
<path fill="none" stroke="midnightblue" d="M128.24,-63.31C192.91,-59.54 291.62,-53.79 347.84,-50.52"/>
<polygon fill="midnightblue" stroke="midnightblue" points="348.04,-54.01 357.82,-49.93 347.64,-47.02 348.04,-54.01"/>
</g>
<!-- Node7 -->
<g id="node7" class="node">
<title>Node7</title>
<g id="a_node7"><a xlink:href="../../d5/d27/library_8c.html#a2f13308e49322d01e479cbe14da7b575" target="_top" xlink:title=" ">
<polygon fill="white" stroke="black" points="172.5,-0.5 172.5,-19.5 292.5,-19.5 292.5,-0.5 172.5,-0.5"/>
<text text-anchor="middle" x="232.5" y="-7.5" font-family="Helvetica,sans-Serif" font-size="10.00">set_connection_state</text>
</a>
</g>
</g>
<!-- Node1&#45;&gt;Node7 -->
<g id="edge6" class="edge">
<title>Node1&#45;&gt;Node7</title>
<path fill="none" stroke="midnightblue" d="M92.87,-57.46C120.6,-47.97 163.34,-33.33 194.03,-22.83"/>
<polygon fill="midnightblue" stroke="midnightblue" points="195.21,-26.12 203.54,-19.57 192.95,-19.5 195.21,-26.12"/>
</g>
<!-- Node3 -->
<g id="node3" class="node">
<title>Node3</title>
<g id="a_node3"><a xlink:href="../../d5/d27/library_8c.html#aab5c2995d6518ef254538795c00afdbb" target="_top" xlink:title=" ">
<polygon fill="white" stroke="black" points="346,-133.5 346,-152.5 438,-152.5 438,-133.5 346,-133.5"/>
<text text-anchor="middle" x="392" y="-140.5" font-family="Helvetica,sans-Serif" font-size="10.00">base64_encode</text>
</a>
</g>
</g>
<!-- Node2&#45;&gt;Node3 -->
<g id="edge2" class="edge">
<title>Node2&#45;&gt;Node3</title>
<path fill="none" stroke="midnightblue" d="M301.21,-132.17C312.7,-133.55 324.51,-134.98 335.63,-136.32"/>
<polygon fill="midnightblue" stroke="midnightblue" points="335.28,-139.8 345.63,-137.53 336.12,-132.85 335.28,-139.8"/>
</g>
<!-- Node4 -->
<g id="node4" class="node">
<title>Node4</title>
<g id="a_node4"><a xlink:href="../../d5/d27/library_8c.html#aaaa872a3d93d0ce3d5d4346f4b1c763e" target="_top" xlink:title=" ">
<polygon fill="white" stroke="black" points="352,-95.5 352,-114.5 432,-114.5 432,-95.5 352,-95.5"/>
<text text-anchor="middle" x="392" y="-102.5" font-family="Helvetica,sans-Serif" font-size="10.00">sha256_hash</text>
</a>
</g>
</g>
<!-- Node2&#45;&gt;Node4 -->
<g id="edge3" class="edge">
<title>Node2&#45;&gt;Node4</title>
<path fill="none" stroke="midnightblue" d="M301.21,-115.83C314.89,-114.18 329.03,-112.48 341.92,-110.92"/>
<polygon fill="midnightblue" stroke="midnightblue" points="342.46,-114.38 351.97,-109.71 341.62,-107.43 342.46,-114.38"/>
</g>
<!-- Node7&#45;&gt;Node6 -->
<g id="edge7" class="edge">
<title>Node7&#45;&gt;Node6</title>
<path fill="none" stroke="midnightblue" d="M273.24,-19.59C296.03,-25.09 324.64,-31.99 347.95,-37.61"/>
<polygon fill="midnightblue" stroke="midnightblue" points="347.37,-41.07 357.92,-40.02 349.02,-34.27 347.37,-41.07"/>
</g>
<!-- Node8 -->
<g id="node8" class="node">
<title>Node8</title>
<g id="a_node8"><a xlink:href="../../d5/d27/library_8c.html#a69f8fcc1732533a2ebe573ac65effa04" target="_top" xlink:title="Convert a connection state to a human&#45;readable string.">
<polygon fill="white" stroke="black" points="337,-0.5 337,-19.5 447,-19.5 447,-0.5 337,-0.5"/>
<text text-anchor="middle" x="392" y="-7.5" font-family="Helvetica,sans-Serif" font-size="10.00">obsws_state_string</text>
</a>
</g>
</g>
<!-- Node7&#45;&gt;Node8 -->
<g id="edge8" class="edge">
<title>Node7&#45;&gt;Node8</title>
<path fill="none" stroke="midnightblue" d="M292.6,-10C303.69,-10 315.34,-10 326.58,-10"/>
<polygon fill="midnightblue" stroke="midnightblue" points="326.77,-13.5 336.77,-10 326.77,-6.5 326.77,-13.5"/>
</g>
</g>
</svg>
