<?xml version="1.0" encoding="UTF-8" standalone="no"?>
<!DOCTYPE svg PUBLIC "-//W3C//DTD SVG 1.1//EN"
 "http://www.w3.org/Graphics/SVG/1.1/DTD/svg11.dtd">
<!-- Generated by graphviz version 2.43.0 (0)
 -->
<!-- Title: generate_auth_response Pages: 1 -->
<svg width="616pt" height="28pt"
 viewBox="0.00 0.00 616.00 28.00" xmlns="http://www.w3.org/2000/svg" xmlns:xlink="http://www.w3.org/1999/xlink">
<g id="graph0" class="graph" transform="scale(1 1) rotate(0) translate(4 24)">
<title>generate_auth_response</title>
<polygon fill="white" stroke="transparent" points="-4,4 -4,-24 612,-24 612,4 -4,4"/>
<!-- Node1 -->
<g id="node1" class="node">
<title>Node1</title>
<g id="a_node1"><a xlink:title=" ">
<polygon fill="#bfbfbf" stroke="black" points="471,-0.5 471,-19.5 608,-19.5 608,-0.5 471,-0.5"/>
<text text-anchor="middle" x="539.5" y="-7.5" font-family="Helvetica,sans-Serif" font-size="10.00">generate_auth_response</text>
</a>
</g>
</g>
<!-- Node2 -->
<g id="node2" class="node">
<title>Node2</title>
<g id="a_node2"><a xlink:href="../../d5/d27/library_8c.html#af183411517ec69b1d59f875fbb0245bd" target="_top" xlink:title="Handle the initial HELLO handshake message from OBS.">
<polygon fill="white" stroke="black" points="307,-0.5 307,-19.5 435,-19.5 435,-0.5 307,-0.5"/>
<text text-anchor="middle" x="371" y="-7.5" font-family="Helvetica,sans-Serif" font-size="10.00">handle_hello_message</text>
</a>
</g>
</g>
<!-- Node1&#45;&gt;Node2 -->
<g id="edge1" class="edge">
<title>Node1&#45;&gt;Node2</title>
<path fill="none" stroke="midnightblue" d="M460.75,-10C452.15,-10 443.48,-10 435.09,-10"/>
<polygon fill="midnightblue" stroke="midnightblue" points="460.78,-13.5 470.78,-10 460.78,-6.5 460.78,-13.5"/>
</g>
<!-- Node3 -->
<g id="node3" class="node">
<title>Node3</title>
<g id="a_node3"><a xlink:href="../../d5/d27/library_8c.html#a0672da971c7e38224df11c34ef612f02" target="_top" xlink:title="Route incoming WebSocket messages to appropriate handlers based on opcode.">
<polygon fill="white" stroke="black" points="115,-0.5 115,-19.5 271,-19.5 271,-0.5 115,-0.5"/>
<text text-anchor="middle" x="193" y="-7.5" font-family="Helvetica,sans-Serif" font-size="10.00">handle_websocket_message</text>
</a>
</g>
</g>
<!-- Node2&#45;&gt;Node3 -->
<g id="edge2" class="edge">
<title>Node2&#45;&gt;Node3</title>
<path fill="none" stroke="midnightblue" d="M296.73,-10C288.25,-10 279.58,-10 271.05,-10"/>
<polygon fill="midnightblue" stroke="midnightblue" points="296.96,-13.5 306.96,-10 296.96,-6.5 296.96,-13.5"/>
</g>
<!-- Node4 -->
<g id="node4" class="node">
<title>Node4</title>
<g id="a_node4"><a xlink:href="../../d5/d27/library_8c.html#ac5c31c457dc3042f85a620d7998ebeee" target="_top" xlink:title="libwebsockets callback &#45; routes WebSocket events to our handlers.">
<polygon fill="white" stroke="black" points="0,-0.5 0,-19.5 79,-19.5 79,-0.5 0,-0.5"/>
<text text-anchor="middle" x="39.5" y="-7.5" font-family="Helvetica,sans-Serif" font-size="10.00">lws_callback</text>
</a>
</g>
</g>
<!-- Node3&#45;&gt;Node4 -->
<g id="edge3" class="edge">
<title>Node3&#45;&gt;Node4</title>
<path fill="none" stroke="midnightblue" d="M104.76,-10C95.83,-10 87.11,-10 79.12,-10"/>
<polygon fill="midnightblue" stroke="midnightblue" points="104.92,-13.5 114.92,-10 104.92,-6.5 104.92,-13.5"/>
</g>
</g>
</svg>
