<?xml version="1.0" encoding="UTF-8" standalone="no"?>
<!DOCTYPE svg PUBLIC "-//W3C//DTD SVG 1.1//EN"
 "http://www.w3.org/Graphics/SVG/1.1/DTD/svg11.dtd">
<!-- Generated by graphviz version 2.43.0 (0)
 -->
<!-- Title: generate_uuid Pages: 1 -->
<svg width="426pt" height="218pt"
 viewBox="0.00 0.00 426.00 218.00" xmlns="http://www.w3.org/2000/svg" xmlns:xlink="http://www.w3.org/1999/xlink">
<g id="graph0" class="graph" transform="scale(1 1) rotate(0) translate(4 214)">
<title>generate_uuid</title>
<polygon fill="white" stroke="transparent" points="-4,4 -4,-214 422,-214 422,4 -4,4"/>
<!-- Node1 -->
<g id="node1" class="node">
<title>Node1</title>
<g id="a_node1"><a xlink:title=" ">
<polygon fill="#bfbfbf" stroke="black" points="332,-95.5 332,-114.5 418,-114.5 418,-95.5 332,-95.5"/>
<text text-anchor="middle" x="375" y="-102.5" font-family="Helvetica,sans-Serif" font-size="10.00">generate_uuid</text>
</a>
</g>
</g>
<!-- Node2 -->
<g id="node2" class="node">
<title>Node2</title>
<g id="a_node2"><a xlink:href="../../d5/d27/library_8c.html#af2fd7f8dd928e03b38a3e2c5b5745417" target="_top" xlink:title="Send a synchronous request to OBS and wait for the response.">
<polygon fill="white" stroke="black" points="178,-95.5 178,-114.5 296,-114.5 296,-95.5 178,-95.5"/>
<text text-anchor="middle" x="237" y="-102.5" font-family="Helvetica,sans-Serif" font-size="10.00">obsws_send_request</text>
</a>
</g>
</g>
<!-- Node1&#45;&gt;Node2 -->
<g id="edge1" class="edge">
<title>Node1&#45;&gt;Node2</title>
<path fill="none" stroke="midnightblue" d="M321.46,-105C313.2,-105 304.62,-105 296.24,-105"/>
<polygon fill="midnightblue" stroke="midnightblue" points="321.71,-108.5 331.71,-105 321.71,-101.5 321.71,-108.5"/>
</g>
<!-- Node3 -->
<g id="node3" class="node">
<title>Node3</title>
<g id="a_node3"><a xlink:href="../../d5/d27/library_8c.html#a91bd5ceb5878431131513cb4624e935a" target="_top" xlink:title="Query the currently active scene in OBS.">
<polygon fill="white" stroke="black" points="0,-190.5 0,-209.5 142,-209.5 142,-190.5 0,-190.5"/>
<text text-anchor="middle" x="71" y="-197.5" font-family="Helvetica,sans-Serif" font-size="10.00">obsws_get_current_scene</text>
</a>
</g>
</g>
<!-- Node2&#45;&gt;Node3 -->
<g id="edge2" class="edge">
<title>Node2&#45;&gt;Node3</title>
<path fill="none" stroke="midnightblue" d="M219.58,-121.9C201.93,-139.15 172.3,-165.51 142,-181 134.6,-184.78 126.36,-187.88 118.21,-190.39"/>
<polygon fill="midnightblue" stroke="midnightblue" points="222.2,-124.24 226.81,-114.69 217.26,-119.28 222.2,-124.24"/>
</g>
<!-- Node4 -->
<g id="node4" class="node">
<title>Node4</title>
<g id="a_node4"><a xlink:href="../../d5/d27/library_8c.html#a7cb91bbce42b458f267f79b9a7b293bf" target="_top" xlink:title="Switch OBS to a specific scene.">
<polygon fill="white" stroke="black" points="0.5,-152.5 0.5,-171.5 141.5,-171.5 141.5,-152.5 0.5,-152.5"/>
<text text-anchor="middle" x="71" y="-159.5" font-family="Helvetica,sans-Serif" font-size="10.00">obsws_set_current_scene</text>
</a>
</g>
</g>
<!-- Node2&#45;&gt;Node4 -->
<g id="edge3" class="edge">
<title>Node2&#45;&gt;Node4</title>
<path fill="none" stroke="midnightblue" d="M204.76,-118.72C186.64,-126.4 163.26,-135.85 142,-143 131.86,-146.41 120.73,-149.66 110.39,-152.46"/>
<polygon fill="midnightblue" stroke="midnightblue" points="206.43,-121.81 214.25,-114.66 203.68,-115.38 206.43,-121.81"/>
</g>
<!-- Node5 -->
<g id="node5" class="node">
<title>Node5</title>
<g id="a_node5"><a xlink:href="../../d5/d27/library_8c.html#a8643e2027afb1907122ce4d3bfe65c6e" target="_top" xlink:title="Start recording in OBS.">
<polygon fill="white" stroke="black" points="8,-114.5 8,-133.5 134,-133.5 134,-114.5 8,-114.5"/>
<text text-anchor="middle" x="71" y="-121.5" font-family="Helvetica,sans-Serif" font-size="10.00">obsws_start_recording</text>
</a>
</g>
</g>
<!-- Node2&#45;&gt;Node5 -->
<g id="edge4" class="edge">
<title>Node2&#45;&gt;Node5</title>
<path fill="none" stroke="midnightblue" d="M167.67,-112.92C156.6,-114.2 145.18,-115.52 134.26,-116.79"/>
<polygon fill="midnightblue" stroke="midnightblue" points="168.19,-116.38 177.72,-111.75 167.38,-109.43 168.19,-116.38"/>
</g>
<!-- Node6 -->
<g id="node6" class="node">
<title>Node6</title>
<g id="a_node6"><a xlink:href="../../d5/d27/library_8c.html#a86a35ee2d7aef7a0569b4111bd663d22" target="_top" xlink:title="Start streaming in OBS.">
<polygon fill="white" stroke="black" points="6,-76.5 6,-95.5 136,-95.5 136,-76.5 6,-76.5"/>
<text text-anchor="middle" x="71" y="-83.5" font-family="Helvetica,sans-Serif" font-size="10.00">obsws_start_streaming</text>
</a>
</g>
</g>
<!-- Node2&#45;&gt;Node6 -->
<g id="edge5" class="edge">
<title>Node2&#45;&gt;Node6</title>
<path fill="none" stroke="midnightblue" d="M167.49,-97.06C157.13,-95.86 146.48,-94.63 136.23,-93.44"/>
<polygon fill="midnightblue" stroke="midnightblue" points="167.38,-100.57 177.72,-98.25 168.19,-93.62 167.38,-100.57"/>
</g>
<!-- Node7 -->
<g id="node7" class="node">
<title>Node7</title>
<g id="a_node7"><a xlink:href="../../d5/d27/library_8c.html#a30001811f4cf8501e006ca46bcb8b329" target="_top" xlink:title="Stop recording.">
<polygon fill="white" stroke="black" points="8.5,-38.5 8.5,-57.5 133.5,-57.5 133.5,-38.5 8.5,-38.5"/>
<text text-anchor="middle" x="71" y="-45.5" font-family="Helvetica,sans-Serif" font-size="10.00">obsws_stop_recording</text>
</a>
</g>
</g>
<!-- Node2&#45;&gt;Node7 -->
<g id="edge6" class="edge">
<title>Node2&#45;&gt;Node7</title>
<path fill="none" stroke="midnightblue" d="M204.76,-91.28C186.64,-83.6 163.26,-74.15 142,-67 131.86,-63.59 120.73,-60.34 110.39,-57.54"/>
<polygon fill="midnightblue" stroke="midnightblue" points="203.68,-94.62 214.25,-95.34 206.43,-88.19 203.68,-94.62"/>
</g>
<!-- Node8 -->
<g id="node8" class="node">
<title>Node8</title>
<g id="a_node8"><a xlink:href="../../d5/d27/library_8c.html#a2cfe9b46f435aa7986b5e772b99c464e" target="_top" xlink:title="Stop streaming.">
<polygon fill="white" stroke="black" points="7,-0.5 7,-19.5 135,-19.5 135,-0.5 7,-0.5"/>
<text text-anchor="middle" x="71" y="-7.5" font-family="Helvetica,sans-Serif" font-size="10.00">obsws_stop_streaming</text>
</a>
</g>
</g>
<!-- Node2&#45;&gt;Node8 -->
<g id="edge7" class="edge">
<title>Node2&#45;&gt;Node8</title>
<path fill="none" stroke="midnightblue" d="M219.58,-88.1C201.93,-70.85 172.3,-44.49 142,-29 134.6,-25.22 126.36,-22.12 118.21,-19.61"/>
<polygon fill="midnightblue" stroke="midnightblue" points="217.26,-90.72 226.81,-95.31 222.2,-85.76 217.26,-90.72"/>
</g>
</g>
</svg>
