<?xml version="1.0" encoding="UTF-8" standalone="no"?>
<!DOCTYPE svg PUBLIC "-//W3C//DTD SVG 1.1//EN"
 "http://www.w3.org/Graphics/SVG/1.1/DTD/svg11.dtd">
<!-- Generated by graphviz version 2.43.0 (0)
 -->
<!-- Title: handle_websocket_message Pages: 1 -->
<svg width="669pt" height="327pt"
 viewBox="0.00 0.00 669.00 327.37" xmlns="http://www.w3.org/2000/svg" xmlns:xlink="http://www.w3.org/1999/xlink">
<g id="graph0" class="graph" transform="scale(1 1) rotate(0) translate(4 323.37)">
<title>handle_websocket_message</title>
<polygon fill="white" stroke="transparent" points="-4,4 -4,-323.37 665,-323.37 665,4 -4,4"/>
<!-- Node1 -->
<g id="node1" class="node">
<title>Node1</title>
<g id="a_node1"><a xlink:title="Route incoming WebSocket messages to appropriate handlers based on opcode.">
<polygon fill="#bfbfbf" stroke="black" points="0,-121.87 0,-140.87 156,-140.87 156,-121.87 0,-121.87"/>
<text text-anchor="middle" x="78" y="-128.87" font-family="Helvetica,sans-Serif" font-size="10.00">handle_websocket_message</text>
</a>
</g>
</g>
<!-- Node2 -->
<g id="node2" class="node">
<title>Node2</title>
<g id="a_node2"><a xlink:href="../../d5/d27/library_8c.html#ac7c18bfa245d7a8582c6e5536cf46532" target="_top" xlink:title="Handle EVENT messages from OBS (real&#45;time notifications).">
<polygon fill="white" stroke="black" points="201,-140.87 201,-159.87 333,-159.87 333,-140.87 201,-140.87"/>
<text text-anchor="middle" x="267" y="-147.87" font-family="Helvetica,sans-Serif" font-size="10.00">handle_event_message</text>
</a>
</g>
</g>
<!-- Node1&#45;&gt;Node2 -->
<g id="edge1" class="edge">
<title>Node1&#45;&gt;Node2</title>
<path fill="none" stroke="midnightblue" d="M156.14,-139.21C167.66,-140.38 179.51,-141.58 190.99,-142.75"/>
<polygon fill="midnightblue" stroke="midnightblue" points="190.65,-146.23 200.95,-143.76 191.35,-139.27 190.65,-146.23"/>
</g>
<!-- Node3 -->
<g id="node3" class="node">
<title>Node3</title>
<g id="a_node3"><a xlink:href="../../d5/d27/library_8c.html#a3682ffd7f6175dbc796f5750172c99bf" target="_top" xlink:title=" ">
<polygon fill="white" stroke="black" points="405,-128.87 405,-147.87 488,-147.87 488,-128.87 405,-128.87"/>
<text text-anchor="middle" x="446.5" y="-135.87" font-family="Helvetica,sans-Serif" font-size="10.00">obsws_debug</text>
</a>
</g>
</g>
<!-- Node1&#45;&gt;Node3 -->
<g id="edge20" class="edge">
<title>Node1&#45;&gt;Node3</title>
<path fill="none" stroke="midnightblue" d="M156.13,-130C208.56,-129.41 279.48,-129.26 342,-131.37 359.14,-131.95 377.85,-133.07 394.59,-134.24"/>
<polygon fill="midnightblue" stroke="midnightblue" points="394.5,-137.74 404.73,-134.97 395.01,-130.76 394.5,-137.74"/>
</g>
<!-- Node4 -->
<g id="node4" class="node">
<title>Node4</title>
<g id="a_node4"><a xlink:href="../../d5/d27/library_8c.html#af183411517ec69b1d59f875fbb0245bd" target="_top" xlink:title="Handle the initial HELLO handshake message from OBS.">
<polygon fill="white" stroke="black" points="203,-216.87 203,-235.87 331,-235.87 331,-216.87 203,-216.87"/>
<text text-anchor="middle" x="267" y="-223.87" font-family="Helvetica,sans-Serif" font-size="10.00">handle_hello_message</text>
</a>
</g>
</g>
<!-- Node1&#45;&gt;Node4 -->
<g id="edge3" class="edge">
<title>Node1&#45;&gt;Node4</title>
<path fill="none" stroke="midnightblue" d="M90.41,-141.01C109.96,-157.06 151.66,-189.27 192,-207.37 197.35,-209.77 203.06,-211.91 208.84,-213.8"/>
<polygon fill="midnightblue" stroke="midnightblue" points="208.01,-217.21 218.6,-216.76 210.04,-210.51 208.01,-217.21"/>
</g>
<!-- Node8 -->
<g id="node8" class="node">
<title>Node8</title>
<g id="a_node8"><a xlink:href="../../d5/d27/library_8c.html#a1d8529feb33753ebb45d896c4c125642" target="_top" xlink:title=" ">
<polygon fill="white" stroke="black" points="572,-166.87 572,-185.87 640,-185.87 640,-166.87 572,-166.87"/>
<text text-anchor="middle" x="606" y="-173.87" font-family="Helvetica,sans-Serif" font-size="10.00">obsws_log</text>
</a>
</g>
</g>
<!-- Node1&#45;&gt;Node8 -->
<g id="edge21" class="edge">
<title>Node1&#45;&gt;Node8</title>
<path fill="none" stroke="midnightblue" d="M87.12,-121.74C104.16,-102.37 145.91,-59.2 192,-43.37 327.77,3.26 388.2,23.93 515,-43.37 560.6,-67.57 587.32,-126.35 598.62,-157.02"/>
<polygon fill="midnightblue" stroke="midnightblue" points="595.36,-158.31 601.97,-166.59 601.97,-156 595.36,-158.31"/>
</g>
<!-- Node11 -->
<g id="node11" class="node">
<title>Node11</title>
<g id="a_node11"><a xlink:href="../../d5/d27/library_8c.html#aad4174fe2c4665d21ae49896fc25be9e" target="_top" xlink:title="Handle the IDENTIFIED confirmation message from OBS.">
<polygon fill="white" stroke="black" points="192,-178.87 192,-197.87 342,-197.87 342,-178.87 192,-178.87"/>
<text text-anchor="middle" x="267" y="-185.87" font-family="Helvetica,sans-Serif" font-size="10.00">handle_identified_message</text>
</a>
</g>
</g>
<!-- Node1&#45;&gt;Node11 -->
<g id="edge12" class="edge">
<title>Node1&#45;&gt;Node11</title>
<path fill="none" stroke="midnightblue" d="M105.77,-140.99C128.55,-149.02 162.23,-160.56 192,-169.37 200.04,-171.75 208.63,-174.12 217,-176.33"/>
<polygon fill="midnightblue" stroke="midnightblue" points="216.12,-179.71 226.68,-178.84 217.88,-172.94 216.12,-179.71"/>
</g>
<!-- Node12 -->
<g id="node12" class="node">
<title>Node12</title>
<g id="a_node12"><a xlink:href="../../d5/d27/library_8c.html#a046a86e7ba13a054663021594755d54b" target="_top" xlink:title="Handle REQUEST_RESPONSE messages from OBS (responses to our commands).">
<polygon fill="white" stroke="black" points="196.5,-53.37 196.5,-83.37 337.5,-83.37 337.5,-53.37 196.5,-53.37"/>
<text text-anchor="start" x="204.5" y="-71.37" font-family="Helvetica,sans-Serif" font-size="10.00">handle_request_response</text>
<text text-anchor="middle" x="267" y="-60.37" font-family="Helvetica,sans-Serif" font-size="10.00">_message</text>
</a>
</g>
</g>
<!-- Node1&#45;&gt;Node12 -->
<g id="edge16" class="edge">
<title>Node1&#45;&gt;Node12</title>
<path fill="none" stroke="midnightblue" d="M107.4,-121.8C134.93,-112.53 177.4,-98.22 211.46,-86.74"/>
<polygon fill="midnightblue" stroke="midnightblue" points="212.92,-89.94 221.28,-83.44 210.69,-83.31 212.92,-89.94"/>
</g>
<!-- Node2&#45;&gt;Node3 -->
<g id="edge2" class="edge">
<title>Node2&#45;&gt;Node3</title>
<path fill="none" stroke="midnightblue" d="M333.09,-145.97C353.47,-144.59 375.64,-143.09 394.87,-141.79"/>
<polygon fill="midnightblue" stroke="midnightblue" points="395.18,-145.28 404.93,-141.11 394.71,-138.3 395.18,-145.28"/>
</g>
<!-- Node4&#45;&gt;Node3 -->
<g id="edge7" class="edge">
<title>Node4&#45;&gt;Node3</title>
<path fill="none" stroke="midnightblue" d="M315,-216.85C324.15,-214.29 333.52,-211.15 342,-207.37 373.44,-193.34 405.86,-170.03 425.84,-154.44"/>
<polygon fill="midnightblue" stroke="midnightblue" points="428.2,-157.03 433.86,-148.07 423.85,-151.55 428.2,-157.03"/>
</g>
<!-- Node5 -->
<g id="node5" class="node">
<title>Node5</title>
<g id="a_node5"><a xlink:href="../../d5/d27/library_8c.html#acab761db577bf6b074b4e9be8be845b5" target="_top" xlink:title=" ">
<polygon fill="white" stroke="black" points="378,-280.87 378,-299.87 515,-299.87 515,-280.87 378,-280.87"/>
<text text-anchor="middle" x="446.5" y="-287.87" font-family="Helvetica,sans-Serif" font-size="10.00">generate_auth_response</text>
</a>
</g>
</g>
<!-- Node4&#45;&gt;Node5 -->
<g id="edge4" class="edge">
<title>Node4&#45;&gt;Node5</title>
<path fill="none" stroke="midnightblue" d="M294.21,-235.96C316.48,-244.1 349.32,-256.06 378,-266.37 388.01,-269.97 398.86,-273.84 408.87,-277.4"/>
<polygon fill="midnightblue" stroke="midnightblue" points="407.96,-280.79 418.55,-280.84 410.3,-274.19 407.96,-280.79"/>
</g>
<!-- Node4&#45;&gt;Node8 -->
<g id="edge8" class="edge">
<title>Node4&#45;&gt;Node8</title>
<path fill="none" stroke="midnightblue" d="M301.63,-235.92C350.77,-248.03 444.07,-263.88 515,-233.37 536.37,-224.18 531.48,-208.03 551,-195.37 554.56,-193.06 558.44,-190.99 562.44,-189.14"/>
<polygon fill="midnightblue" stroke="midnightblue" points="563.95,-192.31 571.85,-185.24 561.27,-185.84 563.95,-192.31"/>
</g>
<!-- Node9 -->
<g id="node9" class="node">
<title>Node9</title>
<g id="a_node9"><a xlink:href="../../d5/d27/library_8c.html#a2f13308e49322d01e479cbe14da7b575" target="_top" xlink:title=" ">
<polygon fill="white" stroke="black" points="386.5,-204.87 386.5,-223.87 506.5,-223.87 506.5,-204.87 386.5,-204.87"/>
<text text-anchor="middle" x="446.5" y="-211.87" font-family="Helvetica,sans-Serif" font-size="10.00">set_connection_state</text>
</a>
</g>
</g>
<!-- Node4&#45;&gt;Node9 -->
<g id="edge9" class="edge">
<title>Node4&#45;&gt;Node9</title>
<path fill="none" stroke="midnightblue" d="M331.08,-222.11C345.73,-221.11 361.41,-220.05 376.31,-219.05"/>
<polygon fill="midnightblue" stroke="midnightblue" points="376.74,-222.53 386.48,-218.36 376.27,-215.54 376.74,-222.53"/>
</g>
<!-- Node6 -->
<g id="node6" class="node">
<title>Node6</title>
<g id="a_node6"><a xlink:href="../../d5/d27/library_8c.html#aab5c2995d6518ef254538795c00afdbb" target="_top" xlink:title=" ">
<polygon fill="white" stroke="black" points="560,-299.87 560,-318.87 652,-318.87 652,-299.87 560,-299.87"/>
<text text-anchor="middle" x="606" y="-306.87" font-family="Helvetica,sans-Serif" font-size="10.00">base64_encode</text>
</a>
</g>
</g>
<!-- Node5&#45;&gt;Node6 -->
<g id="edge5" class="edge">
<title>Node5&#45;&gt;Node6</title>
<path fill="none" stroke="midnightblue" d="M515.21,-298.54C526.7,-299.92 538.51,-301.35 549.63,-302.69"/>
<polygon fill="midnightblue" stroke="midnightblue" points="549.28,-306.17 559.63,-303.9 550.12,-299.22 549.28,-306.17"/>
</g>
<!-- Node7 -->
<g id="node7" class="node">
<title>Node7</title>
<g id="a_node7"><a xlink:href="../../d5/d27/library_8c.html#aaaa872a3d93d0ce3d5d4346f4b1c763e" target="_top" xlink:title=" ">
<polygon fill="white" stroke="black" points="566,-261.87 566,-280.87 646,-280.87 646,-261.87 566,-261.87"/>
<text text-anchor="middle" x="606" y="-268.87" font-family="Helvetica,sans-Serif" font-size="10.00">sha256_hash</text>
</a>
</g>
</g>
<!-- Node5&#45;&gt;Node7 -->
<g id="edge6" class="edge">
<title>Node5&#45;&gt;Node7</title>
<path fill="none" stroke="midnightblue" d="M515.21,-282.2C528.89,-280.55 543.03,-278.85 555.92,-277.29"/>
<polygon fill="midnightblue" stroke="midnightblue" points="556.46,-280.75 565.97,-276.08 555.62,-273.8 556.46,-280.75"/>
</g>
<!-- Node9&#45;&gt;Node8 -->
<g id="edge10" class="edge">
<title>Node9&#45;&gt;Node8</title>
<path fill="none" stroke="midnightblue" d="M487.24,-204.78C510.03,-199.28 538.64,-192.38 561.95,-186.76"/>
<polygon fill="midnightblue" stroke="midnightblue" points="563.02,-190.1 571.92,-184.35 561.37,-183.3 563.02,-190.1"/>
</g>
<!-- Node10 -->
<g id="node10" class="node">
<title>Node10</title>
<g id="a_node10"><a xlink:href="../../d5/d27/library_8c.html#a69f8fcc1732533a2ebe573ac65effa04" target="_top" xlink:title="Convert a connection state to a human&#45;readable string.">
<polygon fill="white" stroke="black" points="551,-204.87 551,-223.87 661,-223.87 661,-204.87 551,-204.87"/>
<text text-anchor="middle" x="606" y="-211.87" font-family="Helvetica,sans-Serif" font-size="10.00">obsws_state_string</text>
</a>
</g>
</g>
<!-- Node9&#45;&gt;Node10 -->
<g id="edge11" class="edge">
<title>Node9&#45;&gt;Node10</title>
<path fill="none" stroke="midnightblue" d="M506.6,-214.37C517.69,-214.37 529.34,-214.37 540.58,-214.37"/>
<polygon fill="midnightblue" stroke="midnightblue" points="540.77,-217.87 550.77,-214.37 540.77,-210.87 540.77,-217.87"/>
</g>
<!-- Node11&#45;&gt;Node3 -->
<g id="edge13" class="edge">
<title>Node11&#45;&gt;Node3</title>
<path fill="none" stroke="midnightblue" d="M306.48,-178.8C317.94,-175.87 330.5,-172.57 342,-169.37 362.93,-163.55 386.1,-156.65 405.21,-150.84"/>
<polygon fill="midnightblue" stroke="midnightblue" points="406.25,-154.18 414.8,-147.91 404.21,-147.49 406.25,-154.18"/>
</g>
<!-- Node11&#45;&gt;Node8 -->
<g id="edge14" class="edge">
<title>Node11&#45;&gt;Node8</title>
<path fill="none" stroke="midnightblue" d="M342.37,-185.72C409.57,-183.33 506.16,-179.89 561.55,-177.92"/>
<polygon fill="midnightblue" stroke="midnightblue" points="561.85,-181.41 571.72,-177.55 561.6,-174.41 561.85,-181.41"/>
</g>
<!-- Node11&#45;&gt;Node9 -->
<g id="edge15" class="edge">
<title>Node11&#45;&gt;Node9</title>
<path fill="none" stroke="midnightblue" d="M333.09,-197.9C347.1,-199.96 361.96,-202.13 376.13,-204.21"/>
<polygon fill="midnightblue" stroke="midnightblue" points="375.9,-207.71 386.3,-205.7 376.92,-200.79 375.9,-207.71"/>
</g>
<!-- Node12&#45;&gt;Node3 -->
<g id="edge18" class="edge">
<title>Node12&#45;&gt;Node3</title>
<path fill="none" stroke="midnightblue" d="M305.75,-83.39C317.4,-88.11 330.26,-93.38 342,-98.37 358.12,-105.22 361.74,-107.88 378,-114.37 387.43,-118.14 397.71,-121.94 407.34,-125.38"/>
<polygon fill="midnightblue" stroke="midnightblue" points="406.48,-128.78 417.08,-128.81 408.81,-122.18 406.48,-128.78"/>
</g>
<!-- Node12&#45;&gt;Node8 -->
<g id="edge19" class="edge">
<title>Node12&#45;&gt;Node8</title>
<path fill="none" stroke="midnightblue" d="M337.56,-75.92C388.15,-83.02 457.56,-96.15 515,-119.37 540.7,-129.76 567.16,-147.52 584.67,-160.46"/>
<polygon fill="midnightblue" stroke="midnightblue" points="582.88,-163.49 592.97,-166.72 587.1,-157.9 582.88,-163.49"/>
</g>
<!-- Node13 -->
<g id="node13" class="node">
<title>Node13</title>
<g id="a_node13"><a xlink:href="../../d5/d27/library_8c.html#a6f7f5f47389b537c9dce9f1b328b7f06" target="_top" xlink:title=" ">
<polygon fill="white" stroke="black" points="386,-52.87 386,-71.87 507,-71.87 507,-52.87 386,-52.87"/>
<text text-anchor="middle" x="446.5" y="-59.87" font-family="Helvetica,sans-Serif" font-size="10.00">find_pending_request</text>
</a>
</g>
</g>
<!-- Node12&#45;&gt;Node13 -->
<g id="edge17" class="edge">
<title>Node12&#45;&gt;Node13</title>
<path fill="none" stroke="midnightblue" d="M337.64,-66.02C350.09,-65.6 363.06,-65.16 375.51,-64.74"/>
<polygon fill="midnightblue" stroke="midnightblue" points="375.95,-68.22 385.83,-64.39 375.72,-61.23 375.95,-68.22"/>
</g>
</g>
</svg>
