<?xml version="1.0" encoding="UTF-8" standalone="no"?>
<!DOCTYPE svg PUBLIC "-//W3C//DTD SVG 1.1//EN"
 "http://www.w3.org/Graphics/SVG/1.1/DTD/svg11.dtd">
<!-- Generated by graphviz version 2.43.0 (0)
 -->
<!-- Title: obsws_connect Pages: 1 -->
<svg width="400pt" height="104pt"
 viewBox="0.00 0.00 400.00 104.00" xmlns="http://www.w3.org/2000/svg" xmlns:xlink="http://www.w3.org/1999/xlink">
<g id="graph0" class="graph" transform="scale(1 1) rotate(0) translate(4 100)">
<title>obsws_connect</title>
<polygon fill="white" stroke="transparent" points="-4,4 -4,-100 396,-100 396,4 -4,4"/>
<!-- Node1 -->
<g id="node1" class="node">
<title>Node1</title>
<g id="a_node1"><a xlink:title="Establish a connection to OBS.">
<polygon fill="#bfbfbf" stroke="black" points="0,-38.5 0,-57.5 91,-57.5 91,-38.5 0,-38.5"/>
<text text-anchor="middle" x="45.5" y="-45.5" font-family="Helvetica,sans-Serif" font-size="10.00">obsws_connect</text>
</a>
</g>
</g>
<!-- Node2 -->
<g id="node2" class="node">
<title>Node2</title>
<g id="a_node2"><a xlink:href="../../d5/d27/library_8c.html#a27739efcea1287611c82ff3e8c88d7b7" target="_top" xlink:title="Background thread function that continuously processes WebSocket events.">
<polygon fill="white" stroke="black" points="127,-76.5 127,-95.5 234,-95.5 234,-76.5 127,-76.5"/>
<text text-anchor="middle" x="180.5" y="-83.5" font-family="Helvetica,sans-Serif" font-size="10.00">event_thread_func</text>
</a>
</g>
</g>
<!-- Node1&#45;&gt;Node2 -->
<g id="edge1" class="edge">
<title>Node1&#45;&gt;Node2</title>
<path fill="none" stroke="midnightblue" d="M80.06,-57.59C97.07,-62.45 117.93,-68.41 136.14,-73.61"/>
<polygon fill="midnightblue" stroke="midnightblue" points="135.37,-77.03 145.95,-76.41 137.3,-70.3 135.37,-77.03"/>
</g>
<!-- Node4 -->
<g id="node4" class="node">
<title>Node4</title>
<g id="a_node4"><a xlink:href="../../d5/d27/library_8c.html#aff3d6c035330741df84552800c0d0124" target="_top" xlink:title="Initialize the libwsv5 library.">
<polygon fill="white" stroke="black" points="146.5,-38.5 146.5,-57.5 214.5,-57.5 214.5,-38.5 146.5,-38.5"/>
<text text-anchor="middle" x="180.5" y="-45.5" font-family="Helvetica,sans-Serif" font-size="10.00">obsws_init</text>
</a>
</g>
</g>
<!-- Node1&#45;&gt;Node4 -->
<g id="edge3" class="edge">
<title>Node1&#45;&gt;Node4</title>
<path fill="none" stroke="midnightblue" d="M91.16,-48C105.61,-48 121.61,-48 135.98,-48"/>
<polygon fill="midnightblue" stroke="midnightblue" points="136.11,-51.5 146.11,-48 136.11,-44.5 136.11,-51.5"/>
</g>
<!-- Node5 -->
<g id="node5" class="node">
<title>Node5</title>
<g id="a_node5"><a xlink:href="../../d5/d27/library_8c.html#a1d8529feb33753ebb45d896c4c125642" target="_top" xlink:title=" ">
<polygon fill="white" stroke="black" points="146.5,-0.5 146.5,-19.5 214.5,-19.5 214.5,-0.5 146.5,-0.5"/>
<text text-anchor="middle" x="180.5" y="-7.5" font-family="Helvetica,sans-Serif" font-size="10.00">obsws_log</text>
</a>
</g>
</g>
<!-- Node1&#45;&gt;Node5 -->
<g id="edge4" class="edge">
<title>Node1&#45;&gt;Node5</title>
<path fill="none" stroke="midnightblue" d="M80.06,-38.41C97.2,-33.51 118.25,-27.5 136.56,-22.27"/>
<polygon fill="midnightblue" stroke="midnightblue" points="137.76,-25.57 146.41,-19.45 135.83,-18.84 137.76,-25.57"/>
</g>
<!-- Node3 -->
<g id="node3" class="node">
<title>Node3</title>
<g id="a_node3"><a xlink:href="../../d5/d27/library_8c.html#a885f22656ee8ca3170a50df0e0d85a4d" target="_top" xlink:title=" ">
<polygon fill="white" stroke="black" points="270,-76.5 270,-95.5 392,-95.5 392,-76.5 270,-76.5"/>
<text text-anchor="middle" x="331" y="-83.5" font-family="Helvetica,sans-Serif" font-size="10.00">cleanup_old_requests</text>
</a>
</g>
</g>
<!-- Node2&#45;&gt;Node3 -->
<g id="edge2" class="edge">
<title>Node2&#45;&gt;Node3</title>
<path fill="none" stroke="midnightblue" d="M234.27,-86C242.54,-86 251.2,-86 259.79,-86"/>
<polygon fill="midnightblue" stroke="midnightblue" points="259.8,-89.5 269.8,-86 259.8,-82.5 259.8,-89.5"/>
</g>
</g>
</svg>
