<?xml version="1.0" encoding="UTF-8" standalone="no"?>
<!DOCTYPE svg PUBLIC "-//W3C//DTD SVG 1.1//EN"
 "http://www.w3.org/Graphics/SVG/1.1/DTD/svg11.dtd">
<!-- Generated by graphviz version 2.43.0 (0)
 -->
<!-- Title: obsws_debug Pages: 1 -->
<svg width="584pt" height="338pt"
 viewBox="0.00 0.00 584.00 338.00" xmlns="http://www.w3.org/2000/svg" xmlns:xlink="http://www.w3.org/1999/xlink">
<g id="graph0" class="graph" transform="scale(1 1) rotate(0) translate(4 334)">
<title>obsws_debug</title>
<polygon fill="white" stroke="transparent" points="-4,4 -4,-334 580,-334 580,4 -4,4"/>
<!-- Node1 -->
<g id="node1" class="node">
<title>Node1</title>
<g id="a_node1"><a xlink:title=" ">
<polygon fill="#bfbfbf" stroke="black" points="493,-215.5 493,-234.5 576,-234.5 576,-215.5 493,-215.5"/>
<text text-anchor="middle" x="534.5" y="-222.5" font-family="Helvetica,sans-Serif" font-size="10.00">obsws_debug</text>
</a>
</g>
</g>
<!-- Node2 -->
<g id="node2" class="node">
<title>Node2</title>
<g id="a_node2"><a xlink:href="../../d5/d27/library_8c.html#ac7c18bfa245d7a8582c6e5536cf46532" target="_top" xlink:title="Handle EVENT messages from OBS (real&#45;time notifications).">
<polygon fill="white" stroke="black" points="316,-310.5 316,-329.5 448,-329.5 448,-310.5 316,-310.5"/>
<text text-anchor="middle" x="382" y="-317.5" font-family="Helvetica,sans-Serif" font-size="10.00">handle_event_message</text>
</a>
</g>
</g>
<!-- Node1&#45;&gt;Node2 -->
<g id="edge1" class="edge">
<title>Node1&#45;&gt;Node2</title>
<path fill="none" stroke="midnightblue" d="M518.95,-242.28C504.65,-258.25 481.48,-281.63 457,-296 446.63,-302.09 434.53,-306.84 423.15,-310.45"/>
<polygon fill="midnightblue" stroke="midnightblue" points="521.63,-244.52 525.57,-234.68 516.36,-239.92 521.63,-244.52"/>
</g>
<!-- Node3 -->
<g id="node3" class="node">
<title>Node3</title>
<g id="a_node3"><a xlink:href="../../d5/d27/library_8c.html#a0672da971c7e38224df11c34ef612f02" target="_top" xlink:title="Route incoming WebSocket messages to appropriate handlers based on opcode.">
<polygon fill="white" stroke="black" points="115,-234.5 115,-253.5 271,-253.5 271,-234.5 115,-234.5"/>
<text text-anchor="middle" x="193" y="-241.5" font-family="Helvetica,sans-Serif" font-size="10.00">handle_websocket_message</text>
</a>
</g>
</g>
<!-- Node1&#45;&gt;Node3 -->
<g id="edge10" class="edge">
<title>Node1&#45;&gt;Node3</title>
<path fill="none" stroke="midnightblue" d="M510.48,-239.95C495.82,-248.55 476.07,-258.53 457,-263 377.89,-281.57 282.05,-265.25 230.71,-253.5"/>
<polygon fill="midnightblue" stroke="midnightblue" points="512.6,-242.75 519.32,-234.56 508.96,-236.78 512.6,-242.75"/>
</g>
<!-- Node5 -->
<g id="node5" class="node">
<title>Node5</title>
<g id="a_node5"><a xlink:href="../../d5/d27/library_8c.html#af183411517ec69b1d59f875fbb0245bd" target="_top" xlink:title="Handle the initial HELLO handshake message from OBS.">
<polygon fill="white" stroke="black" points="318,-234.5 318,-253.5 446,-253.5 446,-234.5 318,-234.5"/>
<text text-anchor="middle" x="382" y="-241.5" font-family="Helvetica,sans-Serif" font-size="10.00">handle_hello_message</text>
</a>
</g>
</g>
<!-- Node1&#45;&gt;Node5 -->
<g id="edge4" class="edge">
<title>Node1&#45;&gt;Node5</title>
<path fill="none" stroke="midnightblue" d="M482.71,-231.41C470.97,-232.89 458.33,-234.49 446.13,-236.03"/>
<polygon fill="midnightblue" stroke="midnightblue" points="483.29,-234.87 492.77,-230.14 482.41,-227.92 483.29,-234.87"/>
</g>
<!-- Node6 -->
<g id="node6" class="node">
<title>Node6</title>
<g id="a_node6"><a xlink:href="../../d5/d27/library_8c.html#aad4174fe2c4665d21ae49896fc25be9e" target="_top" xlink:title="Handle the IDENTIFIED confirmation message from OBS.">
<polygon fill="white" stroke="black" points="307,-196.5 307,-215.5 457,-215.5 457,-196.5 307,-196.5"/>
<text text-anchor="middle" x="382" y="-203.5" font-family="Helvetica,sans-Serif" font-size="10.00">handle_identified_message</text>
</a>
</g>
</g>
<!-- Node1&#45;&gt;Node6 -->
<g id="edge6" class="edge">
<title>Node1&#45;&gt;Node6</title>
<path fill="none" stroke="midnightblue" d="M482.62,-218.58C474.4,-217.54 465.74,-216.45 457.11,-215.36"/>
<polygon fill="midnightblue" stroke="midnightblue" points="482.41,-222.08 492.77,-219.86 483.29,-215.13 482.41,-222.08"/>
</g>
<!-- Node7 -->
<g id="node7" class="node">
<title>Node7</title>
<g id="a_node7"><a xlink:href="../../d5/d27/library_8c.html#a046a86e7ba13a054663021594755d54b" target="_top" xlink:title="Handle REQUEST_RESPONSE messages from OBS (responses to our commands).">
<polygon fill="white" stroke="black" points="311.5,-147 311.5,-177 452.5,-177 452.5,-147 311.5,-147"/>
<text text-anchor="start" x="319.5" y="-165" font-family="Helvetica,sans-Serif" font-size="10.00">handle_request_response</text>
<text text-anchor="middle" x="382" y="-154" font-family="Helvetica,sans-Serif" font-size="10.00">_message</text>
</a>
</g>
</g>
<!-- Node1&#45;&gt;Node7 -->
<g id="edge8" class="edge">
<title>Node1&#45;&gt;Node7</title>
<path fill="none" stroke="midnightblue" d="M506.96,-210.71C492.42,-203.17 473.97,-194.04 457,-187 448.61,-183.52 439.54,-180.14 430.73,-177.06"/>
<polygon fill="midnightblue" stroke="midnightblue" points="505.41,-213.85 515.89,-215.4 508.66,-207.65 505.41,-213.85"/>
</g>
<!-- Node8 -->
<g id="node8" class="node">
<title>Node8</title>
<g id="a_node8"><a xlink:href="../../d5/d27/library_8c.html#af2fd7f8dd928e03b38a3e2c5b5745417" target="_top" xlink:title="Send a synchronous request to OBS and wait for the response.">
<polygon fill="white" stroke="black" points="323,-108.5 323,-127.5 441,-127.5 441,-108.5 323,-108.5"/>
<text text-anchor="middle" x="382" y="-115.5" font-family="Helvetica,sans-Serif" font-size="10.00">obsws_send_request</text>
</a>
</g>
</g>
<!-- Node1&#45;&gt;Node8 -->
<g id="edge11" class="edge">
<title>Node1&#45;&gt;Node8</title>
<path fill="none" stroke="midnightblue" d="M522.23,-206.75C509.02,-186.89 485.3,-155.62 457,-138 450,-133.64 442.04,-130.22 434.01,-127.54"/>
<polygon fill="midnightblue" stroke="midnightblue" points="519.34,-208.72 527.69,-215.23 525.22,-204.93 519.34,-208.72"/>
</g>
<!-- Node2&#45;&gt;Node3 -->
<g id="edge2" class="edge">
<title>Node2&#45;&gt;Node3</title>
<path fill="none" stroke="midnightblue" d="M338.86,-307.28C328.36,-303.85 317.2,-299.99 307,-296 273.21,-282.8 235.1,-264.53 212.9,-253.53"/>
<polygon fill="midnightblue" stroke="midnightblue" points="338.06,-310.7 348.66,-310.42 340.2,-304.03 338.06,-310.7"/>
</g>
<!-- Node4 -->
<g id="node4" class="node">
<title>Node4</title>
<g id="a_node4"><a xlink:href="../../d5/d27/library_8c.html#ac5c31c457dc3042f85a620d7998ebeee" target="_top" xlink:title="libwebsockets callback &#45; routes WebSocket events to our handlers.">
<polygon fill="white" stroke="black" points="0,-234.5 0,-253.5 79,-253.5 79,-234.5 0,-234.5"/>
<text text-anchor="middle" x="39.5" y="-241.5" font-family="Helvetica,sans-Serif" font-size="10.00">lws_callback</text>
</a>
</g>
</g>
<!-- Node3&#45;&gt;Node4 -->
<g id="edge3" class="edge">
<title>Node3&#45;&gt;Node4</title>
<path fill="none" stroke="midnightblue" d="M104.76,-244C95.83,-244 87.11,-244 79.12,-244"/>
<polygon fill="midnightblue" stroke="midnightblue" points="104.92,-247.5 114.92,-244 104.92,-240.5 104.92,-247.5"/>
</g>
<!-- Node5&#45;&gt;Node3 -->
<g id="edge5" class="edge">
<title>Node5&#45;&gt;Node3</title>
<path fill="none" stroke="midnightblue" d="M307.92,-244C295.82,-244 283.24,-244 271.05,-244"/>
<polygon fill="midnightblue" stroke="midnightblue" points="307.95,-247.5 317.95,-244 307.95,-240.5 307.95,-247.5"/>
</g>
<!-- Node6&#45;&gt;Node3 -->
<g id="edge7" class="edge">
<title>Node6&#45;&gt;Node3</title>
<path fill="none" stroke="midnightblue" d="M323.87,-217.61C297.27,-223.01 266.03,-229.36 240.85,-234.48"/>
<polygon fill="midnightblue" stroke="midnightblue" points="324.71,-221.01 333.81,-215.59 323.32,-214.15 324.71,-221.01"/>
</g>
<!-- Node7&#45;&gt;Node3 -->
<g id="edge9" class="edge">
<title>Node7&#45;&gt;Node3</title>
<path fill="none" stroke="midnightblue" d="M318.39,-181.11C314.46,-182.93 310.63,-184.89 307,-187 288.49,-197.75 289.57,-208.36 271,-219 259.66,-225.5 246.4,-230.57 234.1,-234.4"/>
<polygon fill="midnightblue" stroke="midnightblue" points="319.9,-184.27 327.71,-177.11 317.14,-177.84 319.9,-184.27"/>
</g>
<!-- Node9 -->
<g id="node9" class="node">
<title>Node9</title>
<g id="a_node9"><a xlink:href="../../d5/d27/library_8c.html#a91bd5ceb5878431131513cb4624e935a" target="_top" xlink:title="Query the currently active scene in OBS.">
<polygon fill="white" stroke="black" points="122,-190.5 122,-209.5 264,-209.5 264,-190.5 122,-190.5"/>
<text text-anchor="middle" x="193" y="-197.5" font-family="Helvetica,sans-Serif" font-size="10.00">obsws_get_current_scene</text>
</a>
</g>
</g>
<!-- Node8&#45;&gt;Node9 -->
<g id="edge12" class="edge">
<title>Node8&#45;&gt;Node9</title>
<path fill="none" stroke="midnightblue" d="M320,-131.17C315.45,-133.14 311.06,-135.4 307,-138 286,-151.43 292.15,-167.81 271,-181 264.81,-184.86 257.88,-187.94 250.79,-190.39"/>
<polygon fill="midnightblue" stroke="midnightblue" points="321.43,-134.37 329.51,-127.52 318.92,-127.84 321.43,-134.37"/>
</g>
<!-- Node10 -->
<g id="node10" class="node">
<title>Node10</title>
<g id="a_node10"><a xlink:href="../../d5/d27/library_8c.html#a7cb91bbce42b458f267f79b9a7b293bf" target="_top" xlink:title="Switch OBS to a specific scene.">
<polygon fill="white" stroke="black" points="122.5,-152.5 122.5,-171.5 263.5,-171.5 263.5,-152.5 122.5,-152.5"/>
<text text-anchor="middle" x="193" y="-159.5" font-family="Helvetica,sans-Serif" font-size="10.00">obsws_set_current_scene</text>
</a>
</g>
</g>
<!-- Node8&#45;&gt;Node10 -->
<g id="edge13" class="edge">
<title>Node8&#45;&gt;Node10</title>
<path fill="none" stroke="midnightblue" d="M330.53,-129.88C300.4,-136.96 262.66,-145.84 234.5,-152.47"/>
<polygon fill="midnightblue" stroke="midnightblue" points="331.49,-133.24 340.42,-127.55 329.89,-126.43 331.49,-133.24"/>
</g>
<!-- Node11 -->
<g id="node11" class="node">
<title>Node11</title>
<g id="a_node11"><a xlink:href="../../d5/d27/library_8c.html#a8643e2027afb1907122ce4d3bfe65c6e" target="_top" xlink:title="Start recording in OBS.">
<polygon fill="white" stroke="black" points="130,-114.5 130,-133.5 256,-133.5 256,-114.5 130,-114.5"/>
<text text-anchor="middle" x="193" y="-121.5" font-family="Helvetica,sans-Serif" font-size="10.00">obsws_start_recording</text>
</a>
</g>
</g>
<!-- Node8&#45;&gt;Node11 -->
<g id="edge14" class="edge">
<title>Node8&#45;&gt;Node11</title>
<path fill="none" stroke="midnightblue" d="M312.77,-120.19C294.31,-120.78 274.44,-121.42 256.32,-122"/>
<polygon fill="midnightblue" stroke="midnightblue" points="312.97,-123.68 322.86,-119.87 312.75,-116.69 312.97,-123.68"/>
</g>
<!-- Node12 -->
<g id="node12" class="node">
<title>Node12</title>
<g id="a_node12"><a xlink:href="../../d5/d27/library_8c.html#a86a35ee2d7aef7a0569b4111bd663d22" target="_top" xlink:title="Start streaming in OBS.">
<polygon fill="white" stroke="black" points="128,-76.5 128,-95.5 258,-95.5 258,-76.5 128,-76.5"/>
<text text-anchor="middle" x="193" y="-83.5" font-family="Helvetica,sans-Serif" font-size="10.00">obsws_start_streaming</text>
</a>
</g>
</g>
<!-- Node8&#45;&gt;Node12 -->
<g id="edge15" class="edge">
<title>Node8&#45;&gt;Node12</title>
<path fill="none" stroke="midnightblue" d="M315.39,-106.77C293.95,-103.1 270.35,-99.07 249.71,-95.53"/>
<polygon fill="midnightblue" stroke="midnightblue" points="314.95,-110.25 325.4,-108.49 316.13,-103.35 314.95,-110.25"/>
</g>
<!-- Node13 -->
<g id="node13" class="node">
<title>Node13</title>
<g id="a_node13"><a xlink:href="../../d5/d27/library_8c.html#a30001811f4cf8501e006ca46bcb8b329" target="_top" xlink:title="Stop recording.">
<polygon fill="white" stroke="black" points="130.5,-38.5 130.5,-57.5 255.5,-57.5 255.5,-38.5 130.5,-38.5"/>
<text text-anchor="middle" x="193" y="-45.5" font-family="Helvetica,sans-Serif" font-size="10.00">obsws_stop_recording</text>
</a>
</g>
</g>
<!-- Node8&#45;&gt;Node13 -->
<g id="edge16" class="edge">
<title>Node8&#45;&gt;Node13</title>
<path fill="none" stroke="midnightblue" d="M354.13,-103.77C332.22,-92.6 300.24,-77.28 271,-67 260.74,-63.39 249.48,-60.2 238.81,-57.52"/>
<polygon fill="midnightblue" stroke="midnightblue" points="352.66,-106.95 363.15,-108.42 355.87,-100.72 352.66,-106.95"/>
</g>
<!-- Node14 -->
<g id="node14" class="node">
<title>Node14</title>
<g id="a_node14"><a xlink:href="../../d5/d27/library_8c.html#a2cfe9b46f435aa7986b5e772b99c464e" target="_top" xlink:title="Stop streaming.">
<polygon fill="white" stroke="black" points="129,-0.5 129,-19.5 257,-19.5 257,-0.5 129,-0.5"/>
<text text-anchor="middle" x="193" y="-7.5" font-family="Helvetica,sans-Serif" font-size="10.00">obsws_stop_streaming</text>
</a>
</g>
</g>
<!-- Node8&#45;&gt;Node14 -->
<g id="edge17" class="edge">
<title>Node8&#45;&gt;Node14</title>
<path fill="none" stroke="midnightblue" d="M364.9,-101.04C344.8,-80.88 308.48,-47.62 271,-29 263.23,-25.14 254.62,-22.03 246.06,-19.53"/>
<polygon fill="midnightblue" stroke="midnightblue" points="362.51,-103.61 372.01,-108.32 367.52,-98.72 362.51,-103.61"/>
</g>
</g>
</svg>
