<?xml version="1.0" encoding="UTF-8" standalone="no"?>
<!DOCTYPE svg PUBLIC "-//W3C//DTD SVG 1.1//EN"
 "http://www.w3.org/Graphics/SVG/1.1/DTD/svg11.dtd">
<!-- Generated by graphviz version 2.43.0 (0)
 -->
<!-- Title: cleanup_old_requests Pages: 1 -->
<svg width="400pt" height="28pt"
 viewBox="0.00 0.00 400.00 28.00" xmlns="http://www.w3.org/2000/svg" xmlns:xlink="http://www.w3.org/1999/xlink">
<g id="graph0" class="graph" transform="scale(1 1) rotate(0) translate(4 24)">
<title>cleanup_old_requests</title>
<polygon fill="white" stroke="transparent" points="-4,4 -4,-24 396,-24 396,4 -4,4"/>
<!-- Node1 -->
<g id="node1" class="node">
<title>Node1</title>
<g id="a_node1"><a xlink:title=" ">
<polygon fill="#bfbfbf" stroke="black" points="270,-0.5 270,-19.5 392,-19.5 392,-0.5 270,-0.5"/>
<text text-anchor="middle" x="331" y="-7.5" font-family="Helvetica,sans-Serif" font-size="10.00">cleanup_old_requests</text>
</a>
</g>
</g>
<!-- Node2 -->
<g id="node2" class="node">
<title>Node2</title>
<g id="a_node2"><a xlink:href="../../d5/d27/library_8c.html#a27739efcea1287611c82ff3e8c88d7b7" target="_top" xlink:title="Background thread function that continuously processes WebSocket events.">
<polygon fill="white" stroke="black" points="127,-0.5 127,-19.5 234,-19.5 234,-0.5 127,-0.5"/>
<text text-anchor="middle" x="180.5" y="-7.5" font-family="Helvetica,sans-Serif" font-size="10.00">event_thread_func</text>
</a>
</g>
</g>
<!-- Node1&#45;&gt;Node2 -->
<g id="edge1" class="edge">
<title>Node1&#45;&gt;Node2</title>
<path fill="none" stroke="midnightblue" d="M259.34,-10C250.88,-10 242.36,-10 234.22,-10"/>
<polygon fill="midnightblue" stroke="midnightblue" points="259.6,-13.5 269.6,-10 259.6,-6.5 259.6,-13.5"/>
</g>
<!-- Node3 -->
<g id="node3" class="node">
<title>Node3</title>
<g id="a_node3"><a xlink:href="../../d5/d27/library_8c.html#a7ed7225961f0989acb31ebbd9c099626" target="_top" xlink:title="Establish a connection to OBS.">
<polygon fill="white" stroke="black" points="0,-0.5 0,-19.5 91,-19.5 91,-0.5 0,-0.5"/>
<text text-anchor="middle" x="45.5" y="-7.5" font-family="Helvetica,sans-Serif" font-size="10.00">obsws_connect</text>
</a>
</g>
</g>
<!-- Node2&#45;&gt;Node3 -->
<g id="edge2" class="edge">
<title>Node2&#45;&gt;Node3</title>
<path fill="none" stroke="midnightblue" d="M116.9,-10C108.29,-10 99.59,-10 91.38,-10"/>
<polygon fill="midnightblue" stroke="midnightblue" points="116.93,-13.5 126.93,-10 116.93,-6.5 116.93,-13.5"/>
</g>
</g>
</svg>
