<?xml version="1.0" encoding="UTF-8" standalone="no"?>
<!DOCTYPE svg PUBLIC "-//W3C//DTD SVG 1.1//EN"
 "http://www.w3.org/Graphics/SVG/1.1/DTD/svg11.dtd">
<!-- Generated by graphviz version 2.43.0 (0)
 -->
<!-- Title: obsws_state_string Pages: 1 -->
<svg width="767pt" height="85pt"
 viewBox="0.00 0.00 767.00 85.00" xmlns="http://www.w3.org/2000/svg" xmlns:xlink="http://www.w3.org/1999/xlink">
<g id="graph0" class="graph" transform="scale(1 1) rotate(0) translate(4 81)">
<title>obsws_state_string</title>
<polygon fill="white" stroke="transparent" points="-4,4 -4,-81 763,-81 763,4 -4,4"/>
<!-- Node1 -->
<g id="node1" class="node">
<title>Node1</title>
<g id="a_node1"><a xlink:title="Convert a connection state to a human&#45;readable string.">
<polygon fill="#bfbfbf" stroke="black" points="649,-19.5 649,-38.5 759,-38.5 759,-19.5 649,-19.5"/>
<text text-anchor="middle" x="704" y="-26.5" font-family="Helvetica,sans-Serif" font-size="10.00">obsws_state_string</text>
</a>
</g>
</g>
<!-- Node2 -->
<g id="node2" class="node">
<title>Node2</title>
<g id="a_node2"><a xlink:href="../../d5/d27/library_8c.html#a2f13308e49322d01e479cbe14da7b575" target="_top" xlink:title=" ">
<polygon fill="white" stroke="black" points="493,-19.5 493,-38.5 613,-38.5 613,-19.5 493,-19.5"/>
<text text-anchor="middle" x="553" y="-26.5" font-family="Helvetica,sans-Serif" font-size="10.00">set_connection_state</text>
</a>
</g>
</g>
<!-- Node1&#45;&gt;Node2 -->
<g id="edge1" class="edge">
<title>Node1&#45;&gt;Node2</title>
<path fill="none" stroke="midnightblue" d="M638.61,-29C630.17,-29 621.55,-29 613.21,-29"/>
<polygon fill="midnightblue" stroke="midnightblue" points="638.79,-32.5 648.79,-29 638.79,-25.5 638.79,-32.5"/>
</g>
<!-- Node3 -->
<g id="node3" class="node">
<title>Node3</title>
<g id="a_node3"><a xlink:href="../../d5/d27/library_8c.html#af183411517ec69b1d59f875fbb0245bd" target="_top" xlink:title="Handle the initial HELLO handshake message from OBS.">
<polygon fill="white" stroke="black" points="318,-57.5 318,-76.5 446,-76.5 446,-57.5 318,-57.5"/>
<text text-anchor="middle" x="382" y="-64.5" font-family="Helvetica,sans-Serif" font-size="10.00">handle_hello_message</text>
</a>
</g>
</g>
<!-- Node2&#45;&gt;Node3 -->
<g id="edge2" class="edge">
<title>Node2&#45;&gt;Node3</title>
<path fill="none" stroke="midnightblue" d="M499.41,-40.82C475.59,-46.18 447.79,-52.43 425.34,-57.48"/>
<polygon fill="midnightblue" stroke="midnightblue" points="500.37,-44.2 509.35,-38.59 498.83,-37.37 500.37,-44.2"/>
</g>
<!-- Node5 -->
<g id="node5" class="node">
<title>Node5</title>
<g id="a_node5"><a xlink:href="../../d5/d27/library_8c.html#ac5c31c457dc3042f85a620d7998ebeee" target="_top" xlink:title="libwebsockets callback &#45; routes WebSocket events to our handlers.">
<polygon fill="white" stroke="black" points="0,-0.5 0,-19.5 79,-19.5 79,-0.5 0,-0.5"/>
<text text-anchor="middle" x="39.5" y="-7.5" font-family="Helvetica,sans-Serif" font-size="10.00">lws_callback</text>
</a>
</g>
</g>
<!-- Node2&#45;&gt;Node5 -->
<g id="edge7" class="edge">
<title>Node2&#45;&gt;Node5</title>
<path fill="none" stroke="midnightblue" d="M503.46,-17.38C488.64,-14.34 472.23,-11.51 457,-10 318.48,3.72 152.78,-3.2 79.1,-7.47"/>
<polygon fill="midnightblue" stroke="midnightblue" points="502.93,-20.84 513.43,-19.49 504.38,-13.99 502.93,-20.84"/>
</g>
<!-- Node6 -->
<g id="node6" class="node">
<title>Node6</title>
<g id="a_node6"><a xlink:href="../../d5/d27/library_8c.html#aad4174fe2c4665d21ae49896fc25be9e" target="_top" xlink:title="Handle the IDENTIFIED confirmation message from OBS.">
<polygon fill="white" stroke="black" points="307,-19.5 307,-38.5 457,-38.5 457,-19.5 307,-19.5"/>
<text text-anchor="middle" x="382" y="-26.5" font-family="Helvetica,sans-Serif" font-size="10.00">handle_identified_message</text>
</a>
</g>
</g>
<!-- Node2&#45;&gt;Node6 -->
<g id="edge5" class="edge">
<title>Node2&#45;&gt;Node6</title>
<path fill="none" stroke="midnightblue" d="M482.75,-29C474.34,-29 465.71,-29 457.23,-29"/>
<polygon fill="midnightblue" stroke="midnightblue" points="482.89,-32.5 492.89,-29 482.89,-25.5 482.89,-32.5"/>
</g>
<!-- Node4 -->
<g id="node4" class="node">
<title>Node4</title>
<g id="a_node4"><a xlink:href="../../d5/d27/library_8c.html#a0672da971c7e38224df11c34ef612f02" target="_top" xlink:title="Route incoming WebSocket messages to appropriate handlers based on opcode.">
<polygon fill="white" stroke="black" points="115,-19.5 115,-38.5 271,-38.5 271,-19.5 115,-19.5"/>
<text text-anchor="middle" x="193" y="-26.5" font-family="Helvetica,sans-Serif" font-size="10.00">handle_websocket_message</text>
</a>
</g>
</g>
<!-- Node3&#45;&gt;Node4 -->
<g id="edge3" class="edge">
<title>Node3&#45;&gt;Node4</title>
<path fill="none" stroke="midnightblue" d="M323.87,-55.39C297.27,-49.99 266.03,-43.64 240.85,-38.52"/>
<polygon fill="midnightblue" stroke="midnightblue" points="323.32,-58.85 333.81,-57.41 324.71,-51.99 323.32,-58.85"/>
</g>
<!-- Node4&#45;&gt;Node5 -->
<g id="edge4" class="edge">
<title>Node4&#45;&gt;Node5</title>
<path fill="none" stroke="midnightblue" d="M105.74,-18.18C96.51,-17.02 87.49,-15.89 79.25,-14.86"/>
<polygon fill="midnightblue" stroke="midnightblue" points="105.45,-21.67 115.81,-19.44 106.32,-14.73 105.45,-21.67"/>
</g>
<!-- Node6&#45;&gt;Node4 -->
<g id="edge6" class="edge">
<title>Node6&#45;&gt;Node4</title>
<path fill="none" stroke="midnightblue" d="M296.57,-29C288.1,-29 279.54,-29 271.15,-29"/>
<polygon fill="midnightblue" stroke="midnightblue" points="296.82,-32.5 306.82,-29 296.82,-25.5 296.82,-32.5"/>
</g>
</g>
</svg>
