<?xml version="1.0" encoding="UTF-8" standalone="no"?>
<!DOCTYPE svg PUBLIC "-//W3C//DTD SVG 1.1//EN"
 "http://www.w3.org/Graphics/SVG/1.1/DTD/svg11.dtd">
<!-- Generated by graphviz version 2.43.0 (0)
 -->
<!-- Title: find_pending_request Pages: 1 -->
<svg width="613pt" height="39pt"
 viewBox="0.00 0.00 613.00 39.00" xmlns="http://www.w3.org/2000/svg" xmlns:xlink="http://www.w3.org/1999/xlink">
<g id="graph0" class="graph" transform="scale(1 1) rotate(0) translate(4 35)">
<title>find_pending_request</title>
<polygon fill="white" stroke="transparent" points="-4,4 -4,-35 609,-35 609,4 -4,4"/>
<!-- Node1 -->
<g id="node1" class="node">
<title>Node1</title>
<g id="a_node1"><a xlink:title=" ">
<polygon fill="#bfbfbf" stroke="black" points="484,-6 484,-25 605,-25 605,-6 484,-6"/>
<text text-anchor="middle" x="544.5" y="-13" font-family="Helvetica,sans-Serif" font-size="10.00">find_pending_request</text>
</a>
</g>
</g>
<!-- Node2 -->
<g id="node2" class="node">
<title>Node2</title>
<g id="a_node2"><a xlink:href="../../d5/d27/library_8c.html#a046a86e7ba13a054663021594755d54b" target="_top" xlink:title="Handle REQUEST_RESPONSE messages from OBS (responses to our commands).">
<polygon fill="white" stroke="black" points="307,-0.5 307,-30.5 448,-30.5 448,-0.5 307,-0.5"/>
<text text-anchor="start" x="315" y="-18.5" font-family="Helvetica,sans-Serif" font-size="10.00">handle_request_response</text>
<text text-anchor="middle" x="377.5" y="-7.5" font-family="Helvetica,sans-Serif" font-size="10.00">_message</text>
</a>
</g>
</g>
<!-- Node1&#45;&gt;Node2 -->
<g id="edge1" class="edge">
<title>Node1&#45;&gt;Node2</title>
<path fill="none" stroke="midnightblue" d="M473.7,-15.5C465.23,-15.5 456.56,-15.5 448.09,-15.5"/>
<polygon fill="midnightblue" stroke="midnightblue" points="473.93,-19 483.93,-15.5 473.93,-12 473.93,-19"/>
</g>
<!-- Node3 -->
<g id="node3" class="node">
<title>Node3</title>
<g id="a_node3"><a xlink:href="../../d5/d27/library_8c.html#a0672da971c7e38224df11c34ef612f02" target="_top" xlink:title="Route incoming WebSocket messages to appropriate handlers based on opcode.">
<polygon fill="white" stroke="black" points="115,-6 115,-25 271,-25 271,-6 115,-6"/>
<text text-anchor="middle" x="193" y="-13" font-family="Helvetica,sans-Serif" font-size="10.00">handle_websocket_message</text>
</a>
</g>
</g>
<!-- Node2&#45;&gt;Node3 -->
<g id="edge2" class="edge">
<title>Node2&#45;&gt;Node3</title>
<path fill="none" stroke="midnightblue" d="M296.74,-15.5C288.28,-15.5 279.68,-15.5 271.24,-15.5"/>
<polygon fill="midnightblue" stroke="midnightblue" points="296.98,-19 306.98,-15.5 296.98,-12 296.98,-19"/>
</g>
<!-- Node4 -->
<g id="node4" class="node">
<title>Node4</title>
<g id="a_node4"><a xlink:href="../../d5/d27/library_8c.html#ac5c31c457dc3042f85a620d7998ebeee" target="_top" xlink:title="libwebsockets callback &#45; routes WebSocket events to our handlers.">
<polygon fill="white" stroke="black" points="0,-6 0,-25 79,-25 79,-6 0,-6"/>
<text text-anchor="middle" x="39.5" y="-13" font-family="Helvetica,sans-Serif" font-size="10.00">lws_callback</text>
</a>
</g>
</g>
<!-- Node3&#45;&gt;Node4 -->
<g id="edge3" class="edge">
<title>Node3&#45;&gt;Node4</title>
<path fill="none" stroke="midnightblue" d="M104.76,-15.5C95.83,-15.5 87.11,-15.5 79.12,-15.5"/>
<polygon fill="midnightblue" stroke="midnightblue" points="104.92,-19 114.92,-15.5 104.92,-12 104.92,-19"/>
</g>
</g>
</svg>
