<?xml version="1.0" encoding="UTF-8" standalone="no"?>
<!DOCTYPE svg PUBLIC "-//W3C//DTD SVG 1.1//EN"
 "http://www.w3.org/Graphics/SVG/1.1/DTD/svg11.dtd">
<!-- Generated by graphviz version 2.43.0 (0)
 -->
<!-- Title: lws_callback Pages: 1 -->
<svg width="784pt" height="375pt"
 viewBox="0.00 0.00 784.00 374.78" xmlns="http://www.w3.org/2000/svg" xmlns:xlink="http://www.w3.org/1999/xlink">
<g id="graph0" class="graph" transform="scale(1 1) rotate(0) translate(4 370.78)">
<title>lws_callback</title>
<polygon fill="white" stroke="transparent" points="-4,4 -4,-370.78 780,-370.78 780,4 -4,4"/>
<!-- Node1 -->
<g id="node1" class="node">
<title>Node1</title>
<g id="a_node1"><a xlink:title="libwebsockets callback &#45; routes WebSocket events to our handlers.">
<polygon fill="#bfbfbf" stroke="black" points="0,-95.5 0,-114.5 79,-114.5 79,-95.5 0,-95.5"/>
<text text-anchor="middle" x="39.5" y="-102.5" font-family="Helvetica,sans-Serif" font-size="10.00">lws_callback</text>
</a>
</g>
</g>
<!-- Node2 -->
<g id="node2" class="node">
<title>Node2</title>
<g id="a_node2"><a xlink:href="../../d5/d27/library_8c.html#a0672da971c7e38224df11c34ef612f02" target="_top" xlink:title="Route incoming WebSocket messages to appropriate handlers based on opcode.">
<polygon fill="white" stroke="black" points="115,-209.5 115,-228.5 271,-228.5 271,-209.5 115,-209.5"/>
<text text-anchor="middle" x="193" y="-216.5" font-family="Helvetica,sans-Serif" font-size="10.00">handle_websocket_message</text>
</a>
</g>
</g>
<!-- Node1&#45;&gt;Node2 -->
<g id="edge1" class="edge">
<title>Node1&#45;&gt;Node2</title>
<path fill="none" stroke="midnightblue" d="M53.16,-114.52C79.16,-134.09 138.83,-178.99 170.82,-203.06"/>
<polygon fill="midnightblue" stroke="midnightblue" points="168.96,-206.05 179.06,-209.26 173.17,-200.45 168.96,-206.05"/>
</g>
<!-- Node9 -->
<g id="node9" class="node">
<title>Node9</title>
<g id="a_node9"><a xlink:href="../../d5/d27/library_8c.html#a1d8529feb33753ebb45d896c4c125642" target="_top" xlink:title=" ">
<polygon fill="white" stroke="black" points="687,-152.5 687,-171.5 755,-171.5 755,-152.5 687,-152.5"/>
<text text-anchor="middle" x="721" y="-159.5" font-family="Helvetica,sans-Serif" font-size="10.00">obsws_log</text>
</a>
</g>
</g>
<!-- Node1&#45;&gt;Node9 -->
<g id="edge23" class="edge">
<title>Node1&#45;&gt;Node9</title>
<path fill="none" stroke="midnightblue" d="M70.66,-95.44C160.4,-68.73 431.76,-0.73 630,-86 651.37,-95.19 648.4,-108.79 666,-124 675.43,-132.15 686.59,-140.23 696.31,-146.83"/>
<polygon fill="midnightblue" stroke="midnightblue" points="694.47,-149.82 704.74,-152.44 698.35,-143.99 694.47,-149.82"/>
</g>
<!-- Node10 -->
<g id="node10" class="node">
<title>Node10</title>
<g id="a_node10"><a xlink:href="../../d5/d27/library_8c.html#a2f13308e49322d01e479cbe14da7b575" target="_top" xlink:title=" ">
<polygon fill="white" stroke="black" points="501.5,-95.5 501.5,-114.5 621.5,-114.5 621.5,-95.5 501.5,-95.5"/>
<text text-anchor="middle" x="561.5" y="-102.5" font-family="Helvetica,sans-Serif" font-size="10.00">set_connection_state</text>
</a>
</g>
</g>
<!-- Node1&#45;&gt;Node10 -->
<g id="edge24" class="edge">
<title>Node1&#45;&gt;Node10</title>
<path fill="none" stroke="midnightblue" d="M79.16,-105C166.58,-105 380.45,-105 491.32,-105"/>
<polygon fill="midnightblue" stroke="midnightblue" points="491.4,-108.5 501.4,-105 491.4,-101.5 491.4,-108.5"/>
</g>
<!-- Node3 -->
<g id="node3" class="node">
<title>Node3</title>
<g id="a_node3"><a xlink:href="../../d5/d27/library_8c.html#ac7c18bfa245d7a8582c6e5536cf46532" target="_top" xlink:title="Handle EVENT messages from OBS (real&#45;time notifications).">
<polygon fill="white" stroke="black" points="316,-247.5 316,-266.5 448,-266.5 448,-247.5 316,-247.5"/>
<text text-anchor="middle" x="382" y="-254.5" font-family="Helvetica,sans-Serif" font-size="10.00">handle_event_message</text>
</a>
</g>
</g>
<!-- Node2&#45;&gt;Node3 -->
<g id="edge2" class="edge">
<title>Node2&#45;&gt;Node3</title>
<path fill="none" stroke="midnightblue" d="M241.19,-228.59C266.42,-233.72 297.67,-240.07 324.23,-245.46"/>
<polygon fill="midnightblue" stroke="midnightblue" points="323.65,-248.92 334.15,-247.48 325.05,-242.06 323.65,-248.92"/>
</g>
<!-- Node4 -->
<g id="node4" class="node">
<title>Node4</title>
<g id="a_node4"><a xlink:href="../../d5/d27/library_8c.html#a3682ffd7f6175dbc796f5750172c99bf" target="_top" xlink:title=" ">
<polygon fill="white" stroke="black" points="520,-209.5 520,-228.5 603,-228.5 603,-209.5 520,-209.5"/>
<text text-anchor="middle" x="561.5" y="-216.5" font-family="Helvetica,sans-Serif" font-size="10.00">obsws_debug</text>
</a>
</g>
</g>
<!-- Node2&#45;&gt;Node4 -->
<g id="edge21" class="edge">
<title>Node2&#45;&gt;Node4</title>
<path fill="none" stroke="midnightblue" d="M271.28,-219C342.95,-219 447.56,-219 509.37,-219"/>
<polygon fill="midnightblue" stroke="midnightblue" points="509.65,-222.5 519.65,-219 509.65,-215.5 509.65,-222.5"/>
</g>
<!-- Node5 -->
<g id="node5" class="node">
<title>Node5</title>
<g id="a_node5"><a xlink:href="../../d5/d27/library_8c.html#af183411517ec69b1d59f875fbb0245bd" target="_top" xlink:title="Handle the initial HELLO handshake message from OBS.">
<polygon fill="white" stroke="black" points="318,-133.5 318,-152.5 446,-152.5 446,-133.5 318,-133.5"/>
<text text-anchor="middle" x="382" y="-140.5" font-family="Helvetica,sans-Serif" font-size="10.00">handle_hello_message</text>
</a>
</g>
</g>
<!-- Node2&#45;&gt;Node5 -->
<g id="edge4" class="edge">
<title>Node2&#45;&gt;Node5</title>
<path fill="none" stroke="midnightblue" d="M210.34,-209.34C231.87,-196.94 271.21,-175.44 307,-162 313.51,-159.56 320.45,-157.32 327.38,-155.3"/>
<polygon fill="midnightblue" stroke="midnightblue" points="328.77,-158.55 337.47,-152.51 326.9,-151.8 328.77,-158.55"/>
</g>
<!-- Node2&#45;&gt;Node9 -->
<g id="edge22" class="edge">
<title>Node2&#45;&gt;Node9</title>
<path fill="none" stroke="midnightblue" d="M200.19,-228.58C215.25,-250.86 256.3,-305.8 307,-326 440.53,-379.19 508.1,-386.14 630,-310 677.89,-280.09 703.95,-214.43 714.43,-181.56"/>
<polygon fill="midnightblue" stroke="midnightblue" points="717.85,-182.35 717.4,-171.77 711.15,-180.32 717.85,-182.35"/>
</g>
<!-- Node12 -->
<g id="node12" class="node">
<title>Node12</title>
<g id="a_node12"><a xlink:href="../../d5/d27/library_8c.html#aad4174fe2c4665d21ae49896fc25be9e" target="_top" xlink:title="Handle the IDENTIFIED confirmation message from OBS.">
<polygon fill="white" stroke="black" points="307,-171.5 307,-190.5 457,-190.5 457,-171.5 307,-171.5"/>
<text text-anchor="middle" x="382" y="-178.5" font-family="Helvetica,sans-Serif" font-size="10.00">handle_identified_message</text>
</a>
</g>
</g>
<!-- Node2&#45;&gt;Node12 -->
<g id="edge13" class="edge">
<title>Node2&#45;&gt;Node12</title>
<path fill="none" stroke="midnightblue" d="M241.19,-209.41C266.42,-204.28 297.67,-197.93 324.23,-192.54"/>
<polygon fill="midnightblue" stroke="midnightblue" points="325.05,-195.94 334.15,-190.52 323.65,-189.08 325.05,-195.94"/>
</g>
<!-- Node13 -->
<g id="node13" class="node">
<title>Node13</title>
<g id="a_node13"><a xlink:href="../../d5/d27/library_8c.html#a046a86e7ba13a054663021594755d54b" target="_top" xlink:title="Handle REQUEST_RESPONSE messages from OBS (responses to our commands).">
<polygon fill="white" stroke="black" points="311.5,-286 311.5,-316 452.5,-316 452.5,-286 311.5,-286"/>
<text text-anchor="start" x="319.5" y="-304" font-family="Helvetica,sans-Serif" font-size="10.00">handle_request_response</text>
<text text-anchor="middle" x="382" y="-293" font-family="Helvetica,sans-Serif" font-size="10.00">_message</text>
</a>
</g>
</g>
<!-- Node2&#45;&gt;Node13 -->
<g id="edge17" class="edge">
<title>Node2&#45;&gt;Node13</title>
<path fill="none" stroke="midnightblue" d="M211.25,-228.67C233.11,-240.69 272.14,-261.41 307,-276 312.37,-278.25 318.02,-280.44 323.7,-282.54"/>
<polygon fill="midnightblue" stroke="midnightblue" points="322.66,-285.89 333.26,-285.98 325.03,-279.3 322.66,-285.89"/>
</g>
<!-- Node3&#45;&gt;Node4 -->
<g id="edge3" class="edge">
<title>Node3&#45;&gt;Node4</title>
<path fill="none" stroke="midnightblue" d="M427.79,-247.41C452.81,-242.05 484.08,-235.36 509.97,-229.82"/>
<polygon fill="midnightblue" stroke="midnightblue" points="510.93,-233.19 519.97,-227.68 509.46,-226.35 510.93,-233.19"/>
</g>
<!-- Node5&#45;&gt;Node4 -->
<g id="edge8" class="edge">
<title>Node5&#45;&gt;Node4</title>
<path fill="none" stroke="midnightblue" d="M427.8,-152.57C437.57,-155.19 447.75,-158.33 457,-162 485.94,-173.47 516.94,-191.37 537.39,-204.05"/>
<polygon fill="midnightblue" stroke="midnightblue" points="535.67,-207.1 546,-209.46 539.39,-201.18 535.67,-207.1"/>
</g>
<!-- Node6 -->
<g id="node6" class="node">
<title>Node6</title>
<g id="a_node6"><a xlink:href="../../d5/d27/library_8c.html#acab761db577bf6b074b4e9be8be845b5" target="_top" xlink:title=" ">
<polygon fill="white" stroke="black" points="493,-19.5 493,-38.5 630,-38.5 630,-19.5 493,-19.5"/>
<text text-anchor="middle" x="561.5" y="-26.5" font-family="Helvetica,sans-Serif" font-size="10.00">generate_auth_response</text>
</a>
</g>
</g>
<!-- Node5&#45;&gt;Node6 -->
<g id="edge5" class="edge">
<title>Node5&#45;&gt;Node6</title>
<path fill="none" stroke="midnightblue" d="M397.83,-133.48C428.55,-113.74 499.4,-68.24 536.64,-44.32"/>
<polygon fill="midnightblue" stroke="midnightblue" points="538.81,-47.09 545.34,-38.74 535.03,-41.2 538.81,-47.09"/>
</g>
<!-- Node5&#45;&gt;Node9 -->
<g id="edge9" class="edge">
<title>Node5&#45;&gt;Node9</title>
<path fill="none" stroke="midnightblue" d="M446.39,-146.57C513.66,-150.37 618.14,-156.26 676.61,-159.55"/>
<polygon fill="midnightblue" stroke="midnightblue" points="676.44,-163.05 686.62,-160.12 676.84,-156.06 676.44,-163.05"/>
</g>
<!-- Node5&#45;&gt;Node10 -->
<g id="edge10" class="edge">
<title>Node5&#45;&gt;Node10</title>
<path fill="none" stroke="midnightblue" d="M427.79,-133.41C451.53,-128.33 480.88,-122.04 505.94,-116.68"/>
<polygon fill="midnightblue" stroke="midnightblue" points="506.99,-120.04 516.03,-114.52 505.52,-113.19 506.99,-120.04"/>
</g>
<!-- Node7 -->
<g id="node7" class="node">
<title>Node7</title>
<g id="a_node7"><a xlink:href="../../d5/d27/library_8c.html#aab5c2995d6518ef254538795c00afdbb" target="_top" xlink:title=" ">
<polygon fill="white" stroke="black" points="675,-38.5 675,-57.5 767,-57.5 767,-38.5 675,-38.5"/>
<text text-anchor="middle" x="721" y="-45.5" font-family="Helvetica,sans-Serif" font-size="10.00">base64_encode</text>
</a>
</g>
</g>
<!-- Node6&#45;&gt;Node7 -->
<g id="edge6" class="edge">
<title>Node6&#45;&gt;Node7</title>
<path fill="none" stroke="midnightblue" d="M630.21,-37.17C641.7,-38.55 653.51,-39.98 664.63,-41.32"/>
<polygon fill="midnightblue" stroke="midnightblue" points="664.28,-44.8 674.63,-42.53 665.12,-37.85 664.28,-44.8"/>
</g>
<!-- Node8 -->
<g id="node8" class="node">
<title>Node8</title>
<g id="a_node8"><a xlink:href="../../d5/d27/library_8c.html#aaaa872a3d93d0ce3d5d4346f4b1c763e" target="_top" xlink:title=" ">
<polygon fill="white" stroke="black" points="681,-0.5 681,-19.5 761,-19.5 761,-0.5 681,-0.5"/>
<text text-anchor="middle" x="721" y="-7.5" font-family="Helvetica,sans-Serif" font-size="10.00">sha256_hash</text>
</a>
</g>
</g>
<!-- Node6&#45;&gt;Node8 -->
<g id="edge7" class="edge">
<title>Node6&#45;&gt;Node8</title>
<path fill="none" stroke="midnightblue" d="M630.21,-20.83C643.89,-19.18 658.03,-17.48 670.92,-15.92"/>
<polygon fill="midnightblue" stroke="midnightblue" points="671.46,-19.38 680.97,-14.71 670.62,-12.43 671.46,-19.38"/>
</g>
<!-- Node10&#45;&gt;Node9 -->
<g id="edge11" class="edge">
<title>Node10&#45;&gt;Node9</title>
<path fill="none" stroke="midnightblue" d="M589.46,-114.52C601.82,-118.9 616.66,-124.18 630,-129 647.89,-135.46 667.74,-142.73 684.24,-148.8"/>
<polygon fill="midnightblue" stroke="midnightblue" points="683.44,-152.23 694.03,-152.4 685.86,-145.66 683.44,-152.23"/>
</g>
<!-- Node11 -->
<g id="node11" class="node">
<title>Node11</title>
<g id="a_node11"><a xlink:href="../../d5/d27/library_8c.html#a69f8fcc1732533a2ebe573ac65effa04" target="_top" xlink:title="Convert a connection state to a human&#45;readable string.">
<polygon fill="white" stroke="black" points="666,-95.5 666,-114.5 776,-114.5 776,-95.5 666,-95.5"/>
<text text-anchor="middle" x="721" y="-102.5" font-family="Helvetica,sans-Serif" font-size="10.00">obsws_state_string</text>
</a>
</g>
</g>
<!-- Node10&#45;&gt;Node11 -->
<g id="edge12" class="edge">
<title>Node10&#45;&gt;Node11</title>
<path fill="none" stroke="midnightblue" d="M621.6,-105C632.69,-105 644.34,-105 655.58,-105"/>
<polygon fill="midnightblue" stroke="midnightblue" points="655.77,-108.5 665.77,-105 655.77,-101.5 655.77,-108.5"/>
</g>
<!-- Node12&#45;&gt;Node4 -->
<g id="edge14" class="edge">
<title>Node12&#45;&gt;Node4</title>
<path fill="none" stroke="midnightblue" d="M427.79,-190.59C452.81,-195.95 484.08,-202.64 509.97,-208.18"/>
<polygon fill="midnightblue" stroke="midnightblue" points="509.46,-211.65 519.97,-210.32 510.93,-204.81 509.46,-211.65"/>
</g>
<!-- Node12&#45;&gt;Node9 -->
<g id="edge15" class="edge">
<title>Node12&#45;&gt;Node9</title>
<path fill="none" stroke="midnightblue" d="M457.37,-176.81C524.57,-173.02 621.16,-167.57 676.55,-164.45"/>
<polygon fill="midnightblue" stroke="midnightblue" points="676.93,-167.93 686.72,-163.88 676.54,-160.94 676.93,-167.93"/>
</g>
<!-- Node12&#45;&gt;Node10 -->
<g id="edge16" class="edge">
<title>Node12&#45;&gt;Node10</title>
<path fill="none" stroke="midnightblue" d="M427.8,-171.43C437.57,-168.81 447.75,-165.67 457,-162 485.94,-150.53 516.94,-132.63 537.39,-119.95"/>
<polygon fill="midnightblue" stroke="midnightblue" points="539.39,-122.82 546,-114.54 535.67,-116.9 539.39,-122.82"/>
</g>
<!-- Node13&#45;&gt;Node4 -->
<g id="edge19" class="edge">
<title>Node13&#45;&gt;Node4</title>
<path fill="none" stroke="midnightblue" d="M436.29,-285.89C443.46,-283.04 450.55,-279.75 457,-276 475.51,-265.25 474.65,-255.02 493,-244 500.63,-239.42 509.24,-235.45 517.69,-232.11"/>
<polygon fill="midnightblue" stroke="midnightblue" points="518.95,-235.38 527.1,-228.61 516.51,-228.82 518.95,-235.38"/>
</g>
<!-- Node13&#45;&gt;Node9 -->
<g id="edge20" class="edge">
<title>Node13&#45;&gt;Node9</title>
<path fill="none" stroke="midnightblue" d="M452.56,-310.4C504.59,-314.08 575.8,-311.75 630,-282 671.29,-259.33 699.17,-208.78 711.97,-181.07"/>
<polygon fill="midnightblue" stroke="midnightblue" points="715.28,-182.24 716.13,-171.68 708.88,-179.4 715.28,-182.24"/>
</g>
<!-- Node14 -->
<g id="node14" class="node">
<title>Node14</title>
<g id="a_node14"><a xlink:href="../../d5/d27/library_8c.html#a6f7f5f47389b537c9dce9f1b328b7f06" target="_top" xlink:title=" ">
<polygon fill="white" stroke="black" points="501,-253.5 501,-272.5 622,-272.5 622,-253.5 501,-253.5"/>
<text text-anchor="middle" x="561.5" y="-260.5" font-family="Helvetica,sans-Serif" font-size="10.00">find_pending_request</text>
</a>
</g>
</g>
<!-- Node13&#45;&gt;Node14 -->
<g id="edge18" class="edge">
<title>Node13&#45;&gt;Node14</title>
<path fill="none" stroke="midnightblue" d="M452.64,-286.09C470.34,-282.3 489.1,-278.29 505.92,-274.68"/>
<polygon fill="midnightblue" stroke="midnightblue" points="507.07,-278.02 516.12,-272.5 505.61,-271.17 507.07,-278.02"/>
</g>
</g>
</svg>
